<mxfile host="app.diagrams.net" modified="2024-05-09T02:21:20.322Z" agent="Mozilla/5.0 (Windows NT 10.0; Win64; x64) AppleWebKit/537.36 (KHTML, like Gecko) Chrome/124.0.0.0 Safari/537.36" etag="r5q8bJKSJoXgMyFM9mTQ" version="24.3.1" type="device">
  <diagram name="Page-1" id="vWi6RyR-5CVPBlEJYBvu">
    <mxGraphModel dx="1050" dy="583" grid="1" gridSize="10" guides="1" tooltips="1" connect="1" arrows="1" fold="1" page="1" pageScale="1" pageWidth="850" pageHeight="1100" math="0" shadow="0">
      <root>
        <mxCell id="0" />
        <mxCell id="1" parent="0" />
        <mxCell id="bRRKJH2Vn7t5-3kJ36dZ-1" value="" style="sketch=0;aspect=fixed;pointerEvents=1;shadow=0;dashed=0;html=1;strokeColor=none;labelPosition=center;verticalLabelPosition=bottom;verticalAlign=top;align=center;fillColor=#00188D;shape=mxgraph.azure.laptop" vertex="1" parent="1">
          <mxGeometry x="60" y="200" width="250" height="150" as="geometry" />
        </mxCell>
        <mxCell id="bRRKJH2Vn7t5-3kJ36dZ-2" value="" style="sketch=0;aspect=fixed;pointerEvents=1;shadow=0;dashed=0;html=1;strokeColor=none;labelPosition=center;verticalLabelPosition=bottom;verticalAlign=top;align=center;fillColor=#00188D;shape=mxgraph.azure.laptop" vertex="1" parent="1">
          <mxGeometry x="530" y="200" width="250" height="150" as="geometry" />
        </mxCell>
        <mxCell id="bRRKJH2Vn7t5-3kJ36dZ-3" value="&lt;b&gt;Ramesh&lt;/b&gt;" style="text;html=1;align=center;verticalAlign=middle;resizable=0;points=[];autosize=1;strokeColor=none;fillColor=none;" vertex="1" parent="1">
          <mxGeometry x="150" y="360" width="70" height="30" as="geometry" />
        </mxCell>
        <mxCell id="bRRKJH2Vn7t5-3kJ36dZ-4" value="&lt;b&gt;Suresh&lt;/b&gt;" style="text;html=1;align=center;verticalAlign=middle;resizable=0;points=[];autosize=1;strokeColor=none;fillColor=none;" vertex="1" parent="1">
          <mxGeometry x="630" y="360" width="60" height="30" as="geometry" />
        </mxCell>
        <mxCell id="bRRKJH2Vn7t5-3kJ36dZ-5" value="" style="shape=image;verticalLabelPosition=bottom;labelBackgroundColor=default;verticalAlign=top;aspect=fixed;imageAspect=0;image=data:image/png,iVBORw0KGgoAAAANSUhEUgAAARAAAADjCAYAAABNe0sWAAAAAXNSR0IArs4c6QAAAARnQU1BAACxjwv8YQUAAAAJcEhZcwAADsMAAA7DAcdvqGQAAMKySURBVHhe7L0HoCRpVTb8dHVVde6+ceLORpbdZUkLIkEUI0GRICoqKugHxg/FiOEzgPCjiAnFAIggiihBkoAkQZCc0y7LsmFyuKlvx0rd//Oct+vOnd0Fd3f2zsxd+sycW9UV3nrDOc97zhsLx48fH5PgeR5838edQeVyeXI2pSndfhqlIxR8Dxn/jZDwbwSPZyUUgXER6XoMvzaLOObDVeBgewy/WcCoAFyzEuND10c4sgZkUYJqKURxNMKgt44k6iL0R7hg7zz27Wjgbrur2MP3m2MgHA5RzRLAZyDlIrIsZfgJRnzXKwamG2N+fzwuIAxKFs8C3zPSMT/n64nHb/NUKVC83VEPjOwR3cGYrCOocwxT720EwfPTpSHTc2dRmqaWDwVGTCys2DgKQIIgmDx659AUQKZ0OpRmI+qXh5SKJAApjoYIeF4sSE5DxCMPcQTUKWbHllZRW5zFu754BH/9jo/h2LiGoV9BLyWo+AHm5+YwMzuHYkDgGafU0gSBl2I8aGOmkOGee3fhoZfuwGUNhsfQA4LSePAV1Kr8YLBApa7zFUIA9TEQAPhU84piKXUXoDnNz4gFA10mCV702AYQsIJGQeChd8SOBC2sunksbNzRK6rGBS2nQ3cmgOSUJBNAZdnkXFhdXT2ZojuJpgAypTtKEkbqvtXgIx7Ho5QKlcEvqtYzFUbM6x41rdMZYlQq4y9f9WZ8cH8bNwX7cHipQ4zhAwQMFKiGBJHG7DwWd+9CuV5jSLRGhl14WYzSKMZ8GOCimRlcsXsOd98FXEwguZjfqKCDKKMlkvoojkOEDKrAII0IQM78kOIrdlQusgwiAUBd8cuNjRxEJscJ3jAWYzs6zs9Zq/MYTI6nQ1sBIKIsy8wimQLIlM5JMoDQkVLppwk8atzYo/sgBc61ivdknRym1v7K81+Oq7sVtINFdAt1BNUKhr1jfIAKlPBBaXexhHp9BjM7dqA2N4vIG6PcqCKo+FS0HnrdNQOIvYuLuLJZxmP3AnejsbOz6ayBBF0GFdG7KdH+CWgRTdyOouyjAoZybfic7KNA8c6NDZGAQ6Ax4VuzQ+h82VFX6SQwNJ9/Tw9CtgpARAIRWSPFYnEKIFM6tyivzSWUYTamjlLrpHjkhDom62Nt0MWaV8EzX/TP+MKaj2j2MnTouoyOHAeqARZmPQzWTvAlD43aDK0ID91+hAYBYu8ld0OxGaLDsHtpjBGtCp/oIVsiHgxQXu/gqlID919s4H6XerhkN1BjXGiLUKVjAohclNwUIU7xzdiUvWgAYq6LIi9mnEUbwJH/dgd7S98tWChmc02uKqST37gjtJUAIspBZAogUzqnSCqUUanMnKdkSiFz3criGCtEkk8u9/HLf/lydBYvQ9w6H+39K7zpYfaCizDuLiGMTyDurjKMIkrlKqJ4hHZ3IMFEuLCIy+5zbyT0gUbWKKhWFdb6NHlkOXijDMUCLYt+DyHdpysWW3jYhRXcfw+wm2LtZQynKIgbMXSf/6jsskgEAfRb5JrIftA/tW8oHUrCZiUz4OAFwxO1j6htRokck2VmeYSpDX/pjtFWA4goZnlMAWRK5xQJOtROITWTXeAJPCYA0iMQHKAv87MvfDVu8udw5BiVub4ALO5CgebJ+MQq3YwUpdEyamWqJ5VwMEyR8VisVDGgpKfREJd/80NpnDD8ItWfCiu3w6wdhpHw+4f7XRTpClWKZZSHEXYlQ1w5X8JDL6/h3uc5t0aWSJkRKxuy8YeORcVcTaMiwYNcG7EDGLu6ARybmBaIgYfCEKIVCUrbAEBEUwCZ0lkhmb/q/VMtlqYpqtWqM4tpAWTSHZ7XiiXTKUQZUi/Ae65dwrNe+SZcX9qFtfKMUzRpIN+Xu4I0pPKmtCDWeYysch/Rb7BWBtXsUk61vs7P4G5XXM57IwQEkvEgplvi0QKhzeCH6I59gk6B1k9Kt2NkPSzqCq4QZOaHPfzyo/eCOIIdjF7N9LzPaETwaZgU+Jy6gR2qCDiKoCGDwYDxYhrKFTlEpFzr7KhEivnD4sj3dTwNmgLIlO7S1Ol0UKlUNlrzRdYwR1BpDzpoUNGK8RCDfoJyq4U3vP8r+N2XvwXp3stxyKsi1VgMdXUQcMQFankhk8LyZzGmZOu67uuCrlIhVf3zUx4B5JIr7k6Q0BgPQk4U0xKhG0PE8Ysh8cq5H2qbyAg4fd/6geBnAVpxhj3DPh6wp4GHXA7cfX7S/ctnK4OIlgnRYqObt4BBu4swrKJIV0pjWKJOD6V6Sw84ynEibzgx4Dg98BBNAWRKd2nKxxPIAtG5rBBZIM1WE326DLJOfNbeAyrTX77+E3jLJ29Cb+5iXPOl6+HvnqdiZ7QOKLrWMilLpYAglQNCtScImAuQ8hu0GvzUtUSofSLjO5WFJi668u4Yqs2iRIBICThFWikEkLJPQItd749aOQpUep+A4to0xrSEKN+zVSwdPgZ/ZRXfsHMeP3ifRXzL+UCTMRkTRIqFBFHUR4Ug55suFDBcaxMbPJSaAg+BGVntMDyftIAYzglK5R6ZYXMaNAWQKd1lqd/vm8siktUhIFGXoICEPxCPMwwJAB1K5t++7oN4zQevRb9+HpZjqlWVlsm4b2onwR2N1VAZWAUeZHRbqKSJ52wCZAQQDSjTkU/JZTEAmWvg4ntehohWyij0MCCAaOSrRmQHMmKyoQubYXijIkICSJEXBEGKwqFuGw0CwY6wgXq3j/nuGi6qFXDfu+/AvS4sYi/FX0aI2kbTwRAhsaJWkU4wfQQ5N0aFPwki6n9hDljPUw4gelfO2enQFECmdJclWRo5YOTui0gK3KM7USyXcIAa9f9e/j58eP86ksYOrLHGR8lDY34O3YEsDWtiRYHuiz/WaAxaJHw/K6j9QuDkAMS5MRLxCXtjlGaauPsVl/EXwYVANZILw7CKtFZQ9rDmDxD5sg1kdbgOXI9AFRBIygxzgWDjE3Sy8dCaXiK6OEPaSxHNk8qgjR++z17ca4eH82dcF7DAIKCJERJQCikBpcIrGplKMNNXmGIDEVkhUwAhTQFkSv8byfIQgJRKJXNjJPDNZtOGg1+9CvzJq9+FT3d87I88pH06MjsWUEz6GFOBs4Q1+Nin/hFCRgmCsRyd1AaXpQSEcYFOgEaeETgKAg8x70lddQxbLVx2xRVmkfgEnHGU0m2gwyQAIUitBTFiAohHQFJXb0KQK0wApJpmWFAYBC3GGqtZjOOMc79YwzicxywBaubEl3Fpw8MDLr8UD7jUwyLvj3rADN9bILZ5/K6ZJzKbeE2uUkroEPPn1IWZAsiUvhZFkXpI6C4EgVkiEnZZImEYGnj89N+8A+uNPbjh0A2I1Y/bZD0u5a6ySk+oYhqqKrdCYzYIIHICxoWElwhK3ojnUkMqqrkvPPJdWRNq40g9WhGzLVx8xT0Q8XzMOAxj2hjq+eAzQZHARJByui3V0IlaT3jGizrGdENSqr3C8xj/MAyMlRaBTky3psr7pWgdC16MB16wG99xrxlcQEwrEzvqCpzxdl23JOshklsj+0Pn7vLp0BRApnQWabNIOGnOr9xcWDbLus51nzpiJHUwJaRSnfJmxtqXyiaFUetEl3o05s9PX9fGr//FK3Fw5t5YGZVQr8UoVTRUPEOvH9G88OkTzFI7+IIaR0cpdVs1uUBDKh0TQIQY7ptFAxAe7RKdHF4WgJQIIBddeQ8MeJ5R8QcJ3R/GR9EsF0OEscJ2qXHNnEqRwGeEpEi48os2IlZulJpMynwxZBwCflvpWe1nKBEMG/4Y5WSA0mAVu4MRHnTxXjzkbk2cT/9Erk1J+KFsyceA6IfibhnHP8oU/cgzWc9OSG3Hkzfs8Zz0qHgKIFM6S0RxMIWfEGtzp0ZOWHNwyMmBxIT5gPSOqm7XZYqPhnQvaOYXNU1eloHaJPQga/5Bd4ikModeUMB7rgOe9/K3Y6VQR5ehpVQka1qkYipMxQF0N/IvKgjV9pA7wLtyT4wnbQtyW9TLKytEFogiLzXVmI6g2cCV978KAypuzOd0XdZPRiCRBTKmm3JSKfmiMf8yXH1Nbo2zclw8lDuKi7NY+NuAkUCj5xmQYhcQNOtpjFY8wDdduA8PvsDHVQtuKYESMdC5NFR6AiGySQ5mJSYjRKx000JRfhLzGFl+kbcFEYqP2kvy+Oq2YCeaAsiUzgqZUkokyFKSCYBsqiM3yKmQE16x6S0vDPmgdNaTQo5jhEVekO5bKDrwZlCivVDGOn++48tjPPcf3oLV8l6sDmhVhAIOadWtk9aiyEmuUE7unLwBIFRwfksAYg2susuI+q06rrzfVYjoAsVkQU+J8RlNACSVVXNKSm87CWQKRC4NREvUtmGNugQlBhcQPKsEkQXmR6l9HFfOl/HdD9iLe2pMHDOtOuqjUmZGGcgyouphYqQT/lYzjrlIPl0sWkFKS55DyvuJrbJRJlMLZEpniSgOknZJxQRABBw5eGwWllxg7bjphvBhGFOJGE45YM0pH4JAYmwvlNFHCWs8fctnu/jzV76ZVfFu3HRsFbW5BQyoHhrA9dXoXAaQlOAQ0V1RHILEQ0C3y5/M3lUjr8avLHWP4cILFtH0aYEdvQlXNEJ87/3uifs2aI0QO5t8TgZJpLj6A1Q8XmR8ZJn1GU6p0DA8rk0KRp6O5YgyXvEmwAwjWTFbTyr7KU1pE0kUyaakJpZG+a+cJTg5bzyVyy8PGs0t8HCL3LHGjKkRBBU5NgOCx2Fq88vffxzPe8Wb0SvPYbk3wN0v2Yu0v8QwperbkwoEqiLdqiJNBzvSTpC9MC4QFAkqMZV772UX4kB3gM+fWMdKbR6fXB/h+W/+AP7sAwfwMRoONzLPllgHR/RZUoLtOBMAR+aqlAsEOh6VQ7L2lPn6pjXKjgjQpwF+d4SmFsiUbkmbJYICqp+OT95wIDL5nV+2I//I3hZ5hh60yDXoa4QC0WTAt/ZTxt/8sWW84FVvB2b2EFcKqNdCpO0jCEsh3ZoyYs1I/Sp0LlsgAj918artJqIbEjO8qKiFAJhbBY1spXW23sVcvY6qTzenJ7siQbXC9KpNptPBN9ztEtxvB/CwXbA5N3WCUNxdslH7CCrwqi3riFIMBSfljL/SCeiqN8kPaIHIatl6mgLIlG5JmyViAiD6mwOIaxURTR7UYfM7CRVQA8SotOrqREBw4O8ebx2krP/ze27A37/pvahdeC8cWx+azAdUiVphYN/rZiGSbQogPkGgrEl4DHVAa6MfeBj4GiimaNGlGXkoxQUb3VqmfRKEIWhUWINoO46QRD34vTYub1TxoB1N3HdnBRfOuol7Mww3pCVT4DtyUCJmlqy9ugBLI1x1VL77ZQzVU3UGaAogU7olbZYI01VdcAByEjgmD+XP2pF3rX+RwstaF2nESpWqVKlbY+kHbhrjXZ87gH/5r4+h0NyJ9fUO5i84H8sHbqBn4+OiC/fhhhtvouFSYTB8/6vQuQwgajHSwovqDYoZD3X7qutYRpni4xNAWmEd4z5BxoyEIuNB14Z+iVfx0aoSEJJVxP01dCNaZgSLK3a08OALanjoXlokRIxQbUn8UloIDJgUU1kixfEafzCVXoMAorC3nqYAMqVbUi4RG3qqC7fGAgweRAIOe0Gc3x9RGYtWA99ISX/Jfx7AS2h5LF5+FU50aG2kfVajPczsWsAgGiJabiPYuZtmfe/kp2+FzmUAGfHbatS07mTGQdaahnZomr8dGQF1F4e0EvwCgZIP60tKkXBX1tuotx+VVgVpc4E/xyj21rGjGOGeC8AVcz4edY+dWox+Y7i7QEShlNHhmUKTBXLH4n97aQogU7oFbejkRE/d+AY13enoWKuDafRogf62aaU9zKPGZVCJosEQxUoNXV4+wkvPedkH8ZZP7Uf9wntgpU+Rp4J5Y7WIaF6L1tzw+brUgi9kmg0rbbp1uiVoTCgHEMVVVT6DkB57PNdzSoHiFszN4PJ734tOE9PBz0U0/8sEEA02M+zZSOvtJ1kcfZ/5wIDK6QiVNEMpG9G1UZjq3lXDqFacL/KX2kQCujU+/NSnW2OvMQxGXUsSeH2CZcxrjDtBM2YeBTRb5tIOHnreDJ72DQugd4NBZxmNepUxriBORiiFBUTDaS/MlM4WCQtulaRUNMujCEX57n5I15uKMRmGbQpK5ej2+sSCGtoM5xCV4kd+5cX4yPXL2H3FfbFCK8O0mtotlaaRQPDQ+wQQuS2brIttSQZCTMtIwDrZS8byhm4MkybLZKRZwJ6G3dPa8GICSozMjxD7KYZ8rU+OtCQBgdlG0PL9QbGEtWAGx8KduDqbxcd6JTzz3z6Ij64QYBrzWO+PsbYeMQs1n+bM5eHUApnSLcgEQn8oh04UXe05uYPBoI9SuYJIc0go6D5dFN3p9VjrVumbs8ZPWRN/iV7Kj/7qX2O84zIcXKNTzlpeq6IPh10G7AZbOdBwAGTgISsiS6k47lu3RueyBWKAgZBMu41AoSH2KCRMWsawNcJVlpfgRGnlL6ZbSy4KJFLyyAadhTZxr05XR13BcdEBrXwjGwHL/F7vLqHiD7EzbeOXvvWeuF8L2E3cChLms2YHR3LDtp6mFsiUvipJZm+NKlpfNEoIFFQDCrNEVaNPx4EGOvGc4PHBA3087XdegsKOu+FgJ0G4sBtepYReZwW+dWpKsfiigQfZFIquzZg16h1U3nOB1M4RMi/EAqSxnDRaBbG46M4FFnJJ1F4i1hybyM9ofZD9hBaZmNeKRealRrLK1SkgHKd0dzLUazyvLQIz+7BWvRB/8u8fx9XEjaP8fhTQcjmDVtwUQKZ06/Q1ZFBK4fkBSpWygceJtpb+4yuU3WVeeNs1HTzjT/4Bq8E8f3so1huIB12MsyFCX3Wzmi1FE6vDfvHFEYGFXLD2gu1KtHbMglGviCblEUyYOX5WRHFEC2IcWBd15AUECDdGRL00ynA9X8rGqGgSIK2VfhiT6ZYU6DISdEe0Zmw+Di27Uh9Y4HExqMPfcxF+77X/jY8xCw8yT7VPzZmiKYBM6XaS1F/qIWPcvARUGm7AmBr+3/7+6/CbL3o1xufdGyciN/N+caFBx36FBsYQlVrVGhA1P8RQSmChcdujhAqUmsm+nS0QR3RXyHJVHIi47lttSKUVzgo2tN2xx/OA4FJKC6jGBdRohJXTjKCT2EJJJ5caUkOzGmDHWF7rotUE2ksDy771hNZKfQGv+fABrPJJ9cqcKZoCyJRuQWoHEN+SpNoFxPTNtdp5JLkmacjHUhd4w1s+jje950NYCvfgwDJQ23UemvUAawe+hPP2zthEsfXegEpQpvtfci9TSbzRkMoSmcJte2LGCWINQHgUgGhzLFkgfiawCMghwrSEclIiaISoxwGawxCtYcBzD6VRigotsdkoxkzkQNXAg66PNu4eV8ZYR4TGRWV87obPohoGmKvvwaGVEj65Iqg5czQFkLsgSfdzPkmTKxTok3zy8im86VTCKGtDq5K7XWqLtpJ5Set6Mgzd1+iDf3nnx/F3b3k/vjIsobb3EqA1j16ni16vh9m5GfQ1ZFtrbgxlk0jsnOuSzx1xjaYaHO9EUtdvL1uabka3BoS6lPPNibh4mkQXpiAXLXdl3FfMSeGp2kU0PkWgovOi/aZ1ovPJdUdjaE6e1mJVpNwSAu46PR/be+rQiQO46O4XwgsCrK4PaQFW8Y7/PnRGLZBpL8xdjEzeJmxCa8xfuXJtKBnvmESaVJ5C3V6KKt0SGhoY0rsIWZy5Ksi71khL1bCqYw8NRvjbN38Ar/3QlxEt3hNr4wqyRGMQ+KJMcLolzgSf1MnWaJrXW4qXc1nELmaKl1va77ZQ3guz0RuTvzhimPys1gQRuOi+GUzUYl+9MPe5l3aOYXyAKElQDku85Xph8jVGvhqd0vNzK3Qy7kpLfuqubn5T39JVx8oD3Xf/dObeoENkDa66Msk3O/AZA16lUc/K7vGwc3gCf/TIi3FFcGaGouYlOaW7GG0WzFMol0rRyYdO4eJkKr1qOv3WmKRM8sqfKf8IElaJD8cJJ3/2qjfj9R/8PMoXXInldoTMNntyvSl6Qz0ISSEkE3ast0WXqaDGClExNGOfR92/7eBxq7QpuZYc/nagYJc26GY/T/7mSze/d3sp/5xBAT/ulkKUVSJgOsluTIi6s0d0T8a2AJFN+Sdg5N26YoMHgpusNLGWVzELRqsKaWQr80xzfvWFiPn/Ke06foZoCiB3MZLS5ILmzHp33WpAM4MpkB4VVvMzWPojVmGbWYNKw5LbTU1haQFxbeFYSWPUswG8dGDgccIP8JQ/eh1ef02EdPdVuP4rh9GaCeD3j1CwBR5TOhs09Cr42NLpQuBtpymA3NXIQEO1e17TSZhUOxWslhK7ZYjFshVY8/FuSpBIeaa/HkEj0YZPWq2ctWOYduElPRTUWhpUsL8HPOmZL8O10Qz6c3fH0aM9lPZciKi7hgodA+eybHcSfG4/jll412lDnTNEUwC5y5GERwBCJRaYTK5IpWk4TEDDnU+WuuHTmlCmRYnFatsASiUfgUc/OlqludxFMSxiNfHxiaMpfuWFr0Nv7nKciGsYRPRzai1Eyyt8RltNyxWRMG9Tsiy7pWJuF5bLeGw4dWGmdFpEAKHlkLfS5XaIjpvZwYsekcq7vhaxnat1TqtcSULqLcR+E+/+wiH8wd+/AVevjHEsDu061BujRlO/CK9cR1Is0a+fitXZIpWkhuifKZqW9F2NDDQ28USY3F+BhWMVvJosxWor1ewNsXXUjgY0YMh8ahy2sFqo4z+uXsY/vO8afOCaE/DmL4DNnh2sAWuH0NrZRGPHAjrHV+DP7OB7k8bSKZ1xEviX1Mp6hmgKIHdFylGCqnyqpXESOAQaYm3p6JO1ToVbyIIXBTy0KKJSC8u8+6bPreE5//QOvOczB7Hjqm+yVo60s8ZwYlRnamgfOYho2Mf8ZZejv//A5NtTOltkE/XOEE0B5C5HuUOi9g0drTPRRCoHDnW0amekUS+Gpx2SNGyjP0Z0bJ3uiIek00FSKNvkrBe+ez9+55/ei2viGdQuuheOHzmGcbQOP9Ds0tSt/l2tIY6GWD50A90aTUM/czXgHSGbmTtizmw65ufut5756uwQ8uzxzeOhfWhy1rII6cZSQ1tPUwC5i5Hkyo0LyFsz3FUVdG51ZAPe1UI3mo9ifbkBQWGM0uxurB7rwmvuxv5hAX/9xs/gn9/5MayXFjBq7EFvkCBozdk3cmgyGbbwKbZaOVxD0vnl7U+nKu12YVUVZ9KFnALIXYwkQBpurqHnUmuZsxqK5FPhbR2KEYGCslbQKt4hi1+yRpQphDVkQ6Cxdyc+swb8zVs/hjd+4FM43ouQjRmikKdcRtLvI/Pcosdq8ReIaMKXP45tEymfVsn2nk27vcmavvjvTNEUQO5i5GqgfE5J0YRJau66dVPHgcxeKrn0nI+tDEbIqsCwBBzm7T9//Yfw7x+9Hu1xGYu7dhFnMoLLZCUxmR+aiCG24dkCJhukbrfyLR+3L233+LNoziCATwHkLkpSARWuGxguANk0CqSQolgqok9//1iXFsSChxsHQKcM/NbfvBNv/swB9Jvnwas20e+souYNEcQEkPVlYGGegdLHLogFT2ptceChQUxxIbxrdONqntA2ZFUfWgbgTNEUQO5iRDEyduAxKWAChZkbskIIHqOojwgElLKHsFUwq2NcA37w1/4GX14nkrR2YOBVENHKGGRjW+M08CmcVYJGV1sHaKi62jkIHQWf7gyBQy4N2Zbk2/ZilefidmSHJWeKpgByF6QN8JBZIOywZnspvABkhOX1JXogAbq8oo2eEh944jP/CsdpORwZDFBrlBEvH0c/9eC1dmMwLhk4NAk4WD+MQkYQGWmbKP72ahh7LXKDYcut4bUzKMBTOpXkwmrBpjNFkrM7nzQTS7WeOcXuIPHdZETzXNOrZfrqjp6YHHKeXNNf6YCeMl0gn7w6ueIu2sFO7SS/fzPWdWO9N3mRpLsTFcuDO2tk0Scrd1xfhzvbiKG1Z/C38liLB+cvTE6Vz3rSyExbIsSYym3dez6aMzuwf2nJQjw6GOFJv/kXWCpW0K0tYikpYmWNAKFNbYcRhsMElfmdiNIR2ksnMLc4Z1sLeOYS6WtCCwksOa/6eFlnd4RPmywgRUD5pvjlrULussWNLHB1Ew71iruhmbFao9Qe2qbsUnun5ORtoq1ZD0S7savDUHv2MS2syJDoyKv5x9TV55aoUSu+z4Lk85JoPtDvtFFt1flQEe0+q8iij1LJefNpEqMaaJFZhpbpBQbOdzVVXOHrmcCqXvn6urApeTo1hdIPiRTZY4bTl9e7YpFU7cxh+KmkqLlsyBXAtTG4ZlHesUtKg3iSBtU4lla1QwBLdDE8WgJzzFftNRKvRwjrrixWVlYxs2PWrI+3f2E/XviGt+Panoe4ugtRXGXCyanWkuC3rEGUJEWzOOQxcyqpvV4tUHuOETPQtsw9Jdu3ik5ZlyM/N3QQwPJIEQh46qeML39aGfN+ONuyjaUGowQx46wphD4tsijTxlIB/FGR4DJJ+3YjxjtjxfKJR0g2tp625ism2JMC4MEthrLx0z6q/gGx62jkXRW8blImE2qwVqpWwZarfHrcRxwPMMpim3qRsqDVMak9QOGX+GzRtgbUFiUSYSfQfC8/nsK6Rs4jNPns5PScIBcfF0+nuuLNxJgqsptZNEmWV2C+MSN13usPETZKGK4naK/GaCzO2gpir//wV/DiN7wH152IEHkzSIt0QQKCNi0N5Zt9mcplbCEpDtoMyUG+frv7Gb2ilKyBZXqHd/L4nA1y2TbhPCIuXhs0Od/I4Y17PLEfmx/ebiSJOXPxl0bd+URzGNoYh3Jmq3XzEtUdvAqKKOqU0QpvaG1Ib6T6XvZIRkFO0CnESGplnEAfa1ji1RW0yhGa4QCVwgAhhXbYT9GJiljPCmgzrA45Fp7okzy6ylkjHwLWOid5bD0HOStGefKdagSqiXg8kwVwc1JeyYDyyQ5g9VeuR8iYMYHWzsDftpMbM1hT7HnQKHRZeaKqVvZmikeIUGoU0V9fQ7kZoFoO0WGN/PIPHsKfvfVD+J+buszrC1DMahi3aXUUZHnINsltsW1IKrpNFprUScsBZlr/RBUKWbc3WKXNo96z5QbPXtFvS9oSAEkpzHJbtLqSDF45FyHtCV+1lFvSyrE8HStsRUN+vhaZG9qxxKhV+Vc1aTbsI22z3iRwyI9vVKtUBirZRH+0u6La7mSzaEp6HnR+zNl+S1hE+VEnrDkFYQ5ANKbhLEqRKQCZEdZyfEyiRVWC7gaI8UoOHh4TLRdMec1nxHqyzhdG/XVLy1J7CZXZJjK+0q8B//ROWh5v/m9cS8+1sPNyBLMX0HQnOBF0SjL9hVUWge1KKk9lgGTK7IvJCl+8pIy0hZQcaNhIXd5T6cvm8vSP72n1ryndNlIu3+k0IGt6hcRQe596tCbkhjierFZ1Shmp8GQBJKiRw34b1WjImpQFmlVRDPbCZ02J0jwDpeIwYJ/aUuJRq6/KhpHyJ/xqJ+7Zd8XSxVwfxRtgwm+bjORxsAf5R+a4PaELZ4k2R5icm9f55TwNOe7q6IByxH+KPx2/fgeVcoC1I4dRrzZp1Xk4yuee98ZP4Z8/+nkc7IcoNi/k+3N0ayKMwgpKrRYCKlOJX1Lj4rYlyyhlDJkZJOA1C4Rs0s6D8sxAhUDi1hvlBd50ixoLQBTQlG4LbQmA5PLvioVndDusZ2YyDsGWmlbVKndjUsXqWdcuUkSz0EK5MEedbtIsr2DImrbPZ3vkdT4nd0VWjqwOhVscDwggES0Wj65OJZcTO25mXRM5AeK3dcEu6gcPJnyT49mkPC6iTXHJL+dRzNldcTYK1QFBtYJsrYvFnRfR26nhIO8+63UfxOs/fx2+2E1QqC+iFLZokhDMhxGKDTqWpRA9DVtPFKJlyvYkFqpWPTdLgqVu+9Lm4GE0yTFekgyYZWLlLwBxq6Pr35RuG21JL0xULpslrDaPgtbH1FZaEnIrSG3VV0ZsBrYrV+0QUhTAZHxW3Y0FH13GaoVmzA1LwNUHuzi2RqukVsLeHU1cti/EAgNf5KNar9NT+Kl6a2TWE10KAcUkcILAcJRAsSmeu2QiIjb8sgcmAKerFsaGxJ1ZUiQVDcVJkWM0bKHdyaU8zjkgygB3HeJqRZrMeVEY/TGSSg3XM1nPfv0H8c4vH0QnZYaFMyj0PFp6IdI0QcqkjpvMxSyh6RjZ1gtu1Kq+dm7TrfXCyP1Qr4tyRkMFXE8WWZWYZS6JLt3l978fupS5xLrCgZoXwh+OEPoaGKfuXPfotiMmVTOKP/4IScnW05YASEYAoVyipJAFDFrZytbY529aE0PeFYA439O5IGU9qwEifOYgX37DRyO876OfwtIwwajSQMwHs9GQz8aIlvbjm668CI964D1xv/NbmOFrQUoQiQUiCnACALa+hTREH3YkAFHDrkRJ39Ydt/eG5fzkIq+aWXsWSPGw7mnSpI1D2TK54uKro8WZLPRT3vIJN1bEx7Azgl8P8bnjwAte+w6869AyOuphqTSZR3wkKaASZ8xLggzLpy94qtXhM58zgso46jFYhXlu060BiKyPQA1wLMjI8kZ5QlbZWv7w2kwLV9z/KlqzGeLJ9g91r4RwwDwpUjZ9rSa/KeztRIz2tgcQvxwaNFhfukK3L/APkV1L2WshX9VxahDs0XLwxhXUaLLExIAvD4Ef+/v34Fhlhk+xwFmQrhYRaZz/iJYNC3j5GC6ikjzp2x+CR95zFjt5tyHF82LiVRueWlmleYIyCtR4IHApoVApY8xvuQZeR8pqAxHpTI4qZwk/3CA3BwgCkNwxUWOg/snNQ8LcS2l52TgMRtxnhAkEg4QAq/VJeekzR4DnvfZdeN8NBxDXFoiwNNlKNVomfYY7RjFLUU0y23ZRdsuwGGJIN8bSTktQ3bLnOt06gDDP1oeYW9hBYEww7LdZoYSsDyhFfQoYLazGzkVccOUVWCNyjAKfAEL56MWoDMbWQD8s0p6bAshtIonLnU4+tCYEYYKFoLYsa/csquVbiQr4z0NKQR5TUGt+BQPqxGHe+VQXePrfvRn763OI6k0Kfh1xpYpE08hL5LCKQdDEyriOwp4rsd64EH/xuvfjBf/2GRzkd9olD+2sjGFQRq+7btiBiELTW0ehVkah7PO7POdlsUREdZLYxOVsgcZmUhxkXpDlmjiodWupuwbpBMmgB0+7sKv4KPxxL0GvP0K52rIG7Hd/EfjtF78H773uOEp7LiZo0voYEpn7PfglWWfaDHtEXHUNiPqcrxraXBex5ca2JGVfqzmDlQMHMex1UJqlfToBxFad+UAQ6S0tw0tTer0RlS1DQvdN9ltBVieTvl2x42zQlgCIq8q1QcBksSuyRhhYBc8/hcRHs9hEPSN48Ia8jA8eAn7hZW/CtVR+W6dCXYqKnYEOr42qDIACIB7SkUlrOLTGkt55d/z3wQF+8s8+gFdcC+znozcxfL++gGFEpdDgkCZN97VV1twD+DW1uEgRXQ0rWRGAqDHtXCIXL4GIs0G0YI8ba5vRkKjixP79rE2ZQSGtOKY3bFWwxIx+39Upnv2v/40PLxMgarvRWRugSCuvVGE+9pcxpxXDNPyd6BrTbB/QKhuyVs6Y3342ILaQt4H18dVpjPVOG/UdC/BobUbrmreTYkSwGK6uoerRAqFlN888DIQXTGuUaM2TEQJaIyVaK1O67bRFAGLVKItSfQJOQSWypqM6EarwvrZJ9ajwb/1sF3/+b2/H2uweDJuLTsBj+h9abk8zvRIqPcEGtC6QhWjO7UZ/aZU1Lmsa2utHshIOhvN44Xu+jL/80IBYU8OX2kOk5VmMy026L1S8mXnqDMNi7e1q9Ly2PddILsXmXdqsL8GuuJwcobuygsXzL6CVlWLIS+GCb7uyf+ZQht//23/C54+1Eey7BM35XbS+6NKx1tU8uGJQpEHWt3YCobYmyMV+gD6vx/xcQAukTNdGe9VuZ6pU6OTK+h0SUenelZqsdHpdREtL2Km2njiGnyQImQ1h4KHoF1Eq0zIOA9f0NTVBbjNtEYBoNIF6QVTPsZDI6pWxhj9e7BMbOgSPmOX6L+89hle87QNoB3NY1kSOQhm1YYpWl+4NzfJw4MGL6cMmIWtSN7fDoyl+4b49WF86TMu8j1GthjW/js7c+Xjlez6J/+8/Po9Ba9bW9FzWNxsNghaVwnpXGAFrWMsB5FwDEeWac/U0AlUjUV1T84TGBVoTVcPXYNZHh4+u8PJbP53gl//8Zdg/KqF5rysRd5bRPnwYO2YXUaUV11lbR4X50F5pozjyUdTIMn1HvS60+DIqktoPwnTSdrVNScUdlAL0BvSHmSaVdbSyhBZdmYvP24dj138FFVZQPYJJIKuDAFOrl1FSmxmf7bOCmcLHbactARBNkdPUK6mBHIbyeIyQOitgVw9IQn0ekP/izdfj1R/8DLrVHTgR8WmPiMKqMCBYlGWWp6wZ6FsE9M+1SbP1RxQS9OMObjx4PXbs24XqbJNX1WpewPrBg2iy5v3AtUfw2y/+T3x2mRUPdeEYjY6YprrtFF2lK2QioqZJZ4mozt/IiHNBehgH5ZVsj4JBsGInpXYcVGoo0CCTa6gxMf/87iX87l+/Asf8GSStHegm68x0pjXpY0wlqdJS8wpVjGm9IahBa3ZoEJUatY0NLwgiul7QHrZ2YdtSRHclLLG81bhMi0rcpQsbrbexo9HEdz7km9AqhWhUK+jTMhkMhwTkyNpCEj0/pdtMWwIg6ilUHS/ZtC3e4yFRhX4LlULdsWsU+l//xw/irTccwvLMLly/FiMoz6NF9qIQw8IMOlSGYbFMxR9hVOyR20iDNuKwh3jUAXbN4RhriyGFpFryUUt72NX0kRw/iHFtETfGFTzvpf+BN3xkDZonBuEGTduTXbo2yHnCAhG7dPZJwCGdnrCLr6CYx8l5RBeExpkByN+98Rr82T++GtHMTnh7L8Ugpel+4GrM1VOEi2WcWF/m81SW+l6kvRIq4Rwy26KS5VJUmZC1PmpWZH5X0A3KZ3Q9iTudiLxllrMmX6LTRnl+FrN7dyOj21cPQzzzGT+MRz5sDrUgRL0coru+hmHUR5wmBE5WJMqbc0IQtgcpt+50EoZL9p3LzsLQeIyCGuy0ozvwe//6KXymPcLVBI7jSQGtXedRN4rosyZQr01c9BGREw01JgqNCiktd2d9qHHV37OTYVLoKRBpmmJAAUjInaVjVJDA3KNV1HCEIPT3//VxPP/NN+JaXuvQj1pqMww6VQIMN7NEu8QqxhOh0cFON05OUn5pctmSR7buZoZlvRhqgLQeDT60+fnJO6KbX97MFrGbGwC21AFr1LE6sAMCaQFD5tOf/suH8U/vei9mLrsHXZky1m46iMbuPagvzGPl+mupFAQH5kd7fZ0xFCgUMdCcIgtfcZxwRjBVEjR2xvjmEThzZPlARVZ3/8m15XVd44bkGpeZtXTvCKZF5nGRcmAtbc5kM+tpbXkJ5bCEmYUdyI4dRefGq/Gob78//ug3H49vvRfQZFasHzlMccrgEXDrfgk1Pl8sBkgYpqoWF5FtyGeYtmQcSJs+aBDHmNO4DL+CdEifk6WmIdVPf/Gn8aXO2Gq73NcWSAzVzau5+sI06qFNDTfFdH0Ryh0JlkmJBDz303lJjYy2I/3kORuXqdsUDCIMyv0+7lEv4akPvTced29WvusR6jVaRcUBklGMHv0ADy00Zd6rYVeNNp4iYSHrKyafFp0JyRjIJwtqXRMtLIxM4KH4EamsFtf5JJ462PPkyfHmJFdKaZZVtN5uo9mapX7zKkF2LGTle2pPPkhc+ON//gDe+aWv0BWcw5paQAkwQWkWiRpJi3RdGIaGcQu8pWxyh/RRWzBHjVHOvHERsbwUu28YqNiNO0oK5A6SxY/fJxiHdCkU95T+WsYKAQWy4tpdRlgPWA0MUKqwouGl9XUCo6Zie7w+YoksL2MuGKPl9/Dwb747nvqEB2Mvg49Y7Afp0r78PQfxxdDHEaazwPcMlNIAflHLMm6qUM5B0jiPr06SFeATj5L8bT1RYu580rwU1eoytQf0WYYEjy+2gR//o/fgaNDCWthAX8AiRaNAbICFBFvb8lkBaiCywEPkhLuQKwPDtQpHzDt6O6OyJFTalMeQ/q0nYdKSAvzW0K/jC90M//qpL+Pv3reEdrNEK6dFY6GKfjvFTLmFRrmCgycYyfLkc/qw+7jhhgBJoGH3dOC9gDfCHLh0QWXGz+bP3Brl4HFL1j/7Eta7SwQPjWVZI/4U4cmXJ3B0edjfBX7zT9+Mt338iziRUnnCOiPBSAc+AuadehXGtFhkqbiJRjwQLKQUIwNFWUr8jj4lsDPwECkWuke289MlhXsHWLIw0opnGfOc9iHRXO0y7p7il2B+3x7Ex46g3+8iUhtGp4NQbVt0v0q1ho1KvsfeeSwkPTz98d+DXyV4tJII8mRtuDrTrp4mjwXqjYo8d3NgrG3IlnlQXKZ0W2hLAKQcR2iVavDqVSzTDfnMKvCcV7wfBwcRDqwep8wOWET04AuxCbc0z5OZrhbW05ZfBjAaohivo0wFbKVDmqdFG9b8AdZKL/3CtXjuuw/iw6yweoUmWtWLER2jYnV72LmrgtVohbnCOCk+AitT6zG0YXGfYQwFcmJZV0N+a8CjGnaIHO1CiDZrwJEUXjm7iQU+pq/8eWrycqvDsb7WqDdw7MRx1Goz5hWtEDSO0eo4Tjz8xb94Iz5yZAlRlRZTcwctPQ9+XzvMDWlsdQm7g0mebk/yCRJ1llmJ+Zt5M8zLBYoHwYHgF4zpoo4PY/nIF7Dr8vPg04LQgs8+3d9EXXu0ILwow4IXYXG8ilf86ZPxfQ9boAVMa5jW7fryUcy0nJ0ql86WRyBIbT6qNMRTum0k8b7TqUoLQPWyRlx86hjw6y96B46Fs4gaLXg1+vFFtWcMqVQOQFRgtjerzRqbaNlpkFrUs2hAD6WDUtRDjbVvpRIgq1RxqFjDW29cxa/8/Qfw3puADpUyKbVs1mqSddAsq9YmMJgMOXV3yi1km4wfMQtJv6WofIZuip6Qxx5TCDVMbWOtDoYj4Jg8aaSgnZieBI6TLAgpYGFxN5/yQW8LkayPCvCkZ74Sn11ljduYx6ihgXJ0F0+sIesNEJi5P4Qvs2gbA4jljoG3ykHiqVxz8lIs9MhdAmwBx08cJl74aO29EAPdTjPsrtMtPnYDvv0eu/A3v/d4nMd8a/LtXWWP8rCCmbmmmxTOa1oC00CDFodbTkrg4cDF4rCN6UzGfksAxAQ/Bt752S6e+/K3YrmxFzekJXiLND0149ajsBciKhfdFNb2KjSZkz7lXgNQTycDrM2iWIZfrrKGolBkfaSDNYyHrMbV2zAu4VhSxY2VPfjV134Cf/dpYG2GClryUC1WMNLIRYGDzH1FhqIlESszZHrg1i1tJKtaPTvkjL62HC6+zWcMDiXyxjnUOMGUYuc9Pxpd6ngzeCj1KyvrPKtihUZanx88xgx54q/+PQ4WylivztKVqaA7DjEg4BZo3tfpfpXUhqQJhSO5j9sXQLT0VJeWR1yowc+6KCbHaRCuMJ96SOiiRcSWQdrHKO6jNLcT7S5zOJhFzfNROvg5vOAnH4U/+PEHobjSwxzzrZTRemwfRJ1lJHPOOll4PQcPdxSAEDxYEbhy2r50JsFDtCUA0qGSHuiO8IJX/BuGzZ3o1xbQHwcseN6c+NzW0s5/Bh+8pHYQtar71qZwOkSBGJVoUTRRoD+cEUQy1sxeRoskIXhRoBDW0E08nJhjTfXBz+LP33vcBp2lVNpSbQ8jp9rvZKuEixHZTerhBU1y86ylR12pWkdNT2ppAYGISH/duzk5kHBvCjhOgoZyRKDjiiPAzMweLHcYJhHrU0dGBI8X4ijdo3V1scrNY/wLAeNab6E+MwuvVCIwZ8gS2T5SFH1vm5Iarj3mJF1BbZdZGfdRHvV4PqTVQGD2SnRJCNT7LsbgyBHUG1UEw2Xs9np42bOegkffZw6VJMV5s0R4VVbdJdRrAeJeG+2jR82VlJGrdhUDkInlYZ+elMX2zsAzSy7n7mQ6wVJ4wav+A+ULLkMvLKGj3gk1ag5ZJ9OvpwawiAKnTnxWy+mPC3nNfKra3V5Sn4jmzUSFGdbeNXKIrFRAWBpjnhbF/DhBqDECrK0HdG/Wdu7EG758EM98+Ufx4et5mX40TQrTfgmWVDIyt4TAYb0aYo0OFcg4n1kPO1CQi6M0nEyBzgUWkzpukr6cRe4JhSXLTccBXZNio4D3XDvEr/3l32CpWkM0N2NfsGd7dP86XQyHA+ZtjHVyTHcpDCsIqWAOjLYxyQUja0asgFlAoj13rWG4UEfhwvujt5KhNj8PHLkaP/WwS/DWP/o+7KOVscBHqlrbdaSxR+QyfdSMdk1jxoYLHF3KzFPWWBdbAZdH+yRDV8Nt3goypdtGksg7nT7cBg56TdzY6cOr1TBcO8FCpBq25mjXs8BGZWpYWaJhBonAw9wZAxIp1ukUIJPk0a8oVBDTzB8SoXpWc1EUC4lzafor8Fus3ilc/UNHcXhYwKeOx/jzt3wCr/lUFx3qsW3TaOKUQwVpU7R0KkFzaj+ZZm/gooZX3XOZK94QSuv94NHwI3+eIUx8fgdYdFv4yNs+1MUfvvTV2E8wGdSaBBXe0ShJzdeg72+BME1jn7CkXqdKjQpBK2VNXbj6+jYlm21JxS/ESD3PdrxL6LqlWp6Kli1GIQJZsqMYM52D+H8/8p34lcdegQVe2t0qoL2+ynsMw5Z2YN5qtqb1rPiIoxGaC+qp422CkbM8BLeuSVUgZSOeaQVvW2LUz2Tpb8k4kCd+zMNnP/d5gkEB3WGMIZUjowleKM9gbAqjVgGy9i+xOl4apbSrjnb19B3NBg02wrjB1ykchR6FqOuOGNqQeLdGiSygkgmRuobVcxxQsUNaSq10FY97wC486dsvxV4+GlL+qnlUDA00bF77ibgh8CGBRhAzilOMBA78XVDbix4lq3fXpVXs0qm0Ddd7KLdmeVrAytoAjdmKbUtxvAO86QPH8U/v+h98ebiG6sXnYYXfggBEw/G72glf++jQ3qGCjWl5KAwjS5s+qO/c6cV6O0jxyTPtdpIaqJluLbFYm9+FXrsHjy7biEeN62loZfnPfQSPeeSD8bOPug/uuzNAOV6Bx4zOyvP8Ki0xwo1tMK3l1gRI/pBXVBpVa9j/NDHmxe+JcQ2B+Pg4Qs1jnrLsi3QPrUeHURe+b0fSimxjuukf/x6B5taTVOJOpy+spTjGmqJLYR57KcpejDLBosnCYf3B0pGSkyd1s9sRTP3+OspsPR0SONH31eLNUqYRv6fBHV4NSVBG5Ae0RpTwBLWUbIvqFBF5FawQ4PbXF/C6aw7jD//9U/jcCmWZQahn10wDBT3oUl8j4lNCnsTVrI4SfDXeFtUlbTjjwENxMNa5mNZQd4Bycw5JXIC2oq0QPDrSG8brX97+abzmA5/El9YiDIMm+hokpobCyA2398u0dQhgir9qzIKNerU7Bl7GOaBsS2ImVUK0di6gd+QYf4cYHSZAVOfQVN4e/jJ+8ymPxtO/9TI8bE+ImcI65YsOZlF2RMpqQgtWybKl62KViLb0KJEFK64IHbwyj+y/qixZIKnlp9wYsxandJtoSwDk0FKPBahCkyxnKLGK9+nCaE8XTz0hGlUpS0RFRS0TaIykdYrNacq+zWspdMjrVGI3ktGWAhjXeZOWSZG1GWvy2HxfNWJmJjQmMgS4zK9jf7CAdx7o45l/+w781xdHKNFQgDpn1mgeaAU1fkOrwKfkAd8cUmFtcqukk0AjL8ySYYHyj1kFYkmsh6DRwjAemauiXhw1xK7x1m88//V43xdvxGdW1xE3Z1FqLNKSZ8C0gjRGZpwkSDOyhveTtU2GehmKymiBiLqO1c2wrQGkiNLMDrSP0EwIWcn0ewh37sTo4HUoL30Ff/V/fxDP+NaL8NDzCdoJkZ15G/sNVg6zVh2pI31ShTgPkZxYaWlw3SYydD/ZkC2LRXIg+9eV1ZRuCzF7t4BYq2txXo2iVI2ohqqEPmlK5Yv7HVdzyixXUasgTd75x0zw0xN+1z06pDANeWRNbbU/a2WtJTISkJBZK40IFjFrrZSmQkqAUzuMuRgCtuIsev4ijvgt/OFr3oyXvf8ohjtA85fKXCIIZWrxcKLmljN2mMiPgkbNJsqFUUySYhNA1JvQo2QL1whJ2E+A+L0Xvh1fON7F54+vobC4A96OHYxKiKgfU/xDlH31F/Nh5q2GqNtQfZLSZ+t32PBmIZeOk+9tSyog6jJD6K6UKjVUK0x9+yCu3Bnin5/9Y/iuS0M0WTkgpTOiyijSYtKuPUMlollOrlxOyXnSScdYRWVgwXxzu+lt5/y6JZ2eBt0+2hIAubTqY4ZgoX02EhbpsFBFHGg+g6shAqqiWA1lDkAm2me+vZTzdLKAQmET72IqqpZVFCjoMr+h2lysXpaCTxehiG5YwMAngMgMzoYItNDG4Q6qhSaO04o6sHMRz//Ux/D0N30UN8xV0A5DZGkT3rAOr8s6r8NvjNRXQN0WTgmjZNyILG1kk1imidaBgOvIOv164oHA43r++bXnvxafObyGoXbCr88iLhWJBwPrehwNY5Rojpfo8hUz1si0oNTVOyIIJgzLrR+sWpTxppXnVrZXbLYnySXz+320WAEFgwjVYQePvfduvPG5j8O9Sh200OZTTF9RQ/jpBoYztrJY2SRNUmSzfk4ys983G0TLeJujxwqMz03cFYGO6qyRgTLz3WTxTKrg9ibl1p1OD9o7j+awR9Oa5uUooC1Qxrg6S0MgQKmsZXL6LMgeFV0AQmGwQgtYoD5B53QBhO9OLBm1UNDY5yVZFxQWNaKqoVPVk414JetTlDK1wQh45PYszM1i/SvX0dXxMJidw+HWPP79xiP4hZf9J951EDhBoEhCn7VjHQ2/iTLDJawwqITBakEafXMCHhts0Gamdb1VwzHq+1eoC8/+q9fg0CDDWljDNat9jPgtA4GMjk3gwS+XGC/Xg0CTicJPhFIbEr+YFnldVo83GQObDegiEkS2MYCooRsrK1iIBiivHMBPfNc34llPfqCtvI9omQ+wVEPNSNZSDwRwtYuwTAspLVpadQElS/gtoLCKgyzwcAAiW8UBiIbMuy51PaQzAUg+LkRCMaXbQlsCII+8tIAdFGatzW6NpWO6D9UZWiK0QHyhPt0YshojHYDI+gioACx+uQen5caoQVN1kcxahmvhC6iG/B4tDA1OylJUCW7lhGBGLghMGLeUcRsGMVaHR7H7PncjSgwRr9BEaO1Br7wLH2p7+I3XvQcv/3SCjy4BAyZPw1vUFuGNtJXkUXjZMX4/okBqiFzOmhvL4HhHALLCKO1fHuI3n/tC3Liyhqw5gxMEFHVrD2M+KQ0QKFSKNDhCxGpjIbj6BA4vmrhjSqOWaGT1O2K8BcaaQ9JIIovPdqWAcb9ca3i0D+MffuXH8fTv2ouAYtIfDOEvXoijkY91unN9AkDK9BY01kNdtmoZt/E7ApEJgBg+8GUb8sfjSOVvGMQsFugKRAQhzEPKYD4qdQogt522BEAeeh6wF+uYH8UsYJailIKfSljYsQq0oB4F1+du3Zvmv5M0HoLFX5ArY0AgdvaI7AnHqsfFrgYRSwROMp9SOGr3yJNnIMLviPmetdfyUr6Vob5i1kj+LBWy3VnGzHn7CB4LSNS3WmQdWNuFg30fz/+3t+HVHzmEz6/Adssb2fx/J4qBr/i67mnFUdfV5BpR4dUqowbTT1y3hN/7sxdjmf7HgC7JgQNHrMEw1Pdi5o8G3tF1GQ0HiFgTx6MUfilEuVyxr7iY5vHlkeyEPr8zuXeHSHmoeLs2KrcDP8M0q04VQl6/b2ZdUyXAnCS7fFXD5CQccynF+s38taJSeGI9R/eDyq1FoVrpOi6sZnjJc34aD72bj3o0Rinto1EpY6XPHKTVpxIr0n2z3hNGrsDzEcMaR/yWRhpvpIFHneZ5w2eUFnfNnehffl8VjmP9ntJtoS0ZB1IOy/j4DW08/21fwMfXA6zO7KL1QcFJ1R8aoSIzm1ZAgUpRCKs0xdXl1kA6qCDrslYpSQUEMlJ8soTBjvqdFzr/Snms4HXMsXAiJKSNhOk2f9jTOk7OdX9DjnXBaGw1uMLMbA3VnPUQv09QXKRRNTp6A+41X8ZTHvVN+OaLQ9uFT66Z9vYt9NTAxwuNFmMe4ESfwFIvWZvHR2/ICB5/g36xQvDQiFktLUCws+5XpkHfkQWhhj3+NhCVYto/euy6bfHlfSGhASiZcfNlyvMB5ZytBXKHSNaMwI/AIXAVmJMFyjbxzOI4iadlNFlxtcZIF4dGqYQsGbBcGQ5d1ojWVKK9bKzll1ZUSutQSWRelqp0LrrHEfbXcPdWAz/6iG/Gj33bPpt3ZIYYWaQvCRJECkWs9guVvv3KC5AHjVnVuwUN6ND9QLBNGlVozXm21OXf/tcSvlAKcIx5Xaar6jFuBc3XYllonI81qm9DshQnI3zi0apAt57uqJR9bRr0cJ9LWnjaYx5CX/YIKqs3YZa1uonEkCZ9qU6UqTGxFMgoQdwZImqv0xKNEDQlOsqIidJQMJQpbs0QJ6TO8tBvKY8ESJQfdZaDyoRNuCZvUPC1Hqj2RNFRv+1ZPUO2FcvtPdLkmtW8NgdGQBJgaZgibS7gS90Iz3vV6/D37/8SNGJhDVXaXU3mapUum+aBljBIQ4QEjy5/veVTbfzic/4Ca8UWOn4Lfa+OWMvSy+jWd9U+Q4vNKS5dOUMKXiN4qo1G63mINWrX1EmWm2WBitFnmgIkWhxHCq7suCOsg6KSJ52/rQyMJzfz/Nkg3ZClopzMEA06dC8icoI+rYaE+YQB42srMNFuWF8jeESYX5xB04tx+WwVlzWKeMYPfTee8C371LNtTqiBwISVQqmEOLd5nGToDo+TB3OJsDLVNfuTv+l6zuwZXraKyJ7RVZFCVHjufNuyDmeI8ty6Uykp1XB0OcG9zgee/fTvxp7kIBrto2ipXinvpCkfYhCwNtCKYVS2ejCLkleB79E6qThz1w0uk5UhnhQ4OVd4JwDKKfGdSQyViqDuUYGVE7ecRRTCeIyRpv9rg+rWHrzhvz+D57/6A7iJdzuMz6g8g4M3rOD6g+vQdrRLvP6St1+Dv33tm9CvNdEJyhjYQjlSA6oDwUkL22hLxiAjcBJItOuapSyXbZKu2W5sN2cBjzj/fTok8JHlpe53ckr3wNqb5fMRxFwPl9xQDU7RNlZkW99lAI9HeAQMf2gTAYvVCl2NGopJkzX8LAGkQQOUge2es3n2cecgZuNlXBlm+Jc/eCoecd8ZEEcMHKa0PWhLAGT/8ghz8wHWl4/hHgtFvPz3fwitzgGEnSXUJZw26qqChKbsgD5ukjrPcxR30OucMEF1wMFrxtQPMd/aAJMJeJi66M9mPk1yIRtUMDxxDiAKnHeqDXS6MUGgikOdMeLmefjCUobf+qt34z03AodoIMze/Xy0zp/DF2guv+QNn8Or3/F+XL9MH/+8S2j5aGQsa0RaM9amMLE2fFoem3eHz0FE3cQ5MDA7eG6nt06Te3kabi/bX8XLI7jrSJAza4Tpl3Ok3h65oTa6zeasCEgiAkts4CLrKA1ohbAMh1GGZDimt0pXVcsR+nT0igws6WFfy0dp6QY87KJ5/OWvPw47JRIMVgcXjyltB9oSAJnf6dkiLxfOL6KVDrCD117+rCdiMTuEyuA48UFtHgv8OnlUoqB1EWcdVFjLhdbwptru5taHrI6J9bGJc9LZZj5dcuE4d+nkPJYJiMhy8EP0Vvoozu3DoaiCa9sBeq1L8fsv+w+87pMd26rzOj7+92/9NP71XR/DWqYV2nbhxIFVBqFGFOaBNfTm9a2+5CyMDUuDlIOIPisQ2fh9a5SDx+R4x4giYcPAxVJntbvwi7QI3SLHmmKoXg0BiWNrM5FbRbaZ1RorQ4tKE2IRyaIJkGnD86qHaqWAnaxIZr/8RbzqV38Wf/TURwC9DOlwiEowabsgT2l70JY0osblMjqdNnY1mhSIEdb6Xaz7NfQoRM/4uw/iI4cpguEizX+6AFq0JzpK9yXGDAVPQ81WYw24knLlCjs55r9zslP55k7dneJMwOUOSmE+slOhGHzQpD/ZcCi8ZcCyCIoBtPdIfIKAWKuj7NOaOn4CF56/A3ODY7j7eQtYbffw8c9+EcvrNO8rLYZHJdKMuRpNeYVj8eVvpk/ukqwwnVvn7yT+tl/r5DhJnjvmNHluM520YW4/aaCbLUat76oxN8tYRJonol4vgYRcSy036FxM+9DEalL7kfJKI2g1Wlfj9Iu0ZDL1KkXrfLaP84pD3K82xp//0hOxW80/pLW1E2guzBs8acRyRY2a7tbtJkmImsBtQJmaipRZgYCORNCWB/UZWoV/994lfIHyeJz5Xvb4rFzHtIwi457RRVMatyNZcaQZPvE90p+tpztaTl+ThtFxLDSq6PW1kmgRVd/DnnCMed577k88BA+/eA4zSRdot00RNZ4hpeImqXZT75uQWiOhSv+U6lTZc+ucy/LpksBnMrmbepHXhwzcrBBKJLnWogOv7tWjx1Bc2MnnCB7L6/B2X4iDgzGujkb4n2NtfHKlh2VN5PNbfKamnOD7FfislYuUZM1h8dTtSCFWq3/qJUjVWMrE5CmT1eEOek5856Tzq5I+JzafUcwi4m+BqluI2IGrxcIAlXlES0VrdWjG9VhjfrT6szYK0453NQYwOg4MDuD+5QGeeOki/uGZT8QuLU2QJVjffx1mZmfMwOvEme1Zc1ZVV0kjKY+3JU/if6ZoSwBECyr3h11UqiUMBhFrJtW9MV2ZIS5n5fScJ1+KR165gFmvi3o2oIAxGjLnqbCpaj0TIbIByeYcybNJ0Rbnv0XuPP91R0kWkFvqzq2VKVV2vQuyEhyA9NpLqLTqaF14Hv17+mriSgWjtTUCIXWl2sQB+v+rxRLq+y6Gv7gH4yGVo5+gUWkiyAo2CS5UvhCYPIVrtTvTLpaSMhwTBh0tZhOaAMoGTZ65U8kaZZn3tAbULSvWkgdaCsEmJzKPnLMhVk1Hi2UTF7VolAa5jVgZRCdQjo/j3o0M/+chV+I5T/k2VJWmIiuX7gqaF+zFKE4Qx9rPsHhOtIHkeb8d2Sg/ngHaEhemQBdGAKCh3XJh1DDoajMKH10TTWw9Ttn7x48M8IaPXoe2N4OVQQ+j9n6Ud86jGNbRp0CFYYmVXBFDbYgt01qStbQEzMmWIW2qkeXGaFiEEmM9NXdYCvmdMVHOQhWYaeSsRla4gWt56RikyFw3kRdPFEq9FRnNdf1kjRyOqRRDmvsdmsVaSUyDoQiS2n6hQK1MCayDkeb0EoRCKqgfEjcVBwXgvmZujCXSJUouzgZNruX3TZB0uumRm1PevnJrpHSN1fbBR7RGik8wy4d9m+vCwAdJBJRLCFuzFt+oRxeB73gs29FAPTMCQh6jJTTiFdyvVcJz/s+T8A27NQFoCNSZvz7Do7Uht0XxFSwJpIwsAe709pKC+N9cmKtZPC969wo+w0w6yrKoBT5hMMA4DlGkNalFAbbryvaWbSy3j2/ncSBOzSQYUj4qhq7oopWu1uBoQ2uOf99VFTz2PnvR6BxFlS5Ba/ceWiBj9FZXKWMlRN0OhsvLaDRnEJYISh0CyYxmReQSdtIKcWa1M/1PjxhCbpobu29IIW3zKiqThkHn60douT2PXLD1R6hYY6VXsXDvSvXMLKc5Py5RMbU+J5WnPxpimGn1ihTloIhyKBHmm7HCcmkRudSR7NKkcZV5tEE5GOiQX990+/aSQeKI4E0OmFYBiI1Xk+UxGVCmhY2ac7sQr6wjuu4mBLQ4a9UGLbAOtI1pWOyjNV5Dc+0Anni/y/DqZz8N99tTJZ4sEzyYSuaHuoo1MlftrMoxi7LJyGlE/k6kPN+3G59pknbc6STglywU+U+q7Yaqq1aicJA1e7LBmvcyVkQ/eNUcfuJbL8XdWzRjV9dQL7VQKVXRWV1hQFTWUoh+h1WGzOnZOb4vxVRWOcW+ZRJOUwBNWRRuzjnZDV4hG5DIspKCZVS0hBwZ+9raTtYWk+sxzmocVYNjWmFt2/KRzpYxbgY2nSXme0MCqoIuMR3VlK5NwrCVXUYEDP3LgYP/N2J0ayAisudOvnNr/LVIaVOaBI5ueT8XGWdxaUyIjxJdlPV2lxZTBdi5C0m7jd6Rw/AJDLtnq6gODiI8/nm87Jd+Cs9/8nfBWxti0F9HuGcOHUpHQgySJSBydtYkXbJabGyJLL8pbQfaEgARSSA8jSdUd6V+qRpzjjR/sybrDxD01nBZA3jig2bwgw+9Oy6frcBfX0ddNdQwQokmec2nsnUHiGkalwKGZb0zCt194eS5iGHb6ddWkv+VpDQTtvYPC07QofqZbK7Lye8aqNgdgoqGRvNaia9rhXk1vo6KVFxZIFWmu8k0LDQBrclakaswxiCKWXETdjPmmEcXRq8RIKTs+gLP7K+e1fU8tTcHkY3rp0UK0+wmptP1BmUsh8yTLekmm1mvFC0l22RFC1QP2qjRX5gpROhe/1l8w2IJb/+bZ+ObLp5FyNtNpjOsBFgneIxKJYMIVTICjxI/p/ySq2s+R3FS0ZxFunPy8euDtgRApOJUDUkehUwNa1J8HtTtQGUajemLDgsIy2UKTx/laBXff98Z/Orj748LPfqfq8tYbLX4eIYh3ZZWgwqXjGyJu2pFPRkMd0PGdK4iz/n0SL6+pvTLNbE1I8yW0udcd65q4FRMILOjGn55XaMk1OqjEDRdPJBCS8F4VR3C1qQRMBM0HqLC/JhhmmRR1evMGx8Dpk8b3ck5MlyYgIVZDDoX5/8m14z08OTcnsl/fw3enFs3Z5GAQyuiu9XLC4gJHhHTmcgV8wpIaDUV61T7tI8K4UBbKBRWb4K/egN+8EH3xD/++o9i7yCBHonCFMf6bQKoNgYv2sgRuSzKGW0x6fOHp3FpLGttTxpZXp59EoZtVz6TtCUAovXWNWXaSFIpq6FQ4lV19/GTFMSyukJ5bzwcopQOMMc7D90N/Px3PwgXzzftfYolKkGAsdZ6kGJQuPo9TYzKxV3syD6n8OzXHScHIGrbEIhoRTPVxlRMKhLvGIC4PUU0zFsgMmGCgABFNbQmc9HucDW4anL+lTVjCqx0ZMwFP0S52UI4v8gqeoagool1Pnq8lxEQN4DjZiCi40aq9duOm85zsmt3gBm4cF9zhcQxyyrWcHZZhVoyURKTaSBZglqVFtOoi2RlPy5ZCPHUx30rfvepD8EsgbBFP3WgLvmij9rsPPYvHWd5aqq9W5PD7FKTeFkcLF9ZOXTk3BZeuWNzlkj5MKXbRFsCIKAfb9OqGbrGE2nrWC3nMjZjlWIUsNqxnfEz1moVtKq74Xe7aK0exqOvKOL7H34Vztu1GzVZKHRbBrb/qYeqVjEfqrFSKkSeFHRukNwZ5a6GUq1gZRYIocDZFQqZfwkONjpzY6SmLCvHWsR3zKOAZMjHhrS0tESFXABTbq1ZEZM15TyVdaIbAfxyDSEVDLMEEllaAsz8HZGOAp38nGxAktPGc5vOT4NU+xt4aLlH5vnIQCNnRkxx08pnoyE9jh6Gq4dwwXyI3/mFJ+MnH3U3rYRA65J/BBzVKk4cV58bsHthB1K6Oy3maRNtWi4rDIscdJCFCb+nLlwfZZpqajmb0vYgSsUWkMkx/1gN7ITypGizJidwDKIBa+Ey/KCCqJ8iYI1cqoco9tbwPZcCT7jfInYXeoiO78cMr5dp9ms39jKVzNolVItTsYz521onzFqg8E6+41hJVI2m9obNzGtjj2Ft7mE5GVvF18V587koF+48/Jsxa1JRPvTefZ9HAaqtjUI7hiAz4nmcJIa1XrmCYpOuTKNB840gq1esZHjTammyxU3H/NImV0TnvGbIw/OR/hXsLx/ne9aW4waBucZf1vFKL+8KHJ0lwHSSDdc2x3uD9Azz1ktQma2hOGyj1D2BH/qWb8Sf/OJT8JA9BZTiMVrCWE244+vq7d2zYwarq12kBM16WCZwMgwDRJWTs8/k0qjk1Hh8i6E/UzqnaYvWA9FQaJ5QEHN5sJ8TdsKj605ITfj1lLpC9cAoQI8m8+fawJ++/uP48PE+1sszrKVKyIYJQloCRSpkkbVWOkoxJJcrRVQDjwZKgiHvj2QpKHxrfNB3dK6jSLFy7CaIuXEeioP1Gtlzplo88qfAwH67c0f58eakJ2+mBXbqnj/1rZO/LA/4RyCYaCOuiOa/XLdJ3BWvccI4EnSKzF9vEqd8iLu5WAQFgYCw0jTRbqgxt0DAOCUku6VYZrzoGkoVht4j+wJXnnQj5nGJ3yu7PY3jdZT2LsBrn8A+AskT7nM5fvI774vzNP++t45BsoLKPK3EsS7IbXXf0LdELleZBqZxUui851xDbc1l7esixeEOkqWJof5v40D+6l3L+DSfPkZArTK9oSzIyTiQkWb1bdNxICKKAT7+aAnB1pPK9M4nM3WdFOgDuQqflAtdcV28dk1/9LxmgOrJcQe14Tru2QL+35O/Ad98yQJmkjWUkh5mWg3EgyEtZJ/C7cFn4VfKAaJBhLWVdRemcpCC4WrtiQibcE6OVlPnsXFHu00yAWRc1KCnAWlu+QCRg5C8Fpei3zqrtmeoDH+D7d/m9OdkkTGW4tsZHypUmA81KmGJ7pHSEA0xjijUzJqwUqH+0bIgW8cWQ93MRozHSdUViyz2BBl3tNRMysi+bJGevNMdAP0IQbWMcTBGHNMNWd6P5nwNo/3X4cJsiGd+/+Pwi4934BGvEukrHi2TOtaXjrhwJlHJy1/sLvFMrt9k1KqWn5TToufsgcl7U9oeZOV2ThEth9Qrox1ntirVpYzh7z/+HnjMhTM4vxARWyisNPPTWh1tL2MlSfOYAusHaoCrIRtVTLFcI6j2VCXY0F8v6qhNtm340mRHPFM0me0ne1fcmphnL1uk7kpLWKmiyDTa3ihSdE1Io+lvy/fxPCWAjAguUn6PgC03RLitsSka6VpIyXxGPedjgoZ6i7ThUswadkAektUuZV2z1FprV2H4Wgi7Uigj4P2ENfGoyQDKfTQumEHhK1/Ej192Kd7620/Co86jq9UhzvB2Ml9Hl7gQeQEaC/uYAsHFlL4e6JwDENWMHdZ+9WYLy8cPIkyGuIjy+Dvff29810WL2JVpX5k+hrZqOW8QTJLEQxDUUWlqRqfqYUGAGwglzgd6+RMuElg2uy36pg1QswZSf6NmPjvEWMmFojIGpSpC9dC0yFW5BQVaWkMhAs8Vbx7NFXDW0ZjgoZ9Fvu9Y6dAduTfEB6YrX4VN3bFit/ShFF4mrxq6ixgsraBaq7hxKutLaLUYl9WD+IOfeCKe9aPfjF0MdpbsjRKM+EjCvOt4HtZZDn26LnJJpvT1QeccgMj9mC1XkHTWMbtjHsvdE7Zv6SJ1/be/9274wXvtxt5Kj2b2QcaeBvDi+dSfBgbdsQ12SmmVyB2gepBZGxukqEdF1ohY9TDrXR4dgMjcFoAwKwxAJPxnD0AUc23KZV3eBBG/XEWtOUsgmSVg0vSXJaKl4Om+CUCy0YicWcO03B1ZEuMRrSht6akJitZYrBTJWkl4rvYAsRoImHYjPaNnacXR8qjc7Xy028dQifpYZB7PHLgJL/6/P4UfevAezNPwGJxY5isDNFoes07782nwXJWWUwO9nr5z9vJvSmeWzjkAMWmnkpTp6w97PeyYXcBg9Rgvp2jx1tMeeTF+9Fvuhb11Rn3lhI1SlXqMqUgxfXMphrVhUAE19HrEJPI1C7dAV0d3HOucPKnBHUnwz7bwF4gPZYKHGohdxw01EwFdmkDriNTJJSq7T5CgcmcEjZT5pTU3BCLW/EMg0LT6EUFhPFKzqdInIHV76tJmIG8GEaVZFggBink2WD2CfRcsIjxxGFf6Ht79F7+Mb91XRthPkA3bqPC8hzUsdY4y5Jjg4WbRips1ddVP6euFzkEAIVlXH1Djv8GJDioL82jHa1hJV2wA0o/eexa//OCr8MD5JsLlw0yFxkuzFhWApClf1cCuMmKvhIS1uFhtGwIWWfXWtWlgIm2TAomlZPnx7JJ6fKXIGnciEEzV8EnrqlSrozk/jyLdNs/Gi/C62kLSmABCd0KWCJ/NxiGPahPSAk3OpbO2EVofxfEA/qhP94N5ZfN2CCLOvyEzD+28i+Uvfxq//vjH4N9+70cwe5xlwcdKDYbEfD6cLSOtl1Fp1PmFAsoE9wZfm/S9nKNCNaWtoHOwrCmk1q/IqBEAKq15rHc6KFRD/gywRpdmjnL/pKsa+KmHXokrKtpKYYkWfQcYajYoJb2ghkf68AXWwuSkEJLzRlL1rjirxLk6ZKu25c44N+BsgohilEWxAYEaU4u0Psxu4m8vDFCq11AgeNh6G3K9FF9bu0PWh+Ita0IB0RXiT/2y5OXXjcbWW+RARe0mzNCxAGWIMO3hwoaPP/nFp+EpDz8fJXqL1TpfiRJEUQ99WRx+A0NaLwP+jRLthicQoldDw0a4ZEbdlL4uaGvGgWgw1GmQBF5jltwoK1V92gXfIwdWnzZ5eW05RbDg21iRZ7zkNVgK5xC2LsaNxyjxfo2RIGssBWtH1AgoMc+jASr1CuKhVhFXsg0+TrIUkkdTPkXkLJBT9BzXXcw0yE0gZw4Zj74eIWCkERW438VIQ8alxHRrgiLzPiZYJmqLSAm6mj1bsuadwbCL8YAgO6KmBz4xyEedZZVp0SeGWw3KuLDl4+W/9Si0+AmVoqYU2PgMRimj65PaPweyKgufN2wzSVsUikfFX9E/SxmomJ3uOJBMYGpd2tuVCtt8HMhpkMpbbDHTvP+ihDIkdIQUaLdpZUIrY3bOR41CPzNcxkt/9QdwMbro3XQ1drZqCDTPZhhp0AS1gNWn1qnwaXLP78RgaXXizrj2EWW26/Yd276stk2li8FZoZvrnSDELZA0aRbmAzHdDNMNCr6v3erUQ1OhujOv5MpU/RR1P0FJi/ZkMQbrHfRXO8RS5mVtAf78XlozdUtz//ghNLM2ymv78fgHXGjgoUWwW9QfuSMyBjUkX/N7NNIk5L8KuUTWzBbloaDK1ra1Rtpca6f09UDnHIDI/JVCq0LTtpF9n+o8Zi1H2awSEyqUz3HAmtfr4XjnAC7eOYP5LmuUn30s7tkYoZUcx2jtKPwmlUq1SGfNgRDle9BjzdKY5XV11ap9wSVfSqv1PgUeGuJtLs1ZJH3fWOfukowiAxLF2XXDekyGemkqqDRaCGsETb9E10dLJy7TKjmObLgOTxlaZl6UaVOUmHa/ibSnFdGqKNBVmqeJsTDu4I+e/sN4xuPuxfzjo5Z+9VIJNk5aG7bwcFJkzc7vjtW+EvAJ39ZoV62/MTHO3pnS1wOdcwDitMaJrUSR8mwujQDALqQZDZMMvaTtxoq0l7CDRkZ9APz1Lz0alwY9BCs3okrLpKQRlIXY1qIwF6bXQViXcS6rRiaeG/dgbQVqY+DRAIR3zibJAhI7IHOsv9bOSVYbiABE7TnqoSmWyvArNRTFIUGkyPdD2gvaeFttO1qzVY2jBAx0Ogj4fMD8mGe2XLajib9+9jPwqKv2YHcxQzXW9qPMK88BiIaZBYqLCsRhyUm2nJIITQbfWdnZH/KUvh7o3AMQIUXBTReXuyI2YXVyynsxvJjGfEdzWJqot3Zi/2rfltcorfXxvCd/O773XntRWr4O4coN2FPJUCHYaFf+YrWMeEX7xDEwTagTgKir04BE3Z26fnaFP7c+bLg8NdatCCYA4T9GzQEI40urSioeM2/UOat9aorlGvx6E1mtgUJrHgWtNaLkJGoDYH7Span6GUrtI5hP1/E9D7gHXvJ7T8LFxNSqgKZzAkGVYRmA60XmiD6ohUEE4CKVA7NObdx6Qtugqw1E7oybocybBiJT+nogicM5Rw4v3OT/CvXHkzya0UAppuJEBI/ZmX2II9kPwPxsFStLy9jdLOICvvTzj78vHn3/izGXLmNw8BqEw1XUiwn8lC6M1rUwkFDSVXOKKfRjHieT6ByfPTLrQ2zWkOONKFE51c0rC0Rdu1oF3rWJePCCEF6thfHsbqwHdQxNy6ncoYfaeIBy9xiC5RtxQbGHX37id+OZP3I/tU9DnSyDtSWmnyae9SELEFye2IfNNOMpMUKbCqodRmQAz1uuoVVtNK5tSTGe0tcHnXMA4hRazaV0LTRcfbzOq23GVL0rkukQpZlFrC6N0PKpNLwc9IfYN9+grMfod1dxYQl4yiMvx2MefE/sq2ZooQc/WkfaX0dTk9SMlHSnYBJ8t9iRtGSiNGeJ9GVngeTgsYkmP7Rp9UguiY1I1fYTdDb409YsDWsYLVxEVNgFlOfINYzpriQnbsRsdBT3XyzgRb/+E3jCA2Ztn555JnfpyBHUGk0ErUVmiXqviMJDhxYCqh6zSfOO1miG9MlaJsBWUJdhI540e+Qup25N6euDzjkAsUZUSaBqwon57mb3ymQn81QNrLNzRYIF3ZMKze8Kjf2kR0UZYKZeRjEd4ULq1lO/9yr8wHd9O0pxgnS9i5lyFf22ujFdsI71h8Rw854OXZeuurYRfv6rsN13bxvxp/HpkgykU+HDxWkj8Mi1aXhUbk8gooZV3rRs03gX9bZU6MLsugjNhT2WH7VRgu996H3womc9Dfc+D5jhI+rm7HWH2LF7Nz26EH1aaLG6vvPvbsTD/XMZJ1+GbGuDuGeMeFtLOTI2Z12oNmfVRvxuRrq8+Vb+2/HmO1P6WnTOAYiNQo3paiSUbg0EK7ZY6zXRpVUi0c2VV2UcVAb80eX5gOAyREHT3+MYc1So3okIs3zsex+yBw+93zehxpq1MPRQ92mw96mAVMJC6tY99a3nQHM6JqMcRlTHjMpC1ozWAhXQIxcTxzrXNd2zqfV6XoO5BHhk+53fu52suS0a/pJQBbRbHy8xS3hBFoeOMjXUq8TntCHTSA2kUhfmR8a0ZHEErNFq82vMsRrSXgGXX3g5nvojP4onPeZh2EkDTK6HtpCkJ4hBUMYJpqXPMIp0EceVGFmJX5f/SOlQ71Sd8ZjhfXGdLJhNCCCpz7yyhU3d9wVI6i07F4ZQMEYWp5zs9yZKJV+8qJYvzW4eM2+LAuJUUibSy9uTT1mxbovp3AMQNcCpd4EWhxrkVJzKDmWNIitOqGHt7hr8MMBqp008GKIUVjFYXaMEh0iiDLsWS4YT//CqT+NNb3wLoqHW8Kxh2O2hGoYEDdapBJBREjHDM/vcmC6RtS3oY5vIvithuxnnFsotpPM0ScHJEnK1/4Ty75zC/GPC4thZCWSmTw2n41GMQjDGgeVjeNfHP4H/+ux+HKberPKptOhBY87KdPcaTHcSdRERfIuoELy0jyBDUj7ojwBBwEUlk3slh08gon9yaDZMMX3+XKObleWtkZWhju5Aug0vTcnonAMQNQyOaEmMNWGM5agGuhprQXFI4VWEtZdKrTWDIyf6KJV2oBosoLPSR6U2g7g/xLhaxH5Wwq94w8fwH//1PpzodNCjQi2vrRCTqAAM2tMSXRT+McM1RZD7orU2yOZCkNUB4Z46+Tu/Zsp1ThJjKzekv8S0nEBpxxjRzgo+1evjT9/3Rfz8Sz+Ga5mAgwRXWSJNdOCv3Ig5JqyJXVg9oIZRtUC5dLpFRsjyTdTwMZlDpBYjva+FkiVGlmfMV+vcOuekakpbRedcUcuZ6EzYWvutZ4CuSkZXZdyjAEcECvrrtNR3LM4i1MI3/SKq5UX0+wSH+ixuJHi85HXvxD+9+e1oU7IXL7gQA4JOd+mozd2IWNuOR5HtsOAHzsdP6RLIQ7CGSbOCeE7OQUMgYuAxYVF+PLeIMa0yYuUUcbKKlfUjGIYF+OdfiNWZvfjg8QS//dLP4X9uGOO4rPhxiLCxSF+G3t/RGIsLDeeK0PRTzSwL0C36qHYWwYpMNbIWArEuGYoQP6m80TBxce4ETOmuT+ccgEj4hhOW0pqJrhmjYznXMqwjjMYRkmHPhFzud5/YUiz58GdmcYgv/vHLX4d3fPKL6ARVZPUWlgYDszS0W/zoxBHEa0vIWEsLQErhpK6lH+wQhBogABHpQN4AkZuxnj4FROzChM8WqXEzjBE2izb5EHTdsN43ABg3WsDiLnz8eBfPe/V/4lUfOIzjhRKtvhozUFtM0KYQgk84b8ugI8Ty0FaUdA8nSxFq3VprzZ48oyTrdPJzSl8ndE4am9LJk3qpKObsxDQddjHfqqG/LimnDz8H9HjcTwPleX//Vvr61+NoTB9/bjcinz493RpreNQkv4TnvTZG/XXrtfEyqdYkaKGBGitFeSQmbICRH3lp8pSRHtm4uPnG2SBp/biPOO6i6IXEhd1AZQHophgtryDpdeG35hC39uKV770Gv/7iT+N/jtDiI7YkxA9bmEikfOB/pU1J0lXhCuHIWYb5jQlPbJNzU6C+7sgk8ozQOVfeNApQmbBFTq2bXpWsK/K6C3RXAkTtE6g2fC1SjiW6M587CvzW37wLb/j4DUha52FUW8BaXEBPEq/VvKxhkeBRZe2pFcb7mmC2jLizDl/D4+W6SAXUBXLzApgojADE9CU/J/O/kY45n1Uaa6g/VX3QQbIeIUvKKAULxM451CslzNZKTHMXHfoaS9V9ePv+BL/2rx/HK74wwn4aFR3ty+ALKphHDMsajPlL6VLacxARkNqNiQQV6GqWaKOUyRr+PqWzRWdWAs85AFEtpsWUNdzL2jlFHq9qjQ/66zKdx70IpUbDFHjIB79wAnj2S96Ed3zmehR33g1dvl1q7aJHwudX1W7iMwieay6I3BM1DEZ0a9prtnSin41QLQZUPH5H/ab5d2+N+GoOJCId+dN1RIgnv88WSeHTTscN9Aoc6GZqryBnRNPeiTXUAy04VECH6Y0WFnE9LZW/+8DH8KJPHcJX+EYc8Hmf+aV8JwlaiS3GOlf65L1sAIjcJrVVaTi8XMUpnV2SgJ4hOucARBa4xyqu0B665TuZF1GqrQUonGkRo16GQmUWKcFhjfL90cND/Opfvgj/dc2XUdixF+vjEggvWO3Q2gjr9Pn3MJAAo4iuCpUioIleKRZQ0ihW9cB0u+geO4rO8SV4UYKKpscrW6QHahMpaMHmEgJZMAIfGz8g2Bjz4Nj2Y8mZpr/1w58l1tyVxriKahbyXGAYIx0lbt/dcZ2W1gwKicccoqXitREVlrEeRLiOltff/s8N+P4XvBnXMnXdoIA+k6s9v9O+m1JQYbn42gSM5SEgycYJwYn5bADCC5ozI7A6gwI8pVuSROFM0TkHICaIA4JEqWzzsjqdAVbXVuGrVqSbQeMDnUHRNp769ArwY7/9B1gqNdG89O4YaTHmvg2JYiZKkIkwxm6inEa4qmb2CAw+FV0bYNsObVS0An0h7b2SDbTkn7qLNR7RzdAd20CjkY38RKh6+NbpnFAbpnU8rpA1HUCZKTQmEnupbY4dMQ8TAmGmzNCu1gUxH6ObOPZ24oR/Hn7q+W/G277UQ5vJXRIOq93UcCJDmPWYX+oj66JYjFkkBFCCstZetY3UU0HLuSdWU9oaOkdLWkrPA7lSKmLXjhkqcIKIJnh1roEVSvx/fHYdP/ybf4zgkvvjeCeCtpSK15dRbZQEHxsDvcxq4D0DA1oTno0Y4yWBBO/ZPFxaIuM0Ivh0EGv5xFgT7zTOwSOY8NlUCqLZsQXix1cHkHOBtGxjr1hHXz0rSrUtV6jRumRaGmlphH7JQ48WmJZJ9DPmiVYMSpiutEYrZQ4Hijvx/Dd9EH/2lhu14L0tKGT+S3+dR2bIiGH1l5EMVjAYdhAxL0dyiwJNNZiCx9cTnXulLX1XjafWOsqqRpuKYgpmVg3QZYz/81PH8IvPexGKuy7D8XU+NEc3pTdAdb6FfmeFicqsLcWm0MieI1C4AdiO5ZlowJqwRfKuWaijRLu/UTF664i7tGLo8gg8Qq8IX8DDlwpUFAOlr0Jf49aZI8Z1RFfNWABIcNR2FmZCFMk+zzU6z9fMWVoqozLBMoSfMMc02pQWWyeYw6HiAt71hQP4tb/6b9zEbKGdAtRazFRaGD7LRCvF0zSpaHPwoGoeX8q81PIC1sA6pa8LOjcBhLI8iLUMoYSxgAMn2qwgi1jj779+y9V43iteg5lL74OVo7QWahoEJU2voijEiAco0ifXYjiGQEohtV5bIIxowmvn+axYtHM3dJ21p/nwVKwR1SQdsHbtIesP6dYQiBiE9paVRaMG1mwyh8JYcZ0oy4bbnx/PFim9GhxTZJoJJgW6NIHcNa2DqoWCCkyfemnkHxYaBNMZszxKaQG1ZJ0uShdRN8IwnMeRcRXXEjx+/o9fg//en6JDy2UUNgg6NYKuxo40GabWZXdNQ9q6NxD4T+ks0iahPAN0DgLICMP+Ciotn16GprYBzcVZXE/r+S9e9wn8y/s+gl61hUPtPoozixgv8wbta4156Ny4H7PnaWtFuScZvHy7d5kaAhAqVCrw8H2bC6KNqEZFWid540i+HN8wwoic9Ia24LBcGFkfcmMy2/D61kkgIlw5u0QttgYLtW2MbUvLtKC1S2k15AO/ZILpMRvUonzRkoS0zQqTfWMqNQyYzGFYw1e6PLngCrzg39+Fv3zbl/Al4k+HYJ2UaO31A/S7DJBhlQn6tus/gz1z4juls03nHoAIMoqs9vwhhilrQl45QXn/x7d/Ci956/txWCMNSnWE5TLKrFUrTEE4jJEtt9G89EqstrvUCboaNowyo0LryADMXxETOAQeExCR2W1Srz5jtf9pIWcRw4y6PQw6PcQaN69GVAVDPqdplMJLab2JPW09SUjwa3RXNFKsCX9QRdAv8BihkKmLu4s06BMsksn+th5scG63jWF7HaXd+/ChI2u4elzHG69dxvNe+1l8Zs1WaEGhWqTlEVq+eAT7YrKCZLBMABE6TenrgbYEQKRjORvZD/6xMQJOpVWPi0+Kms5YvSFGsUbzmadJqWajS5/1l2/Fq97+fgTz+5CEdSp+YMotWlxYQLkUIKzXsL6yimKV5jVBQm0e+qyDg0lsJthQsEFjbue6CXrwIrNCvSxyg5QrGWviQR9Zr4d0OMRY0/dZWxc1piRfuWxiclgLi3pzJrzxrU2gdQu2j+gh/b35+3ec9L66qgMbk6F46BtKI+M9CuCPinRTCLq0qHyN3chLwnpl3KS4ePUEH+DJTBMdrW4/twsnUMf1URlfWPfws899A/7ziwBxBOM64ULZqWQynLL203VDzcikSXYYT7DcxovYM2InBbTvNh6b0unQmc3FLdkXxt+0L4xEV00MBh46oYL2ZShTiUyN+PUgHiEMZXavqeLHerjHariDrET/+K/eiM/deATl+T04eHQJjX0XoqOh6aZ8fNkUjqyfk4yTlSBlt53b7EbO7r4TYJ7fQln5DKNZytTm4ZYLTGTu67pWLmq0UKpVzfIvhj6KPs1/Ak0S09VJYiZNM30DxAImAwl9cxNYSJntk5NvM09UWzvg0HYSI4uvFgXSnTtCSrELh2q5AVTu+x5BQ9/SM4rDiPGdeDF23/21Ny3vHNg5sLX7dOFCWoVzdPUWWYqP/IbL8f3fuoDz+Jj6fLykwydTvsb0F0sYJRopXERJ7SIK1vCCNYNGCdpgH10U2MvF0irviudEZuzs9pMwSmvJq8dMc6WMirF9vjDZF+Zzq8CL3nEMX2TFc4xgW0wTxkAbVtT0FvMtYfrzl7cfad7XJx9zZhqjXIndyaTCEpnY5j8kESbQRWTDzDU3kFixY6AGTHtQ/noNdGBwgPz03/8nXLc8QH3n+Tj4lf10xe+FzrLqPYUz4dxqsK+6j5mKTBTYPmtXpJK58ugq75sFMglHzFuKhhYyLlCh9c5GtanJdnGMhAgX0oLR7nH9dbo3gyF8xqFSLiFQz0aqqWeTdza/fwpvIqe9FiPdsvjmxzvA+qtZs2qN0DqlG+Aka4NKMaKlkRG1NYlWIGHd2/Ycc0DfNYCR8uRWhOKr/CGIFELExQrWeFwqVvGmj3wKL33zNTjCu7RZMAwadJfqLEYCR7eDXreLkuoSRkwGY1urwZUnkxTyMToWtmLuLJApbS9S6d3pJHEw0bCRkBTcYmqNlVprQwrTKASoDTJUiP4h7yXlDEezlM7LIkZBC1+gRD7laX+NsRpG+xFuvP4mXHDfq7D/0GFUZrTO2CaS1G1I3ik/bhuZiT+hyfnJOpp/7RLTwfhpnY1Rb51+Pt2aiG5NEvEya2s9TMAqeAFZLg4ByGYQUxGVfs0kFqsnxM4n9/QFhm92CMEs065oVFSr/c8S6cuyYLQSmVmNG5znq4dhZ0jQp61RmcV7P/1l/OofvwnXrsOApM80rC91ERAoGprwyHzqZrQvtPL7jgYG6q5RP716cUYEGx35WzmuvQcZOn9v39r/6422BEBshTuTNwqC81/4z9XLRsSRovYtyXpUwI7dKxZbOJh4+J8bgd/5w5ei1JjF8dU2wmoTC+edj/0HjyAsVWyqykSrvyr9b+pXUM17K8BhxHPFWD0Tk58uQCl/TPO7v454+RjGwx6CoodSQHeDkYoiAiFf1H62SrsU0LE2q5IF4KwAs2wMPJQQQx4ChmcA4npMZD1sis9ZIFki1qMi4KDb44BwE4g0W1jrJTjeG2Hdb+JgXMIv/fFr8D+HgC9R/8OFHQykaos/F/0R80hLNjF/mDF+VQs1u2CMGKzyy9khkhMr4CltE9oSAHGCRqEzm5jKQFPVxlNMZIOOACsd1cIp0k4fIQVQKvWfX+rid1/571geh+hnBdTndyGo1rGsnhXW7JVaA/GKNj7KtVqkb00Em3R7VO8UINl8VFcvj2bi67Klg5HPIlr2DkSgfWZpgRRoRenzqj+1i36qAWc8d66B3AcqIi0x7XqXcw4uNsjNSB8hqmqQFgFEFsnZojy5BiJMsoGIAYgsB1eA2g1PKNBZG6Ljz+CEN4ds5xX4tb/8D7zyA6u4lo+u0q1MwwrzL0VgK9q68TkRg4j5ERvdKlIWWLAC7pBcsryc0vagrSmpAgHCpEKOTEAh4WdyXaFkFoMxa7A1+uEhGrN70R4W8ep3XIeXvem/8PmbjqEzKmJmxx4bH3bo2DIWdp+HemsWawcPIVzUzq25gm1WtNteb9/cAjkFRHSPPrzryXGXfFlM6uY1IKEyBUwPwSPtrBJHOgYEav8QaKRRxkrbzcXZmI9jd/RXGS5QceCRO0p2x+LAcPO4nC1SdASALDMHgkq2ypI8sZzUK1XasROYX0S/EyGuzuErR9ZROv+e+NcPfA6/+4pP4103uK7elBaKZv7qPVUTBeab5YgubWbmkxownczowpS2A20RgLAKkl1KIKBt7oRSX9LkLfQoIhQi+sqRV8cRYs2/f+IgXv7OD+HzXzmIytxuWig+rr/pEAqlGhrzO7Da6SKW79KkMMqkvhXKRc65TreNbg1E9HqBFoitzcrANKZEI1xD37MVzNTzEmqghCySiOnpdRATRNIooaJR4YIyk1yiK1ImU2UKGlKuXhXNurFZOvqCxdfYrJCcpag8nozWGSfBmouvA/4cRIq0nLTmhyyR2flZRCeOoVCpoHXpZRgQ5FFtYaUzhL/3Uvznl4/gBW/9EF72kRO4kZgTFVqIOhnStRXU/BjBuM8vxJQHujbMStUvSrl6ks39dVGZ0h2mM5eDWwIgTklUk0zI6QzJmcGd9R5K1Vms8NrfvuVz+Ks3vRvHxhXs2HMR4mHCiq6A0swcuurpSOjmkLUIjtanSPtu/IcjKd2EqLy3Bzxy2gwiORXUg0PQsIrTfvMnf8vKCIpyUKheRT5DULEVjdptZGtrFP4RGnS5eIMcGo/ojqmL0iml6x1R/py0lxRpao7V7hPecG3OAjGxiqfaZDRORvFUTBVja8+h+7l64jAqi7MYR320D9yE0kUXwpubZ3JLWDuxhNK+S3B1O8Hfv/vT+Lu3XY8v0BTJGnPwCTLjNsFGa9vSrRkTRJRi2atKsQ1F4YU7Uo5TOjsk1b7TKaFLst6mic/QI+JId5RQKJ2YjIZj1Ju7cHQIvPCNn8XfvfODODgK0S2WsbbURpWWSUgljClM6kiVgCGgMmochhRLE7luRhJwU3IqvmbYChS+Ft+c8uu2URM5SobI1LahZ+XLZxniOEZMsNC+LRoPITAxpVcOlggY3TaiY4epZARJPoIea9iIUMF0jWmFZJmHlNWtelkyVrky682YUpqsjYH5o4ZajSQ1dTo7JMDQjF4Nf3fjUfLYCPZco7D25I/7a8waprVcQLR+AqP+Kh+hRVamfbl8HONKC0e8HXjlRw7heW+6Du8/BvTDKgqsGNx8ozV+SY2rwLGVIXrCFDGzbauTL0tSe/9EdMUSlmmRFmc4mbQZyarc5mTr0Zwh2hoASQLUmlVb1KczpLlaHCOhYkRDiky5ZfNa/uRV78VL3vBuAkcdjR3nwfMrNGUDa3swoaXynqylRcqUW7KBx4Q3Lp/y3u0kq/7IclGYO9YvwODUqGoNq1Ij3o4pfI1KGZUyBa+7jgLdGs30X/nsJ1EYdNGab2FGO37HkXVnNxszqFZrVLRIasiwTma9YFIziDUPRb01k0ScFbIcVdysMZdp5bmLje5YhzOvpgQS7RNIZ5NHz7qmxVQ+AWiJbhwzbVSdwaC1G++7qY0/fN0n8Y8fPYLDoyaSYIHPzKPbi1hpLGHPXNkmCNs6lsn2V+CzT6ch/7eTtgRAvCpwZDlGrVGmla9d9lOEXhmdUQ3X9YFf+4e34l8+cS2S+iJaMzswOLqMZGUdYb2JKCghY60vgT3Jqqc2nzt2ECPW8zrjE7IaTpdsAp6Y8MG4SIkyuk+yHmTW+2FI48RD5/hxJHSp5mcbGHdXkBy6ATPzVYxv/ALGSzehPFxGy4vRUI037KHf0QxjtZ8ojlJMF1eXBtfNK+V0KTk75L7s8lPxzPPUAbr9svg5a8QBSUDgCMdDBNoqI0vQKjEPumofasPT2iPMuw/fcAIv/PBB/NkHl3FToYrrOg3U6cbunGkBy8uolFIM+l2ksubuhCL8+qUzm3lbAiB96t7cgoYG0/vQgjWsWtZZI+1n5fR///R1eNsXD6FTaKLa2olxLLcmQqteQ1CrIVlf3xDUkyzAcA6NqwWdYb2haPaYMk7JOd0MZGCyQvJgLFj+Ua1cJIB4PoFgiGq9Yeuypp02kt4aFaGCKs353sFrsViN8aB9dTzg/Bb2lVNUhjTveyvMixh1ptNF24W52dJyZ5M0nSVyMXEA7fLCZa3lOuNrvBFTQTf/0mRWT426fK3bmkCrliItXD0a0NxsMs17L8QNwxpe/D834Rkvvxb9GQ8niKfIiihWSvxAzCNrHrpAedvTlO4onbkM3BoLhKa85pHEy13U/AbWBgV8+tgIP/jsv8WH1yLU911Bc5Um7GrfZrrWZuoYsPZaW6dfPTMzEU0HFA4sHG+cWzeomFmVKyM5F+rTy8D822oD4U9jWg1KlOaFFAIEzVm0jy2hXKrgggvPR7S+guHqMeykqVGPlvBLj38onv3jV+IXvncPHnJBDTvQxpw3wAwR1R9pyryUU6TsFxSehENLzlklxUCN3Wqz0lET3ajfzAc32C3YYBs5a+0kJ3uYdIxZadRrDbpszLMBwZPWmbVdVXci9nbgA0fGePKz/hufPDrG6pB5oLVrA63n7tnCRXnuTOncpy0BENoRSNqrtDDqGFIaru8BT/6NP8KJcQOF1h50BxmCSsNqHE2rzzS7VrM+u11rVzgVPORzO9DIgWOzyp2Eig1tt193lBSmJsWJHUIxi4wJHh4RgECi+TDzF1yMNk3vm67/CvbumMNw7TiKww5e+oJn4Ye/5W64Ox+9kj799z3kEjzi/nfDzlKGZO0osv661dT6kvEkfGtrMD69+J8uWZ6PXTtHwQBE8CFW3GQdFGmFOfBQY6sN/uK5un0NSJiGYRJZ12ypUkG5QnBQs4560ZKYFUcVEd3Z1dIsfucf3oBXfexGtJm1K32VqI0aspyZ0mmQMvIM0ZYASHj0K5ivBehTMN52/Toe/St/guLeeyONa0hXBgYUSdS3to5EbQthDc35nSiVS2gfOWAKZopMkbQBV2L+PsmOdO6OOfHsTrB/pURWClJmY7VbSNF1JNPyWD50GDMLC2g167jpK1/G4777EXjZ3/wS7n+Bh120NiqrB1Dr93DVDuAx33Qhvvk+l+L8xSYCtXMYgCjuiquKQEd1nRpUbkrhmScXk4RlEDMmApHcEuMfywNnhRmYFkoEPgcgea+N9hhOxwP0kj46oxCj0gLCyqKN+/F6J+B3DqCQLGM1S7C/eT5e/Knj+Mm//ACOMUiKDDQpW+NOpnQ6dObkZ0sABPV51tJj/NsHvojnvOK1GO24CIeJGzVeN99GM2g7GqfIpM7OI0oyW8tD3Zlzc61NyTfJvQXnsJErmjtOznnQfXtGnyLbkGyyxhnIqNA9TXjPWX9l2WjIeXHE0BiInpM/ry5b181Ktgly5OUTaM02MFg5hlLaxzN/9in4f099qE1r1ygQG2BWrdsC7j4tq7s3gJ95xD485VvvjX2FdTTSNkoaFq/wNVLVdqUms/6VC6CUbMSbz1g8FEte3My2cBKv61nHirfLh9MnF5aFps/nR2Nlsu7kLNDLwU/EXGVepPR74mGGNBmhGoSYKRVQLcQI/TESn+5QaycOFVv4fK+EZ/zFe/CmT69hndnhSF3/zpFSz25uC52Mg+6qG3hsBk7OunpLAM5f2kwaJKcRty6NrqJyVm8uYduSznDUt2Q9kGG5jPdfvYSn/9FLsF7eiai6A2O/ZltJVnlvmAyoAKrNVItJgaSkMYJR36yPRDUbFUl0y8I8VThOFRY+nbsepHz+TT4HR4NiNQcjy4elG/FI0AgofVpoR9/TKl6tuVkcueF61GZnkaWMU0pjPSzZ2LGo10XaWcZVd9uL//OER+AR9ywbcARxhIoaWpUmkutMIlBocaKRj24UYj8162df+Aa0Zy7CjR0qUdhCJveN6Fao8uu9DgJfC/84tdQ/Tb9PGOeRhmny+y7OPKQeikyUT0WVItjShPym0+88fbefXJ6LdeZ+6dyskPxcZDfy7+Qlkf/We8oHxU3ZLXiRiqu5I0R/rcMML6HZbCLrtdFfOoJLdy/g0fdcxO89/AKE6SoifxZH6f5qj6syA59R2vuUjJABWgaNMeRXUllvWtWIlzXGw75Btg32FKnigLcEEHSf+PNL/PSfvHkJn+O9JcapxncqdKOZyYgjCYK62fngtiTmNy3FTzx2khFbTCaOdzbdQH7th76AXtBEGtTgl6q0filMFMBhpuVeWDqSMwFHPu2dGiETPuVzThQVNamQfm9mV9vl7CQk5wkx7A0cIesgfZN5bTNBTRHIm16RuFuI1D7VTUeu/hJ27D0f0SBCTcsnMoQw7qGWdhGuH8YPfOtV+K2nPRaPJHjQwECFNVgp62PY7yLmN4YKWx/VoBFtpZn1CDIdLViA5/7841BZOYi9pRGarJHVs6tpxuNhQuDayTioUZJ5wTBSKokWfTZXQtaQWUSKMD9CELZ1XZUe/rfcUk1qD9xxciEoNJdB+qsrruFarGHtp/aKuW9axMiMm2r2ybNMHOOo9VmVJrK0s1SCx4TLgoj9Esa1BXw5KeMdN7Txc3/1ahwtzGoJaMzUaNUxf4itWFseoFjh+7aUQkxQFzALLHwEfCagztDYOZUsK1wcJz/ssGF9END512Kdp2VKt52kTnc6XX0CeM9HPm2zNn0qQMja1dO4iqKGdNNMl/9sQpawAIdkmfMyR7WeVUjZk0bdMZLVUcqozHSVZGRo4ZyBX8Ag1NqgFHNZPvZtfiMjj4qs/B04aZW0hGbDYDBEffce2xGvToVeXh9gECd8LqKPvoyf/4Fvx8899sH4pj2AVieJ2m2MtF5IZRbFRstEUEaO2d4aiquBMaU6hvUGvLqHy+aAZ//k92C+ewQL2TLCQhuVRgGtShXtg8y8cUgQChGxJoxp9ie0PFSD1+MxakMKfERNSVljyoJj9Sx3QKAlhfZNsc9tSlPaDL5PHFdeD2g9EGTKBBHm8ecPdfDG/kX4jue9BdfQq9VqIS1afxVtqD5fwvqA5kOjihErpcCv0mr0kfVTW31Mda7mOU5KeBOpMMQCiAmZW3gqGXBa5TKl20qn5vOdRB//8gDLrIKDsopfWyEQJKRWskV9LVGloub9cYrSiD7xSI12LFBzafLp3Hmh3z5WTejaDviTpG0cxkUKhfwJc5uo0AIPgkaBXCSIFPhbXZQRFXFY5LlGxBZL6FG4144fpWIXsW+mDL9zGC/4zZ/DTz7mPrhygXLMbwVJD7PVACUqhICjr/1keNRWCmYt8NdIC0EzvJTfV03pEy8fsA/4/Z96BFq9AzivPKR5zlq1q0kjKSLGdcR4mJVhyWK6GJ7miRRplpS0+1vKvNLev/pakVaIkmWD31TjTxJ/jtKIgKGh5NoiI+vTnSVwaDh5QY1GYQPdbBb7y5fgF//0jXjzR48ijpk4uoZC5BoB1WTK/tKOkPlGQEr7fdu6osw7vMI7JMsGlcGEzTpz95zF5B5xUnOSp3TbaUsA5J0f+wJK83vUlm+/42jAvyxAuTH2SXfdp/sSGoDE1vbhgEVKwULMfZDbyxPSma24rhpFwJGDhzSNoBGmRZTp8wayQhgftcmMNQs3CODN7UKPippGMRpejErnAC6tDfC+f3ymKf4OBllWb0o2tJq0SNs5TSJzX0qyUtIeLYY+RvTV+0EBHX5CxohEU755vURjhcf77wb+9BlPwGVFglDnuHXzNvfQPOF9mm1mPhXjgsVVIDekEkVStJHvQESKJRNLIfM0ocmVT34+18nmayhDBJQkWSE+8zJs0iEkkKRM342z98JvvOMG/MprP4YvdUsYdtyaIuN+B8Nel0BD94dhVJshqgEtL7o2BYKJIHtDFEyu9EOsLmr3WQcg+UP8RbA+CSDiKd0WkvTd6XTdNdfDK9cxSFjYBI2RfGF9SRPUUjVjuUJVo5p8ZCs6K0sJ00Qh7iCp8VDAoY3WRrI68vYOdQvI9x55NHtpCfAhn+fajNoRj/b5MWvECBXfQ3U8QHPcwVO+56F4/q/8CBZ5e5ZuV5lwoCHcFjbjPbatLzNUKfjlMhVbPSx0xlKCR0w8tIZbXlHwgkeBiEerrExhv5I+0LN+8uG4O421e5w3h/UTNzFcAa7aTTLGk/45ASQbB3RTaCWR1VakXoNASxxoUVnLTjowvJcQCK1N5Fwmxk+TFrVheVitoKDGC+ahXBupcFhiDtHi6tAa2V9o4TXXrOCXXvpW3ECH8fAqAbs6g1pN9l+KQaolEOk+qvVUoKQlE3XcIJ1PWHLIM8cTW4NxYda5J3Rud6Z0W0naeqeTV68hlnnKGr+gBjKPNbT8XFoasAJPWExqIifxGdfjwqhslNwdL0LVwDFlSQDiJIQkBZMGUxlDflaLoblGfCcu+ufmvuihmPc6GK/ehPlCG3/yGz+Dn3vMvXERFbyWDVAqRBixBqTJwecZZ6ZNaQxKFQPCsZYbUK3H77smRgkmH+OJtpUt8hNZzPCTdZSKQ1QJApdUgT97xnfh8vkAly4IcdYZft8sNDX0adVyOnv8Ht2/IoHEp6VRTG0OSiVjfLWWohKuAV28f6778TefEW2/pbzMizSKENOVk1WBY1/i9SHazT34THB3PPZPP4K3Ltfw+VVJEMuDvup4uMJzpt9cU4WzWY5E+nGS9WX39ZMP6aqgRVWa5Z17YEq3gbYEQK68aB88WhqB1gfVXodUMvm9BiDWkRaxBlfLvLZ3cFPHretTiqdxFpPCvkNsEsJjnjJdlhbz8zloyEoZexlrbFlI6gSM+QpFMqVlkfTQ7O7Hg8+v4J//5GfwwAucxWCD2xTmcEjrSnYElXg4oLERIaEPH0UJlZxgUqUJLn+dDwtQeGaseOQVY7GoxYmEMIwUv00vyRoLf+tH74vvunQ3dveX0Bi24Y+H9FJGZIbgMR9tvAgjQRRKihFdriHDjmjJZARGJtzaROT/bEmx3qkkF0ZT6eMhAZn5UGB+WK+Myj/uob98GEG9zLxi2sMmVlYznKhfgOe94Wq88B3X4bNdoMO0aqtN5iZDVMEz3ZIjY/sMaTMaqBDcWX5VP60aIXC42da6s/mdKX0t2hJJe9Dl56OOIQbtFVtk2GpHmte2lAdrX380oMJqZVQPUYG+bSG08wIBpjCihcKaVwJ2R9hASO0dWkNEyWOtpr1tNXRA3cVaZbDLOEQl+sMNjbkcoFyIEbSXMR8NsKdzAk998AV44c9/L+6u9l7inQBA3Y/DjAkoaz9YhlssuIWheSmgCR6USjYsf0AwjIMGhbFE8S7QBXLgoK0f1XZrLaHqSx4zX0YKmXkjjOWZXKTf+u6L8csPvD8uT3sY9o/R0mB+tAhK9Rk+wwipzUNLRvpDRH6PWdu3SXolYbMaVjMy3TLLirPCt14ut8ZGEzdTv9WwOlYvUplckdsm2SkhJMgEZcpK2sZhqvhr98f42X++Bm89THEigAx6BJ0B86lSoUszssmcQ5koqjgsZ/kN9ZJNPqlPC7z0TVk/CV0ntXl7LEwdFR9d3668kbdngJS7dzp948UzKA9WcdGeRXoFKknWxNpGcthFtV5ibS5pp8/LmiKjdaJ1QFyN7aaHTwz/O8Y6xBQW2xybYdG8T/sD1nR9WkMFlFpUwgYtH/ox6yduQJnHStbDImv7udUlvOgZP4OffsQDcbdWhhbjExJs8kzSTFwtUWhDuW1ItyECWTWXk1fZT1r1M1atqAuUSNd5rbYe5oXcJFkRshYsLNd7IyhpMJB53v6xh+zBkx/2jXSbPFSrfPbEIWB9GZUqlclGSsly0eZHMYNKiBcMQZWmGohzUNrGZG0SSgL/qHdOXdNad8QcFwJOVCzji6sJnvPKj+C1n2VR10pY8xpoa9eoWtmAWkVknjHzeqR2okk53TrpurM+phbI7aNcN+5UegDN/u+8zyVY/srVCDT6tBIiXT7B8o9Q47k0y9ourWdEiuiioUZVrTFxOsUn70WjCv14jApr+ma5glq1jKBKK4fuyjp9ZgHIKF1DsLOGbHACrbSDbzp/J97650/HNy742DNXZRR7rNWW0fJTVAUkCptsbZZU/LHGdni0LTytOObiL3mV+gpMpOKudiWkjCK6TkMDR1fVUbrVpS3zhSCk97QeuVuQZ4RWBfj+b1nAbzzmUZg7fBBNbQA87qHXPsgaV2EQaBkRjZzVt4YMZqBsVM2j8HVx25LyknlLgNW6qVo/VwCpeVO648kN7h4laqyiTdfmuW/4CJ7+muO4hvVCUnFVT5dZ1Gfe6FyWoo2VMUQiQNxCuNz1DWYNPqXbTk7y72TaxTL4P497OC5s+hgevQHeoI0ibfggKGIQxazFNYJSaqMC0xuUeNWiKnLrjrnjGqAEpYMYHhUskDDQv44JXLRDGDYlK6bz3Fum35GiVhhg1o/x8G+4B/7i/z0e51FxW/I3+n1KodbXG6NYkvJSsWmJFOkqCPNkZciGUnOws6VcMgQyYlV++s2vMUJKi6SZadOD1obB9FPh1Vsk705jVjRq09WwQxthGfD0UZd4+OMffxx2E+QW6vxqyHgNlhhkZj1JxZFmwIY2fiW11Yg1nkaD80x1tikpvwXDzjLTKFxrq+JRg+l8AmS9XEZrfg6r7Tb6lRred90h/O7fX4uPs1iXFAQLQNtHdFhAAnyzAWk9KkCF+dUk7Ktdn9JXJ5bWnU8tlsIVO4v4s996OnbRV69Eq6hTCKos7G4/puKooU+1Lx+0RlNz4M0q0XDzW9YSt50kAEkcI1BXYEAAo9InyZAVc4py4KFWZ+0W9dDot1FdW8Kv//gT8ctP+VYUhBeKinKkPgs0dwFlmxpH92GVINhFaHuc0H/nJYGDYi2WUBpOaEAcrYMKzwUi+TMW6GT8iY4au6Bh2mpO1rv2x9qJWIMyoD5BLSQSzfOhR+0FXvqMR2BH9wCqQYcJ7CDICGyZ2gfqxCQiniwZAsjYGzAIumrWm7RNSYWvNiK6YraJuk9rkW5age6aDdPXMP9wDu21yOYOFUa0EhsZvrh/P376j9+PN37JbbOp9raAxTdgVnTTjEau68FSveDk6zSEbEobtCUAoi7OBg+XzXt42Qt+EwusToNsgPbxYyg251h2ajXMjX2pmVgAoslgGlYu0t/bzxKOQEOdwyI6BI6YClmdaaJC6ydaXUFy9CgurTVxiV/CX//Gr+G7r9qNGb5ZKhI9KqntlKdBZWmB5oiYpsLYr1BY5a4wu2jRyHYSQIiVCv3eoElUdE1shrfcND1pbSfqmzlJdi5ZVth8Q12JgYZ5ZyM3Ap5XL28CL37m41A++GW0aE0FRFpNOOwXCSAetcTaUhiSRrN6feaBwdI2JYHE5HSSi9a9ykxy8lFA79ARzO47z7wNLXK9RlRoJwVErb34i3/5DF7x79fh+mOuPtDA5xHz3/rDNAiPQSr4k+0dJ0m/Tr0ypf+NtgZAWBO3D9yIecq15n0877d+ASHdgNqOXRR41QRUTLUDWNWrLt0ha/CUgq9+eJawJOMOkgBEc14GtBZGcc+Uya+EiHuszlfauIBg8IC53XjzHz8N37yHtTzNAI/2bqkyQhcryGoFrEcD9Cl9XVoMvWINSW0eadCkcpatp8BnXEtMY4X+eNmsjonCEiDGRZrewgz+LFFSA1kecmzoh49D1qaUYy0gTGwwd0fCHPH5mACiptYir1YTCnx/gMRj/BspCsMIC2sJPv6Cn8NldO59WitRwBDUI6TVvEYMSUZHsU+8E4BIdbYpET3UtS6XtsB0eprzM1IrVAUxASDVpJedVazecA3K1VnWRTuw3g7gNXYRVGnd0gL7z3e/E//+lnfj89dE6NGNsd4VAyFmGUVvM50KInziDPZg3BVoawCENX9roUXN6NA1GOIBu4G//r2fQ6V/HHUZ7yONtJSQ6GEpjoZqT0aFSuFsbQypl3hzPS9WlGm6Tv65QDYz76sZvkIbqNGk3hbpfqyjsHYU99xZx8887jvxJ7/6bagxClVGgbhB14ZeyoCWBwVN3clhqWw7NWiUtZosIspUn0bSMKEYaun1MYVYDaI5m/Yy6vy8ziSCqt8MHyf+mDyU/EmlwObrTM71mHtPcSery7tWJUhkOLx2CGWC7AWtANUV4N+e+xgs0CUsJ21mIV2ajBqi8ST6qPVoKa+Yl/ztZpvqyCtjDeN27QiO+B2ziMSKhaYTyk2ga2AxOg06LSWcRFgqz3AsHYyrYmek7IwoQ3RF+0eXbN2Z2p4LEWuofxqjMttAuLgP//Gxq/H8V70Jb/9C23bI6/HFDgtAKVObU0gZDLOIRwe21qgv0DLrTd+3C9uQzyxtyXogZfUUyIowYVXBl9CjYH9mDfjNF70SHz8qZWXNqQWGBBLUrhZtzXG7y9qEwjHL67mLY2FIvXi0c1oAGoOhHg7doVIoAUUpDwUusW4Svsvr9UbISvkEZsYd7PQjPPeXfhr33uvZuAwpsIVn2qVxsXQLJgUgyHIqdZLy4rEnLB66K55cvZlr4p6zU/uRPy1S2PohbLn5dZ1LpPUFpVttLsUNYKXu8LDEB//wX67Gmz9xNQZV5tXsArqa6awucw1vH9KWsSHvzNdWExGBvL96gjV2yfInoxXm3EgdFQmC0LhHZVqjco0II01+Wc7THSVL/WmRQhAAWiYxjmp5cmuc0GaYBC+csmcEMIy3nrK5VUxvoxwS8BOUaI192/0vw4995z7ci8nVnlbrtDr/6B/fi6WdF+Emyt8S81bztmbKJVqtGcO3r9s3tit98nGS4q2n4m/8xm/8/uT8TiO5D2ma0m2h4ksrBhROVudzVR8P/ab74LOf/ZLqOvSOLhM/aiiV6uhpJ376quVKxRoXTbEngHGSnedaq9KkzVLbm2UUaSe7MYGEXq4foEzrIen3Ua+w3j5xAPPFCPfZN4OXPuvHcH6z4MDD+k/I6pVh/FS7aZSGviCxye0dRT3nU0RKAqZae4PdnfyZk89NeNPp5nv5783fEFTmDbOKh7ggADFFcb9Dnt77skUMuhmOHz+KjHmrfYRHAd1DgQKTVQ5KzJ8BhsMOkozmFt2ncpVugIa9C7RtVKtASfksa9A1CbvRmJoRrRw48ySr0lkdE8pBw9hdz1fw0C13Tc84khU3HGToMn2DShODYhWHj63gpq+soREs4uJ9BYTMoo9ffQLHWXGtMOljrc/L/PLpimYRJVOmp4W8femnLz8z5bclADKmX64F6eKU9RhN/iRJ0esNUKvUoSEND7rvvfHlT3+JTxZR8UtYW2PNR+Ee+hSNik+9JpiwqpCiaxyAR8HWLmha70KqpZ3jCrRCfIat1cMmUsTK17V7zIX8bv8oAcPDkx/7nXjaD34jZpWfyRgVmR4CNhM6vatGOi0O7JRWJCWVQp89kvq6WBmsbQApE0kF1zg59XRedk/6/4MSvnTdlzGiKxXHQ1sNPR4WUao1CSjMD/UHawIQ8097Dgs8NJu3zEvVOKIrpDEq6loXALEGJgC5TcHPjgI5aPja5CyEW6ci411i/BOtLEaX1C+X0V1ZwY03XMfjCSTeItAs4ZM39XAg9bE6LqFQbTGfA3hDzbBm2RNAzlLy7zTa1gASaYq7Fg3S3AYWdhiWaVmUbXp80kuxqxngux58Dxy9fgkHb7wRxVKITrdLieYz/OdnXQQ0q23CnXxSCbcx6xq6G7JSNI0+yWJrbNSSgUV+qzBK4PWWcVGVpmvnEP7qOf8XD76iiTnmpebBNHyGyBq5KNAxMXUAklsfExU9ywDialvXMkSQE3jkgGf+uWfzbvwy08tfV146Q29kDjdedy3mGiWsr63T+qP1QdAeaVKexvBXZG3wKNeu3LBG43KWocr8CzUqmFV5QhdwVFRPE10XG4xGPgt02gDCLApTujQj5qDSxErGLweURw/ttRV87pprsT6axWFaKWtBHV2mV5uhywjzicwhn5OMTQHkttGW6EmBPog8MN/muAQgNNCOoGAUMjSrHn1UYJHy+byf+TZ83zdcDu/Efuyep/BKy+M+C9Sta6HFgLQIj6ax2yI/ahehmxOPPXpFfVobCc3RkLjjs/ZoI4jb2F3NcN9dAf7rZb+Ni6tAjd9Sl3KYqqcnQkCwcuTAw9X1js4FmVEcVPRW/OZeCDTElHD5JgVaGXUqh5Za5BXxkx66E7/8Q49E5diXUe0dQW2eua81ANVaqOntGn8SMBfkttAS1HB69XSMPLksWmJSjZV8JqNtnzLTdL5tqYBhf0g3j2lV97nGHWW0bGcWMWzuwOFxGW+j9XsctEz8CtKgwopIoFUkeITWkP+/Q9i5Tmcu/lsCIDMsOzXBSQxVMKwvsZ4kaA/6vCCrgkLc72kwKH7jqQ/DzzzhEagNlrFH/s3aMoVa616wFiWn6vZVrWhjHXSk29Ll+8MIIS2JuWoIf7iGcfsortjVwo9/98PwvF/5EdToz+4MR5gvZegvH2NNmyDV961mVcwcO8+awZKVGVuSIbeLGBNVfznnwmAOP4FE+Zf10KoU0FlZNu9Eyyo+5JIGfumHvwdXLoYYd/bzSge1hRlblwUdWjAJC0UWSN/1smh0p5Y9kNuYWgM0f2ii3sTY2a6k3CoHZVucqKC2DLVRJdpIe4ReoYKstoiVLERcalImmdQiXTo+Vy6xYgtCpNZGtJ1JcjM5PQO0Nb0wRPlUk9eaVVs0S81z7iOsPXnma2EhyfTaAKPyPIYND//87hvxnJf8M0r77o6jmvVaFARRqE3RdZRqK3OoRLzkpz2E8bqBh2b+3vPivXjcI78Dj7pqBhXWQK1yhozKou/6anQdDuHT9YkHrJ2qVKpJeKrb9YxY5xJAffGsAkkeoQ3LQ6ArwRaA8MB7XYJotTFnG3d1aI7XalQO3nrfdat41uvfjS8u0RxfuJCm1yziNjXFFramWzQigGR0DxmexkZokNVoTCUigGhtWIHUyGO+naXRrFb/W9q/OuUuzOZZp/mpVtefoysWpyOsMi1jtcjaQlbMw3jI8xFKrQYuvOwyHKC7N7Nz3jxEjR6uDjNbcR/VIkH1f4nEOUsOQD75eOnM1tPW6AmV26csShEl1fFEFll06KSZ9ddrglkwX0GpTFN6fYQf/Y4L8eLf+iXg4PWoaLEelZ+Z8Dqhlgg41Gc/4r3OGp8ZIOyvoZX18chvuBK/9dQn4HsFHvxWVbV0HNueq5q2rVrIr9Rx4vgy0aTMoJ3loZAlisoExZWwdZbbP25G1sPDWNlsZcZMg+wY45RpqjdqiAYdjIc97KjRCuO1MErxsLvN4rlP/X7cf2cJhROHUErow2ltWrolY97X+2K1sqQMVwCiUbCmaAQOj2B82uNAziLJaBvRdSuEBXhqEIlprcbMA6ZRC1sXwjqymG4xwSKjC9yg16Z1aiM+F49je8/GhGxrOnMJ2BoLRB2xaq+wGav0SVl2El19SMqptdfdTEtqu3UlVlgxFJDxgRXqyrf9wstx05BC7hXR1NB3CnpPbR705xulAHtm6zh4zWexu1bAjz/u4XjCw6/AAg0WLcxT5gc8Lftl9bEUUF90jaT6/ubE6k6uThtApSv2ztmTIsNNnZwSBZcm9UQ56BO52DOjeCRLewgy6/x1fQd49j99AB/Sjl67r8DaOmtf1q7lHfOI11dtGUba+SiGchP5wmSlOC+gRZIoAmcn/adrgRgOqpuKgWiNWCMNDdalpGi9NFVapHsvuQADP0FvFMNTv3iWocy8s/FBAlT35jYkSgitr898f97Wt7W0NQASqNlU9bkGbAcmi1owy3pS9ABJa2MIRFRU6laE3JasaH75tYzRa//rAN72jnfg8NFl21emWAxMXQL+kQI84lsejCd+z8Nwr/PlMvEazfSmz7A0rLRIFeNzSpg4B4/NNFE5Y9dQKTDLAUS1vd0547Q5vjePs+7IOhBbvk2unkysrijeRawSw29gQM/+xw/jgwd7GM2dh96QWqSuSlov6rmysGTUMN9SuSwaVaseGNuk6eyk/3QBxMCV7sqYaTM3TDfUSKoFtJOAAOGhUqvhvEv2YehH6I0HGJc8m1MTsKLyeN/1b23k7jYjAciYACL923raGgApa2orhdBW0KJpkGuEyoQCqxrPqaqEWNaIClnMm4UQceB2add8lBv2r+Hjn/48Dhw+hsXFnbj7pZdhcW4GF+4JoGUzbaUxPsyKk9+gwLAmGZdCJPyWbok3Uy4aUg9je0CCRrZY8epZBpA8JqJbi7/AQzaViyGf0EM5G/EpIoMGSckSedHrP47Pr4xw47CErjK/wnKRcmUsJ00roKzZimqaMyLrw5ZH1JfOPJ0ugIjGtoiVclGAmMFneooEED8psbx9s0DOu+Q8AsgQXa2eT7NVbxQ83SfQEDz/tzicu3QXAJBRWQODtVIlrYYRE2LmB2+o3CX1xAk1+Dsl0bOsFdXQlS+Go7VCspG1fXn03229Sl7WMnUaqV2Wu8Lfsro1crBCffdCviMLIqFvWyubQGymXB3yKGwcLfV8z6wPMe+oWj5LAKIYSPQ3F0p+rjhvZpcO5dnkCR15I4213URAQfKQ0k1Z4eX/7+Wfwud6IYEkQp9uC7TOiRZNiujwjJj/ocbW1Fl5u9Dzb55punMAJM/FATyCiSYfenJf0rLJY7VGALl4LxJ/QAukzzrOhipSLtVWRLllWNu2DZX5dyYBZEu0JIFGomoGpWpyFqYN75uohQqGrCEK7uOaKUlhV5tJkVe0fHl3lWjRgafh1XEbBf4ed9ZQY6hN5kvn+DL6a+t8K0WtEcIrUeHV8Co2U8SFLeYds4XEylIddU18UlD5pFkdfOIsWh+iHBzEm9OQc37NqZBo05P03TXYrk3rImIG+wH9eoLy7PoY/99PXIVv3l3GvecLqHk0S7TWqny/KsFE69bSZPO6GYLB2M292bbEuNtIWp+ip2l4Iq2AN7KeFe0xrLxJybYUJO9ZftLi0t47hXzh6u1KJtNnrvy2KKeUANViDF5aWqSPUeyTWeNJcK3gTibTDdomHFB5bX3UxiwFu8HY8VyLI1fL8GsV1iwx+p1VzC/OoNmq01AYod/r2LwYM0sqFXS0uRDDlLIJLIwVBbKb3TlmlPj9zVUWSRa7lM/NBTmb5NwTNz7WzUjJ06I0uHQ4NgAUM+4Wf55owH8prGK5s8KHUox7S6iEsS3u/IwfvATfc9+92FVYRdA7AbRlffgollrE3bpZjNocPC+XbUnKCAMPn3lE+WO6NQlPG5RrbRhNRlQ7WywQ4W/dUz7qWVknek9W0JRuG20JgKj9V7W9AtcoR5u0JuCgyaid0tVd6KR/kxIQ/bU8X1yoop1V6Z/WMQwb6NGSabPEOykdHbozpdYs2v0hwYaKTnAZlwJEEhD+1jW/TIuEwZmisfYtyA+yxkF1HU9Y45bV5jEBEcmc7KOc3dWzQw52taiAjOqYv7VEIWOVu3c358nB1aWOtLZsq1HDwWNHUZiRNdhDou0qeO9xD9yBH3jA3XDfOZrrA+ZDnwBSaBGMGzRg6HhqDdE84G1IsjkMPAxA1ByqSoHlKizxeUIekiOy9g7SiGd7a6QeGL0j62VL1OIuSVuSUxrMo+4wJ4p5ja5P6YqVGK+5qwIQu6qf1GQpgcpPjahUdc1/Y6EHKIbW1Gr3a7WaHVMqlu1uRp/eXidrNKE70xM553fFm8hFZePqze6eI/RV4v5ViOpjFkuF//bsPJ9GRhdBjbZFkGLt2I3YRUPtp77jUjz2fpfhskYJdQJqmSCb0f3rxDF6acxikPVDNotNpr3KjqHmbUMEamWdZh5osyxfroI9Q+WTC8i7d/TfaZNZmJI6nRf5MzC2uOkq/7vclFxKpib3zX3h7Y139eA2ZIv9bZOVO4O2pBG1VCq7E6XFioo1nSmySBcl4qd0RG6QIpM/mVP+1M2PNye9q3vuPn9ZyjYnL39CxCMVQZQ/kR9PhnE2SLHIeVNcLXK3EqvJpc1xPzUDmfc2VZ8XZbVpDgjzXx3t//UV4K9e805c39Eevi2EczvQO3EcfpPWXo/AQyuwXG7aYkraCNv60KWHanTNRqikWuRYyz/6iOhuplpsSVo4civMbTVNDEijvEHV2jJoWgjOxhNLU126tmicKZiHUr2GCy46n1czxARMDXvXMjJFv+wMPbrK/EvejuTcss8+4cyMA1E+3+kkvTTWuf1VDcCqz1gJE4C4OzfnST12CutpBzmOb+09cX7PEc8sEry6wXkNKj7lyY33xSfvnA3KY3KzFJ/M0FN5Qhs/JfdiUxgx389NcqtdE1ocIxuh8y2XAM/+2e/C/LiN2WKP4HETmrvnkZ5YQlCfQZmWXhRHCOjWhLWK+0Ak5RIJjOR2uvDdt6V9p6DX2SFaUDYOxOJICZKFoWH68mUYRy3O7CwrWR20QuS2MB22lqy6t43yHN1+nNv8Z4ImkjWluxRtlicN4d4ATd2k0a4GxXYfmhF0WQv42z/4AZRWb8B5/jpCNa4u7ENSaKGzPkSc0MUp0W4Zd+FFHVRLvnWoqeesXyyhS5dxKP0rJCilXYRpn+7r1lsfU7p1ktuprS/OFE0B5C5IZngQLHI28LCiJlPA4u46FltVW3ZBlkiLRsXr//T/4Kr5Arzj16Ou7uyUNXaRR7+AXncVo6iHJs8ro8zauKxdRAvv+EU3cJU1d2kUoZxpkexzwAr5uiUV+plT6zP3pSmdEcpBw3oexLymjShch7Arbg000yi8VlErt8W4G72Tvbz+Z//3e/HNF81htHQUND1Qm5lFIfCRrC7x/TFmanV0l1at4VS9XM7C4Q+yNoDyNPJnrI7kM1cDTulUskEAWvriDNEUQO6KNAERqbFsATcFbwIihSKqrRZWjxzinRT1gO5JEqHFu5VhD3/wc4/CYx54BWbpsvQOfQXFVGZKAwkRqRcRJLQlh9o8zMqQqyKWSeLaHCbDsshTOjsk+J5aIFO6gyTVVUfIZjV2IKKOWTVW+Ggvr2F2z3lI19sY9zrwkiG8bIC5ErCDTzzjcYv4gfudh11eB+VhB62ZOWReFSe6hIfmHLRKnO1+t2lcjaYbDIshWUsETsXq7BFh/Ay6kNOSvguSgGMzgNzcEmkt7sb60hr8+gwKtSb9EQKLFtzJUvRXlnABX/6FR8/jx7/tKsxEa/A6bczWG9Co4N4gsg2eBBLWmzEayfjgRwq87pNlQuurUzob5OyPZPJr62kKIHc1olK7UbYpoUIOxcnRNg5EeKS10FzcydKnryx/WfvEBFUCSQWLcy0Ue+vYzed+6jv34Bcf923YVxgCq8exwHuaVjAigBTrPPdKGPUJSym/klF0k8SW3jA8UTS2nMeONchjctFdy+8xIhOyCXgT3njvZqxdB3U81+nm8d7MKvfCiOV1hmgKIHc5kgIIQAQVbvEhAYiuiqXcE4NB1dWEKQaahzRpfGvU+E7nOOZYkT3pwbP4ucc8DLsLXSxd/2nUGwFfThFHEbKsSAxqICiWKUgMIyCHEqlzXwnvqmRlrDI9QzQFkLsiGVo4yMgBZLNM5UCyucdG66do+oBW0R/TnanUA1TiNloEkcfd18dTH3kVLp9nWOv7UShNavyRj1HqIxqMUCQAFW1twP7kC1M6G6QFyRM1dJ8hmgLIXZIEFyxaGyF6csSvCjs/F+eUWyXOZuE9v4x4vWNrhqhxtX9kFU944Bz+8BnfjT3FdXjL+4H+iltzVIHGdF1GY4Qayj4VqbNKagEZaxzPGaJpad/lSEWq3hYJkY5umLlGgYitH4YGQr4cwM2BRbZDihLC1iLP+DvpY/eOqhu1WgP+4Ce/G5eX+2gODqPUO4xGEMOvFm1JwCTxUCq3DLimdHZIFueZHMg3Lem7JOVw4CgHCTcSZOJ+GPMi2d07KQzZuIge3ZKxX0KhUSMeZIiHHWgr9AcRV37nSY/Ed146i0rvJqBzEFW5NJ6HlN5LpMU2LLQpnQ3yRykWwimATOl0aIIfE3wwUs2kkSBqAIW2s7TxG+KE7IaZmXVC7ncGKFVqaGcejkYp+oUKiuUSopUTBiKPuLiCp337PfHIey5iR2kdhbRNSdIHaaIM1RCrUKZ0NqjEMr3X/JnL/ymA3EXpVPBwfAq5xS8cm1WiVdDcONJWs4qllQ4KRR+1Uh29uIt4MMDCbANZexnD48fwoEvm8JOP+w58wyU7URquopx04PkEKPXCaFSq8GTyUc18tQWe6BxpjIJGo4jGBcKWJ3bPaiq+llO0KN1BukU67yApnDvGk/x0g2PI+uvg2ywzW7DIZxrFReaN2HN5xLS7FefcGy5E3hsV4WdFBOR8uckRM2lkUwiU12KtsMYvjCNcuXDmLMAtWpV9sh7IlM4OTUo0V2CRO9UNst3Xn80P5E840bVHSLJanMKTbZYnhbMQYjUqIGUxH+GVV771AN7y359Cd1RFcX4HjvW7pkNozWGm0sRgiRbKKEKUnGDAEfzaPFJaNfBosWi2sEffJ6MFFPm2SFFSTE1BvhbZmIecTjknay9cJt6Ni3C9UGNb6IPMH+VqBedfdCFTNEacJgQ+n58foaAN2hVGxjRvCvLmlC/qfGskZR7R5RtbRAQYAg4HGjq3VVqFL4yLjdHRd3khZwGP5hVprI42PNfKaqWUAELg8PhsyryJqsTpZgntzprBUljwMYxHWOr1cMF4Ff/0Y/fEPbQC4BkgfX9KdzWSfJMnB2NHOmOR27gPAUF+LjE4+aREX2dyayTothrPxhTxMXq9rsaTmaOyQP7Rh+/Dkx/+QJzvr6F/0+fQmp+FLdS8vIxofRmVWgFRtI7mwg5qb4uKqwZefUHuFNlGn6n3gIqnXQVPh76G4p8JshxmHGRJOGtCii925wImY3s6/+GAwyw3+6eV0rS8op5LiTsRs2eIrBgRGzMMhzG63SEqpQaD8NHvDbG+toQLds9i7xzBkbh8pkiSM6UpnUKUWzMgXN1N3gAYR9qHd9hViynP+XsXkeR7H7oTT/z2++Oi2TLaB46hENSxa6aFwbHrsda+BqW9FayfiFGeuYIKoVGsAo11BEkb4cCDH9MKoIJEpT6V5DRB5CySLB+5GmHqkz2UsgKPY4TZCMEoQTDWNiYRrRhmXmE4AYYYiR8jFhPXtavBeFRjOAXCyABJuIJe9QTWamvoloeI4gxhXIXfDzBcApoE5Yt37oB39CY8+n6XGDyfKZoCyJS+KglIHHiQ86PRiKY1FSEbmstB+cd5IfB9D7sIT33Mw7CTirG35GFl6Qh27tvNgEaIjh2Dt7ATQ62PaCNefSrUCOUsQVWLFtHFsb1JBR7/i/tyTpNZGW6lM7VdeNauoa5VbXKS8qgtXSNyTBBRXiR8JaHLkhpwaruJyKdrZc0YapOi60jLLPVGtiWF2jm0d16NBl5nJUIzLKFGy2WOsPOAnbP4zru5DvwzRblETGlKG3TS1hDlFkju8tA37w/QaFTQEHp021gIx7bi+w7a3E984AL+9uceidENn0Bt7yyOsbas1S4E4iZ8zamhj+7aUwKrZXUMCmu8t0Klk0sjzTk1BtuJNCtZa8RmxnQCrb1E7RtapFrWhwDEWSH5udwU3Vfrk6yRQWkdg3KHVgndl3GAYtqgpTYLP2nxvIp6vY71Th/l6hCht4JydBzZwWvxW4/dhT38mtqyzxRNAWRKtyCJvATjpBoLOKTYjos+fRZaDwXfQ61OayLpoqDlDAsDA5JvvAD469/7IQRrB9EMiugdWEZrbh/idTWuqgt5QE1jzcu6MvECmu4ZFYdKxdpba5fKDdiuJMBIvAKiots2Qht8a0+asRZeoiUhsLDeqLEAhRYGja2i9cLkVgstFtvOw7V3pAxrZGu6alc9rcUSolSjZUMrpdc+goUSrZeD1+B3fvzBaDFbZ4jBZ9IDnALIlE4h1+Eo01m15klXwnpnrOGVQl6q/v/tXVusHddZ/uY++3YuPsc+9nFsHzskTp0mcUKukEKBhotURUgIiYcK9alPCIkXHpBA0KcKIaq8lKtERQRVilqFVhW0KqraRLTJQxXagJIWN8R27Pic43PZt9lz3Xzfmj0+24fYtHbs2Mr81jpr9sxaa9aM1//N96/1r7UQDWXDl81n1NumpvA3QWHUXyNJGeP+ReAff/fXsXT2R1g8egzbEel76qLFxh3mXXjjbdr/GUYEmO2wiZ5Hmz530Ug0nGmKvS1Fq8DJBIm8MhhzhEwt5UNlDIXAxLxXdazKxPFg5z7NwQBuFiJMfcxHFmbI3NSpqvwx8TrlqzYGDf8PtA/9+fULeOhu2itvn8GffOxX8PgegseIwENgcnnfmyU1gNSyS9j4jCkhBzN9ykptVpPUkc4MkwJhZ9aASRZnCGfYerWVR5rD97QncoQGc5ycB/72938Ly8kawtEGFjtNFqA1Vck9Cn6N1QdgPsE06O0m6ToVSV9i/rt9pdwyU+xhJ4xp1pTgog3QBAIFyt0YtTh1gYDPri0lGgQUHyFfcpBrREbmUOni5xQ2mnx3M8kIvTdO497FAMWZV/HJT/wsHj3E227F8DsEHe0AqcWebpLUfiC1XC5mLRGaGQYuxDgUPPVamDNqLApScQV9gWTYmKvKy8YbjWnfy3uVUEKswBtrwDNf/C4+++pZBMt3wh3mSLMISZBgbPbm7bCQBppJirQ3oDnD0q6CIfLDuKIfiCopTZUZpPOXAs8r5mk38LFy5zFzj4xA5ng0pXINl7JcmmYuy79aP+7V/EC0A15MwJAfixic5qVUW6oKK82+NeJ3GmHxQgQNAgHrLOtOvhwuRgjH6/AaDrp2iCi20CSw7A8b6KQE3N552MlbePrn7sVHH52BZiwFMZ/Bosnjl7zRIShlZCM3Q2oAqeVyMQAic0RgUJosApCyG7DUT4VKBCBSp52YVD3vo+DXUiu7B/JV4JXX1sd45sVTeO7F1zC7eDfWqDG5N4Q7P4PC6TA9FUwbOhW06ZX3KnIrA4g8Qmmo6GgqSJRHkGKZYdhGs833ZGEQJQgbLczNCUCAi28P0PYS5MkAzZkOFjozZp+ebPU8Hjq0D7/22H7ccwdAAoIOX7pXyOTk/xfNowH54ShLMevOoRgRbG6C1ABSy+VSAYhRArbQCQOZDCias5V6VFKpk2I5l7n5CEU0gO3TZBGdd/nb6uDcRR9/8aVX8PzpFGfGbZ4T1SjgjCKzOFraFgyxdLX9q1CQWxlAxDj8TJ2kYiEyVxhYbmm6qA+DJl6zhcFISu/CDxwMBim2NrfRbLVw8EAD3Q1gL1XIubiJ8fpreORYC7/xkftxfAGINgocnrNNPxGtR8N4Cl+wNDSmo2ugvI10pBdx46UGkFp2CRue6f9Qs6CimKFbGSniFqV+Khh9nIRKdCwfBPVxmKm5cvewMmx1V9FuzrNxL2JtBHzyq/+Db7wxwBsXchbvIyhGJO4DFFozQCZNLK2QIryz3MoAIt+WRiJ/D234bpsFqDWSkjJW0LnCIZgwXZomyLIEzdBHp900CzlFvZQMZAbu1gCPLBR4+rEOTh4lmDCtp1Eumj3EZ3heYEZ51CelYGU9zMn0tHnSaWJUA0gt750YbSsPJUbxpDSV4oiK76SaDoIaRwTGSZG6PXPWG9NE6fGrHLrIfB/neP2z//Lf+OeXtrCKGURejkG8Sc0eotFpYZRqu8kru0Pd+gCSGwc7gUcJHI6J9TtnwTnNNNcha8higkEPAUF2tuGaHQOdUYZD7SU89cFZPHU3sEAcNZOmnSFSf4SE9MxDi6DBOhOh9bjaHGxeS8oNxB55pu1ilOs/4cZLDSC1XCZqDGqUisUBSh7AM2qY1RVdNDo0SSGWwhO6qtNxlMNv2GQVXV61ERYdsOWjH3fRJEDYZDTniC1f+V6Gf/jW9/HyW+fg7tlDCt/Adpd5Qpo3kzu/k9zKAKJtJYNMHae0xAwDEXgQOA14KIXKz2ClQzSthFBAEOmtMc8Q9991DE+ePIyTB4FZppwhEQxIL2zWUQCSh9oOHNjKI5ouHh/RI4T4aBcBmipcO6ZnzDTvYZTdnMl0NYDUcplI/9QFoUYhFVafhmaNXhrWVR+JSSWRRlQAUsZypNosYvh2i02bVJ0fQi2VWuEPdRWDrSFa8010meXvv/5f+Ny/n8Jb+TyixkF0uxEbkBKLmL+z3MoAYq6YiYflEGxOAFGs/hBVQjv3Zf1t7A0tdHKaHQWB49AiPnRyP+5aKtmE5heN8yHrU8609WUSRonZkxg+TbxJ+SCbM8LDNM3QK5jGtdEJQqSjGkBqeQ9E+jcNIMYkMQAi8JBST2jyJSmBw7RiQQ0Pu2Y0oKCCdNCUE5RJR/AodciEjYsbcGY8FI0Ovvz9TXzmCy/i9Q0HnaMfxJom6jGtRYVwCFhmlq7Jppo4VGDGBjSqoHoxNkDBjBoHVkXM5cl5ySS2Aw9Hjx1j0jGyPIfnu0i1L46yUFkdlk8I4bsoAbHMpXEoPrfFs1PooiN1YZbPr6AkmpIvxqH9c8ogr9OApkuDzGAmH2DRHuHEUhtPnDiAB44CGqvSuzaAnWywTgVJWzl87mo0qyBYyINMz6fb9Am0BD3MMSczjviutpgnsEIDQEUNILW8F1IqRBkuVwsqz2VKW8lOChNLKQ0MyR9Bi+aUp41MsklXEyrUiKzGCQJQFfDt19fxT1/5Ol44M8L6oV9goibceAutYoDtaA0Wv7atmX3odwlHlkZ3dC8d0zbSMKZAhGBgVHCs9icQYWQAhLFkAiBWI8TRlSPEwYw6mMLlV9swD4dlipYQgOTglcn/haaHTo2pyrYVE1JS3mbAUnJYDp/QC+CIFdCkkD5rb5ys10ez0UDhN8ww7WgUo0WbZr+b46Ad4VfvO4L7Fi2cWCbbYHXVJzJIBhg3yDYsHyxNWGYgi7XlsZBtUrd3Ep1mkgr4BUJJDSC13J6i5iRFVlwqwHTQWcFLzD9q8NsDUnXPRSf08cNzF/CHf/NlfAcPIe0cwawVYbR5zqw9ktPU6K5uwlk6REWViuh7LUYgrSWAEIw0WU2T8YqxVFBpKAZAJnWpAKTZwMqRlQmAZPBc5rkEIEygtUlYvvEYJVAZp36DhPKezRB4NEV4e5vgMiJg9OMEicwKN0Tg+lhg+UkvQhb14OUjtMYjHOq4ePKew3jyuItlkolFkomym1iMboSEtl7h2zSfCEjG+NPzXbuMagCp5fYUzfQoAURmgFHcKkzo98ZWF525GZOqnxRUVAsh7ZvtdIw3Llr41N+9jB9GAd6KLsLev4jOkJxmOEDn4B6cu3CeDUw9BVS/Qv0BNqy8MKYO1YbFEwEMZRAIjAkm/MsWXpoZEhteq4XDK0cJSgQxshaHSp/LIcvRQj4EiXHCVPLl0MQ3qQdZyFjmRMBfVG6VrXxM4/gEl8BGQvDpkoJEiYV0I8YSTYu7wgGOWBfx6D7g5z+wH0f3BcwrN3fxmNLwEl4J6rSTi08QM2cIXIZhXYfUAFLLbSpXABCBx0SJpSb62Y+prPyU0xKgDc/f0QidVogLfeD3/vR5vFK4cPYdRrSeIxtlSLMuWvvmMMhp9KjfxQCIa2afVgBiZrkSQMolDYsJgKhO5SiR+jXCVhuHjh5DxjRxzituYI4tx2M6Ta+PmCouF/9hGWZ28Ninwod8shBb3REaYQftlkX2IpOsQJIOyGJYEdNHAuxxUnx4ZQ6/+XCIE0SHhtBisAnttRMRqIa2NiL3eJ+y41ScyfQdi8mICZWv6pqlBpBablO5AoAoSBEljPrDBD7NFuHAYES1DE1XLbYGPcy2PFxIxvjMc9/FN34Q4bXxXuSRg5mZvbTtu0iCCIWcTTRpjOBgiT0YRacZQ0Zi51RMOaLx3FjAwlgiF3PVqgSQO5GwPrw1LC80xxaZSGEAZMAgk0jT7MkQyAxKJkKw0KjI/AJWtxNsb8dwme+Oho9DNGsW4i348Rk8/Ngi7rvnIO7seMYQ8YfAHBFCviGjAWOfBpK2XnDl9q5gifeYWLcJ+VIELNcjNYDUcpvKDoAIKS4DkQmAbG930W7PwObXW6miuGQKcut2rBSD4Sm0m/vRy+fwR3/9Mj73gy14d9yHUZfpNNxq9WmhRNASiFrAuLRRxEioeGQkVkbF1b0KmSO6Xi7YIwhR7cImTRgyEIEGSRCtoR0AydWnQiZT9uOUizMLPMzasMpN5V7f3Gb9Z9FiPrffR7u/jhNzDfzyvSt44gRwYDZjuevMPgvXapA58ZlJPjo+MC9vW/X5ejxp88AWyI15RxpEdoP3sg0bmfTgXLPUAFLLbSpSUX3xq2a1G0T4FU8yuKTxvcEAQRAa4NAAyhaBZWHPDJPxM83f/bRlfEWee2EDf/nVb+O0R+0LZtBM9PFOEXuxWWdD/ICtjnloDGi409yeN6JJYSmYZQSpsMyj73yj2cCRo0eRMokxYeQWruoKQFjBXH9piojhqDslJeso4PNKaPR+nzpQ105jYXgeDy638YsP3YkHjocIPVofrHdntMayWMbYQ1ceoo0ZmjrlLJVkGKPJerjqlNUJxRb5jusRQELz1gQg19eFWgNILbetCEDUpHaa1Q6AUMQMeCnqD+FSqSx+0eMkRousQFoT9cgqsgItftEL/tbHWsO8z75wGn/+by+h7y/AjrQ6l0fl1kI9VEqHmmhR7cYNgga1WORBZov6JAqNzAg4GAQmvCiP1yMrK8hYjzin4eD55rgCkIJgY/ZdoWKrqzS3aBKx3nLomk2HWIzW8fihNp46vogH7nAxR9zSY6mecu3yMiJcon4a1sGzoUEjlcunZWmssBzDjFuqeAbrzvprwl3EU9pjuEVqVgNILe9TUXO6UpOaApFKqqTTsXSfepUwxOOe6VTM0MZXXjmNTz37r4iWH8DbG0AzbRIM5rAeb8Pa0+YXn4ChaeyaE+JIlVmQVkoTDPhUSZo0OX8vHzmMsNGAx0CswjBOkaofhUwkCB0MehfQnpmD3WxjSDIUXczQjDdwT6OPD8z08YmP3o8lP8JcQ1PpBTiarVzOS6keQ+RC8GAZ/3IF1kOgZvaHEeJIRwh4BFBZX8IT4d4UrFyX1ABSy20salL/t1npTMlGJIynk03FhAFE+kNNKrClXwjdOfSTBr75+jY+/ulnsXzyI9hcLdC9OMTsoQPY7tFsaLPMNpVyg8ojm4SAYVbrmXSiyo/e8T0cOXYMaZYb0FCfhkMGohEYkypP0fJZTpaZFeSzXheLVoxHjszi6Z9exBMrTLO9hnZAsygg27EEHAGVv/TdEAgIsiQyRQJNAhoThao1Vsyi0dQPMSYTSke1EnzUjSoPFG1AVb2na5ObASDqu6kBpJYbIGpSO82qOqriqlfEyHRSxaTyQ17sJzlCz0HI4zxJCCC+IS669r0LwO/82RfxI38PsuYCgsjGcHMd2OOhs3cW8domLOa3XZoezCe3+jwhIomVkFUsLR9EQJPJD8qxlZi6ndOUkUdqSNC6eCbFAkHj+GwPj684+Jm7Ahw/EKDpshyaRDJrbDsg7/DK55C/CEFKa8EKkLQksvpl1OshuHB5E1kzOy9AJ1gf089SXVBJJXyUTmTXx0FuBoAMBoMaQGq5ATIZsSi1q1SPKlSiS5dUpLqg2B5jSBXt5zG/3h20qEsudc1Mw2GmmGly4sB/0rL57U9/Hr3mEjbeGmJpaQVr66so4gE68y0WVdA0cJHL30J51aESNhG0O1jcu2Q8T+V7rlEao+RUajmwaybtIvM8dHgGv3Qv8NBBYN6wiB4ymj+xtlkI9hqWpOoKC5yi3O/FdQQKYlACAvV4hAz8xzQKRkqcoGhAWVBTpjYnZbepNmYVuFsbQGKi7nA4rAGklhsgFYBIpBeTXztnpTwlgFzSJ4ku8os8olLFLMMeUeF5US7f0ikYBY3QJUiM/A42rBY+9gd/hbPBMkbxHA6kixj0eW0uQRIW5RBtwrs7Iey5BczOL5o5KusXLmCuEWBPyzMmhpP0EYxTzDU9HAgifPzDx3G446BJhqK6mTkuxBBmUX+nYUJ6JoGI8WCleeKRUfjyL5UHqaUlpeWxWj6ZHsuM5jA2eSbnxFNkAGnsxayDrIu6o6YvyxvtOuRGAojAQ+zDdILXAFLLuypqTQZAKObTWyrbNIhURxWAVHEpY/TiPs2LBjx1NEonVYxQxNY4R9kpOuIXfqPvIW438cdf+A9886U3sThexlo3xmqb2jjbpCKqj4EZWzOYnZ1HyDLtPEXb4b2jLVjdt+EOL2KpUeDBnzqEDz1yN07uA/aiy/pofkqTxKVtFF4iDEtZhZaaNyusPpRCIzysoGEwokl6UKfBxxCvKdMpCBsEICqrKk+XVKaK07YxZnRGIk/U6yMgNwxAKvBwHHkQ09w6ffr0WDtdXW2Ng59UagB5H8sllJDWM6Ji6aeUpgKRKpGou5JIV6ZBRPvuhtq7UbNtTU6mJyilGrPlN1triM5O5tIkzKQxjm+9WuCZz38Ja40FvOkuMNkctZNlNJpwyTo0CDOmLTPub2G546KTbuBwI8XDh+fw5PEl3L0INGnWZP1NAo0Lm1RDjmXZ2DZu7sJE13YIFNqvlk+iEylpiWqtvpWJyaF+Uk1lMfWWG2t5NHnS8mkvB8yd96J0Oi9QuU78eNcBRB2m/X6f/wepAQ5NJDQAcurUKfOUUvoGX/S7ASQ1gLyPRa2p1BtqAw/YnPSzUhL5gpaieIeF7AT+Fd/nN7vIt3kYkyob7woGfdlDZCQhmj8jnR0SPXSctoG3meJrZ4Hnv3MWp7fH2BpQieyA+bV5Ext+OkCYDXDf4UU8eGw/njwR4hiJSof5gixBkGrImIV6HbKPMZWQNj7LDkLfrBGSkWEkoxQdgpLxfDOrxzO9O6EkqrpwQwAim4TmWPXsknJivhIxT/UaJj8FlQp6csKeAZHrkXcLQAQcURRdKm8aPBRbb7755jjny1BCdSz5vm+CEpSOPnqkn0xqAHmfy5RyVLIDG9VRKdOt69KxScI/pmOggh5qmdRKThOXF2F+6/SIBYgTKIcMnXMDYFWb5vGERlcWiT/7Z8vJa5WC6p7Sd2MhmWFWKT6vGkah2u6+2e56SpR2lwg8Jwl2SpiMPk37wVD0U2kqoDH4Ux5es1wrgAgHsiwjPuZIksQEAxTEgQo0qmAYyNmzZ8cCjipUQKJ4d6huMB3XUkstt59UxGA63h0q4JgGjd3BOn/+/CUAEShcCTwUJLvj/09+3HS11FLL9YsU/seRKt10/E7BgMQk3n1sfq+urhoAkaJPg4eOJdXvKkzL7t+11FLLrS8CgWmpwKIKkgosFKaB4/LYxv8CluRn+ccvm2YAAAAASUVORK5CYII=;" vertex="1" parent="1">
          <mxGeometry x="110" y="220" width="59.91" height="50" as="geometry" />
        </mxCell>
        <mxCell id="bRRKJH2Vn7t5-3kJ36dZ-6" value="&lt;b&gt;AWS Account&lt;/b&gt;" style="rounded=0;whiteSpace=wrap;html=1;fillColor=#f8cecc;strokeColor=#b85450;" vertex="1" parent="1">
          <mxGeometry x="365" y="200" width="120" height="150" as="geometry" />
        </mxCell>
        <mxCell id="bRRKJH2Vn7t5-3kJ36dZ-13" style="edgeStyle=orthogonalEdgeStyle;rounded=0;orthogonalLoop=1;jettySize=auto;html=1;entryX=0;entryY=0.5;entryDx=0;entryDy=0;" edge="1" parent="1" source="bRRKJH2Vn7t5-3kJ36dZ-7" target="bRRKJH2Vn7t5-3kJ36dZ-12">
          <mxGeometry relative="1" as="geometry">
            <Array as="points">
              <mxPoint x="220" y="100" />
            </Array>
          </mxGeometry>
        </mxCell>
        <mxCell id="bRRKJH2Vn7t5-3kJ36dZ-7" value="&lt;b&gt;terraform&lt;/b&gt;" style="ellipse;whiteSpace=wrap;html=1;" vertex="1" parent="1">
          <mxGeometry x="180" y="245" width="90" height="45" as="geometry" />
        </mxCell>
        <mxCell id="bRRKJH2Vn7t5-3kJ36dZ-8" value="" style="shape=image;verticalLabelPosition=bottom;labelBackgroundColor=default;verticalAlign=top;aspect=fixed;imageAspect=0;image=data:image/png,iVBORw0KGgoAAAANSUhEUgAAARAAAADjCAYAAABNe0sWAAAAAXNSR0IArs4c6QAAAARnQU1BAACxjwv8YQUAAAAJcEhZcwAADsMAAA7DAcdvqGQAAMKySURBVHhe7L0HoCRpVTb8dHVVde6+ceLORpbdZUkLIkEUI0GRICoqKugHxg/FiOEzgPCjiAnFAIggiihBkoAkQZCc0y7LsmFyuKlvx0rd//Oct+vOnd0Fd3f2zsxd+sycW9UV3nrDOc97zhsLx48fH5PgeR5838edQeVyeXI2pSndfhqlIxR8Dxn/jZDwbwSPZyUUgXER6XoMvzaLOObDVeBgewy/WcCoAFyzEuND10c4sgZkUYJqKURxNMKgt44k6iL0R7hg7zz27Wjgbrur2MP3m2MgHA5RzRLAZyDlIrIsZfgJRnzXKwamG2N+fzwuIAxKFs8C3zPSMT/n64nHb/NUKVC83VEPjOwR3cGYrCOocwxT720EwfPTpSHTc2dRmqaWDwVGTCys2DgKQIIgmDx659AUQKZ0OpRmI+qXh5SKJAApjoYIeF4sSE5DxCMPcQTUKWbHllZRW5zFu754BH/9jo/h2LiGoV9BLyWo+AHm5+YwMzuHYkDgGafU0gSBl2I8aGOmkOGee3fhoZfuwGUNhsfQA4LSePAV1Kr8YLBApa7zFUIA9TEQAPhU84piKXUXoDnNz4gFA10mCV702AYQsIJGQeChd8SOBC2sunksbNzRK6rGBS2nQ3cmgOSUJBNAZdnkXFhdXT2ZojuJpgAypTtKEkbqvtXgIx7Ho5QKlcEvqtYzFUbM6x41rdMZYlQq4y9f9WZ8cH8bNwX7cHipQ4zhAwQMFKiGBJHG7DwWd+9CuV5jSLRGhl14WYzSKMZ8GOCimRlcsXsOd98FXEwguZjfqKCDKKMlkvoojkOEDKrAII0IQM78kOIrdlQusgwiAUBd8cuNjRxEJscJ3jAWYzs6zs9Zq/MYTI6nQ1sBIKIsy8wimQLIlM5JMoDQkVLppwk8atzYo/sgBc61ivdknRym1v7K81+Oq7sVtINFdAt1BNUKhr1jfIAKlPBBaXexhHp9BjM7dqA2N4vIG6PcqCKo+FS0HnrdNQOIvYuLuLJZxmP3AnejsbOz6ayBBF0GFdG7KdH+CWgRTdyOouyjAoZybfic7KNA8c6NDZGAQ6Ax4VuzQ+h82VFX6SQwNJ9/Tw9CtgpARAIRWSPFYnEKIFM6tyivzSWUYTamjlLrpHjkhDom62Nt0MWaV8EzX/TP+MKaj2j2MnTouoyOHAeqARZmPQzWTvAlD43aDK0ID91+hAYBYu8ld0OxGaLDsHtpjBGtCp/oIVsiHgxQXu/gqlID919s4H6XerhkN1BjXGiLUKVjAohclNwUIU7xzdiUvWgAYq6LIi9mnEUbwJH/dgd7S98tWChmc02uKqST37gjtJUAIspBZAogUzqnSCqUUanMnKdkSiFz3criGCtEkk8u9/HLf/lydBYvQ9w6H+39K7zpYfaCizDuLiGMTyDurjKMIkrlKqJ4hHZ3IMFEuLCIy+5zbyT0gUbWKKhWFdb6NHlkOXijDMUCLYt+DyHdpysWW3jYhRXcfw+wm2LtZQynKIgbMXSf/6jsskgEAfRb5JrIftA/tW8oHUrCZiUz4OAFwxO1j6htRokck2VmeYSpDX/pjtFWA4goZnlMAWRK5xQJOtROITWTXeAJPCYA0iMQHKAv87MvfDVu8udw5BiVub4ALO5CgebJ+MQq3YwUpdEyamWqJ5VwMEyR8VisVDGgpKfREJd/80NpnDD8ItWfCiu3w6wdhpHw+4f7XRTpClWKZZSHEXYlQ1w5X8JDL6/h3uc5t0aWSJkRKxuy8YeORcVcTaMiwYNcG7EDGLu6ARybmBaIgYfCEKIVCUrbAEBEUwCZ0lkhmb/q/VMtlqYpqtWqM4tpAWTSHZ7XiiXTKUQZUi/Ae65dwrNe+SZcX9qFtfKMUzRpIN+Xu4I0pPKmtCDWeYysch/Rb7BWBtXsUk61vs7P4G5XXM57IwQEkvEgplvi0QKhzeCH6I59gk6B1k9Kt2NkPSzqCq4QZOaHPfzyo/eCOIIdjF7N9LzPaETwaZgU+Jy6gR2qCDiKoCGDwYDxYhrKFTlEpFzr7KhEivnD4sj3dTwNmgLIlO7S1Ol0UKlUNlrzRdYwR1BpDzpoUNGK8RCDfoJyq4U3vP8r+N2XvwXp3stxyKsi1VgMdXUQcMQFankhk8LyZzGmZOu67uuCrlIhVf3zUx4B5JIr7k6Q0BgPQk4U0xKhG0PE8Ysh8cq5H2qbyAg4fd/6geBnAVpxhj3DPh6wp4GHXA7cfX7S/ctnK4OIlgnRYqObt4BBu4swrKJIV0pjWKJOD6V6Sw84ynEibzgx4Dg98BBNAWRKd2nKxxPIAtG5rBBZIM1WE326DLJOfNbeAyrTX77+E3jLJ29Cb+5iXPOl6+HvnqdiZ7QOKLrWMilLpYAglQNCtScImAuQ8hu0GvzUtUSofSLjO5WFJi668u4Yqs2iRIBICThFWikEkLJPQItd749aOQpUep+A4to0xrSEKN+zVSwdPgZ/ZRXfsHMeP3ifRXzL+UCTMRkTRIqFBFHUR4Ug55suFDBcaxMbPJSaAg+BGVntMDyftIAYzglK5R6ZYXMaNAWQKd1lqd/vm8siktUhIFGXoICEPxCPMwwJAB1K5t++7oN4zQevRb9+HpZjqlWVlsm4b2onwR2N1VAZWAUeZHRbqKSJ52wCZAQQDSjTkU/JZTEAmWvg4ntehohWyij0MCCAaOSrRmQHMmKyoQubYXijIkICSJEXBEGKwqFuGw0CwY6wgXq3j/nuGi6qFXDfu+/AvS4sYi/FX0aI2kbTwRAhsaJWkU4wfQQ5N0aFPwki6n9hDljPUw4gelfO2enQFECmdJclWRo5YOTui0gK3KM7USyXcIAa9f9e/j58eP86ksYOrLHGR8lDY34O3YEsDWtiRYHuiz/WaAxaJHw/K6j9QuDkAMS5MRLxCXtjlGaauPsVl/EXwYVANZILw7CKtFZQ9rDmDxD5sg1kdbgOXI9AFRBIygxzgWDjE3Sy8dCaXiK6OEPaSxHNk8qgjR++z17ca4eH82dcF7DAIKCJERJQCikBpcIrGplKMNNXmGIDEVkhUwAhTQFkSv8byfIQgJRKJXNjJPDNZtOGg1+9CvzJq9+FT3d87I88pH06MjsWUEz6GFOBs4Q1+Nin/hFCRgmCsRyd1AaXpQSEcYFOgEaeETgKAg8x70lddQxbLVx2xRVmkfgEnHGU0m2gwyQAIUitBTFiAohHQFJXb0KQK0wApJpmWFAYBC3GGqtZjOOMc79YwzicxywBaubEl3Fpw8MDLr8UD7jUwyLvj3rADN9bILZ5/K6ZJzKbeE2uUkroEPPn1IWZAsiUvhZFkXpI6C4EgVkiEnZZImEYGnj89N+8A+uNPbjh0A2I1Y/bZD0u5a6ySk+oYhqqKrdCYzYIIHICxoWElwhK3ojnUkMqqrkvPPJdWRNq40g9WhGzLVx8xT0Q8XzMOAxj2hjq+eAzQZHARJByui3V0IlaT3jGizrGdENSqr3C8xj/MAyMlRaBTky3psr7pWgdC16MB16wG99xrxlcQEwrEzvqCpzxdl23JOshklsj+0Pn7vLp0BRApnQWabNIOGnOr9xcWDbLus51nzpiJHUwJaRSnfJmxtqXyiaFUetEl3o05s9PX9fGr//FK3Fw5t5YGZVQr8UoVTRUPEOvH9G88OkTzFI7+IIaR0cpdVs1uUBDKh0TQIQY7ptFAxAe7RKdHF4WgJQIIBddeQ8MeJ5R8QcJ3R/GR9EsF0OEscJ2qXHNnEqRwGeEpEi48os2IlZulJpMynwxZBwCflvpWe1nKBEMG/4Y5WSA0mAVu4MRHnTxXjzkbk2cT/9Erk1J+KFsyceA6IfibhnHP8oU/cgzWc9OSG3Hkzfs8Zz0qHgKIFM6S0RxMIWfEGtzp0ZOWHNwyMmBxIT5gPSOqm7XZYqPhnQvaOYXNU1eloHaJPQga/5Bd4ikModeUMB7rgOe9/K3Y6VQR5ehpVQka1qkYipMxQF0N/IvKgjV9pA7wLtyT4wnbQtyW9TLKytEFogiLzXVmI6g2cCV978KAypuzOd0XdZPRiCRBTKmm3JSKfmiMf8yXH1Nbo2zclw8lDuKi7NY+NuAkUCj5xmQYhcQNOtpjFY8wDdduA8PvsDHVQtuKYESMdC5NFR6AiGySQ5mJSYjRKx000JRfhLzGFl+kbcFEYqP2kvy+Oq2YCeaAsiUzgqZUkokyFKSCYBsqiM3yKmQE16x6S0vDPmgdNaTQo5jhEVekO5bKDrwZlCivVDGOn++48tjPPcf3oLV8l6sDmhVhAIOadWtk9aiyEmuUE7unLwBIFRwfksAYg2susuI+q06rrzfVYjoAsVkQU+J8RlNACSVVXNKSm87CWQKRC4NREvUtmGNugQlBhcQPKsEkQXmR6l9HFfOl/HdD9iLe2pMHDOtOuqjUmZGGcgyouphYqQT/lYzjrlIPl0sWkFKS55DyvuJrbJRJlMLZEpniSgOknZJxQRABBw5eGwWllxg7bjphvBhGFOJGE45YM0pH4JAYmwvlNFHCWs8fctnu/jzV76ZVfFu3HRsFbW5BQyoHhrA9dXoXAaQlOAQ0V1RHILEQ0C3y5/M3lUjr8avLHWP4cILFtH0aYEdvQlXNEJ87/3uifs2aI0QO5t8TgZJpLj6A1Q8XmR8ZJn1GU6p0DA8rk0KRp6O5YgyXvEmwAwjWTFbTyr7KU1pE0kUyaakJpZG+a+cJTg5bzyVyy8PGs0t8HCL3LHGjKkRBBU5NgOCx2Fq88vffxzPe8Wb0SvPYbk3wN0v2Yu0v8QwperbkwoEqiLdqiJNBzvSTpC9MC4QFAkqMZV772UX4kB3gM+fWMdKbR6fXB/h+W/+AP7sAwfwMRoONzLPllgHR/RZUoLtOBMAR+aqlAsEOh6VQ7L2lPn6pjXKjgjQpwF+d4SmFsiUbkmbJYICqp+OT95wIDL5nV+2I//I3hZ5hh60yDXoa4QC0WTAt/ZTxt/8sWW84FVvB2b2EFcKqNdCpO0jCEsh3ZoyYs1I/Sp0LlsgAj918artJqIbEjO8qKiFAJhbBY1spXW23sVcvY6qTzenJ7siQbXC9KpNptPBN9ztEtxvB/CwXbA5N3WCUNxdslH7CCrwqi3riFIMBSfljL/SCeiqN8kPaIHIatl6mgLIlG5JmyViAiD6mwOIaxURTR7UYfM7CRVQA8SotOrqREBw4O8ebx2krP/ze27A37/pvahdeC8cWx+azAdUiVphYN/rZiGSbQogPkGgrEl4DHVAa6MfeBj4GiimaNGlGXkoxQUb3VqmfRKEIWhUWINoO46QRD34vTYub1TxoB1N3HdnBRfOuol7Mww3pCVT4DtyUCJmlqy9ugBLI1x1VL77ZQzVU3UGaAogU7olbZYI01VdcAByEjgmD+XP2pF3rX+RwstaF2nESpWqVKlbY+kHbhrjXZ87gH/5r4+h0NyJ9fUO5i84H8sHbqBn4+OiC/fhhhtvouFSYTB8/6vQuQwgajHSwovqDYoZD3X7qutYRpni4xNAWmEd4z5BxoyEIuNB14Z+iVfx0aoSEJJVxP01dCNaZgSLK3a08OALanjoXlokRIxQbUn8UloIDJgUU1kixfEafzCVXoMAorC3nqYAMqVbUi4RG3qqC7fGAgweRAIOe0Gc3x9RGYtWA99ISX/Jfx7AS2h5LF5+FU50aG2kfVajPczsWsAgGiJabiPYuZtmfe/kp2+FzmUAGfHbatS07mTGQdaahnZomr8dGQF1F4e0EvwCgZIP60tKkXBX1tuotx+VVgVpc4E/xyj21rGjGOGeC8AVcz4edY+dWox+Y7i7QEShlNHhmUKTBXLH4n97aQogU7oFbejkRE/d+AY13enoWKuDafRogf62aaU9zKPGZVCJosEQxUoNXV4+wkvPedkH8ZZP7Uf9wntgpU+Rp4J5Y7WIaF6L1tzw+brUgi9kmg0rbbp1uiVoTCgHEMVVVT6DkB57PNdzSoHiFszN4PJ734tOE9PBz0U0/8sEEA02M+zZSOvtJ1kcfZ/5wIDK6QiVNEMpG9G1UZjq3lXDqFacL/KX2kQCujU+/NSnW2OvMQxGXUsSeH2CZcxrjDtBM2YeBTRb5tIOHnreDJ72DQugd4NBZxmNepUxriBORiiFBUTDaS/MlM4WCQtulaRUNMujCEX57n5I15uKMRmGbQpK5ej2+sSCGtoM5xCV4kd+5cX4yPXL2H3FfbFCK8O0mtotlaaRQPDQ+wQQuS2brIttSQZCTMtIwDrZS8byhm4MkybLZKRZwJ6G3dPa8GICSozMjxD7KYZ8rU+OtCQBgdlG0PL9QbGEtWAGx8KduDqbxcd6JTzz3z6Ij64QYBrzWO+PsbYeMQs1n+bM5eHUApnSLcgEQn8oh04UXe05uYPBoI9SuYJIc0go6D5dFN3p9VjrVumbs8ZPWRN/iV7Kj/7qX2O84zIcXKNTzlpeq6IPh10G7AZbOdBwAGTgISsiS6k47lu3RueyBWKAgZBMu41AoSH2KCRMWsawNcJVlpfgRGnlL6ZbSy4KJFLyyAadhTZxr05XR13BcdEBrXwjGwHL/F7vLqHiD7EzbeOXvvWeuF8L2E3cChLms2YHR3LDtp6mFsiUvipJZm+NKlpfNEoIFFQDCrNEVaNPx4EGOvGc4PHBA3087XdegsKOu+FgJ0G4sBtepYReZwW+dWpKsfiigQfZFIquzZg16h1U3nOB1M4RMi/EAqSxnDRaBbG46M4FFnJJ1F4i1hybyM9ofZD9hBaZmNeKRealRrLK1SkgHKd0dzLUazyvLQIz+7BWvRB/8u8fx9XEjaP8fhTQcjmDVtwUQKZ06/Q1ZFBK4fkBSpWygceJtpb+4yuU3WVeeNs1HTzjT/4Bq8E8f3so1huIB12MsyFCX3Wzmi1FE6vDfvHFEYGFXLD2gu1KtHbMglGviCblEUyYOX5WRHFEC2IcWBd15AUECDdGRL00ynA9X8rGqGgSIK2VfhiT6ZYU6DISdEe0Zmw+Di27Uh9Y4HExqMPfcxF+77X/jY8xCw8yT7VPzZmiKYBM6XaS1F/qIWPcvARUGm7AmBr+3/7+6/CbL3o1xufdGyciN/N+caFBx36FBsYQlVrVGhA1P8RQSmChcdujhAqUmsm+nS0QR3RXyHJVHIi47lttSKUVzgo2tN2xx/OA4FJKC6jGBdRohJXTjKCT2EJJJ5caUkOzGmDHWF7rotUE2ksDy771hNZKfQGv+fABrPJJ9cqcKZoCyJRuQWoHEN+SpNoFxPTNtdp5JLkmacjHUhd4w1s+jje950NYCvfgwDJQ23UemvUAawe+hPP2zthEsfXegEpQpvtfci9TSbzRkMoSmcJte2LGCWINQHgUgGhzLFkgfiawCMghwrSEclIiaISoxwGawxCtYcBzD6VRigotsdkoxkzkQNXAg66PNu4eV8ZYR4TGRWV87obPohoGmKvvwaGVEj65Iqg5czQFkLsgSfdzPkmTKxTok3zy8im86VTCKGtDq5K7XWqLtpJ5Set6Mgzd1+iDf3nnx/F3b3k/vjIsobb3EqA1j16ni16vh9m5GfQ1ZFtrbgxlk0jsnOuSzx1xjaYaHO9EUtdvL1uabka3BoS6lPPNibh4mkQXpiAXLXdl3FfMSeGp2kU0PkWgovOi/aZ1ovPJdUdjaE6e1mJVpNwSAu46PR/be+rQiQO46O4XwgsCrK4PaQFW8Y7/PnRGLZBpL8xdjEzeJmxCa8xfuXJtKBnvmESaVJ5C3V6KKt0SGhoY0rsIWZy5Ksi71khL1bCqYw8NRvjbN38Ar/3QlxEt3hNr4wqyRGMQ+KJMcLolzgSf1MnWaJrXW4qXc1nELmaKl1va77ZQ3guz0RuTvzhimPys1gQRuOi+GUzUYl+9MPe5l3aOYXyAKElQDku85Xph8jVGvhqd0vNzK3Qy7kpLfuqubn5T39JVx8oD3Xf/dObeoENkDa66Msk3O/AZA16lUc/K7vGwc3gCf/TIi3FFcGaGouYlOaW7GG0WzFMol0rRyYdO4eJkKr1qOv3WmKRM8sqfKf8IElaJD8cJJ3/2qjfj9R/8PMoXXInldoTMNntyvSl6Qz0ISSEkE3ast0WXqaDGClExNGOfR92/7eBxq7QpuZYc/nagYJc26GY/T/7mSze/d3sp/5xBAT/ulkKUVSJgOsluTIi6s0d0T8a2AJFN+Sdg5N26YoMHgpusNLGWVzELRqsKaWQr80xzfvWFiPn/Ke06foZoCiB3MZLS5ILmzHp33WpAM4MpkB4VVvMzWPojVmGbWYNKw5LbTU1haQFxbeFYSWPUswG8dGDgccIP8JQ/eh1ef02EdPdVuP4rh9GaCeD3j1CwBR5TOhs09Cr42NLpQuBtpymA3NXIQEO1e17TSZhUOxWslhK7ZYjFshVY8/FuSpBIeaa/HkEj0YZPWq2ctWOYduElPRTUWhpUsL8HPOmZL8O10Qz6c3fH0aM9lPZciKi7hgodA+eybHcSfG4/jll412lDnTNEUwC5y5GERwBCJRaYTK5IpWk4TEDDnU+WuuHTmlCmRYnFatsASiUfgUc/OlqludxFMSxiNfHxiaMpfuWFr0Nv7nKciGsYRPRzai1Eyyt8RltNyxWRMG9Tsiy7pWJuF5bLeGw4dWGmdFpEAKHlkLfS5XaIjpvZwYsekcq7vhaxnat1TqtcSULqLcR+E+/+wiH8wd+/AVevjHEsDu061BujRlO/CK9cR1Is0a+fitXZIpWkhuifKZqW9F2NDDQ28USY3F+BhWMVvJosxWor1ewNsXXUjgY0YMh8ahy2sFqo4z+uXsY/vO8afOCaE/DmL4DNnh2sAWuH0NrZRGPHAjrHV+DP7OB7k8bSKZ1xEviX1Mp6hmgKIHdFylGCqnyqpXESOAQaYm3p6JO1ToVbyIIXBTy0KKJSC8u8+6bPreE5//QOvOczB7Hjqm+yVo60s8ZwYlRnamgfOYho2Mf8ZZejv//A5NtTOltkE/XOEE0B5C5HuUOi9g0drTPRRCoHDnW0amekUS+Gpx2SNGyjP0Z0bJ3uiIek00FSKNvkrBe+ez9+55/ei2viGdQuuheOHzmGcbQOP9Ds0tSt/l2tIY6GWD50A90aTUM/czXgHSGbmTtizmw65ufut5756uwQ8uzxzeOhfWhy1rII6cZSQ1tPUwC5i5Hkyo0LyFsz3FUVdG51ZAPe1UI3mo9ifbkBQWGM0uxurB7rwmvuxv5hAX/9xs/gn9/5MayXFjBq7EFvkCBozdk3cmgyGbbwKbZaOVxD0vnl7U+nKu12YVUVZ9KFnALIXYwkQBpurqHnUmuZsxqK5FPhbR2KEYGCslbQKt4hi1+yRpQphDVkQ6Cxdyc+swb8zVs/hjd+4FM43ouQjRmikKdcRtLvI/Pcosdq8ReIaMKXP45tEymfVsn2nk27vcmavvjvTNEUQO5i5GqgfE5J0YRJau66dVPHgcxeKrn0nI+tDEbIqsCwBBzm7T9//Yfw7x+9Hu1xGYu7dhFnMoLLZCUxmR+aiCG24dkCJhukbrfyLR+3L233+LNoziCATwHkLkpSARWuGxguANk0CqSQolgqok9//1iXFsSChxsHQKcM/NbfvBNv/swB9Jvnwas20e+souYNEcQEkPVlYGGegdLHLogFT2ptceChQUxxIbxrdONqntA2ZFUfWgbgTNEUQO5iRDEyduAxKWAChZkbskIIHqOojwgElLKHsFUwq2NcA37w1/4GX14nkrR2YOBVENHKGGRjW+M08CmcVYJGV1sHaKi62jkIHQWf7gyBQy4N2Zbk2/ZilefidmSHJWeKpgByF6QN8JBZIOywZnspvABkhOX1JXogAbq8oo2eEh944jP/CsdpORwZDFBrlBEvH0c/9eC1dmMwLhk4NAk4WD+MQkYQGWmbKP72ahh7LXKDYcut4bUzKMBTOpXkwmrBpjNFkrM7nzQTS7WeOcXuIPHdZETzXNOrZfrqjp6YHHKeXNNf6YCeMl0gn7w6ueIu2sFO7SS/fzPWdWO9N3mRpLsTFcuDO2tk0Scrd1xfhzvbiKG1Z/C38liLB+cvTE6Vz3rSyExbIsSYym3dez6aMzuwf2nJQjw6GOFJv/kXWCpW0K0tYikpYmWNAKFNbYcRhsMElfmdiNIR2ksnMLc4Z1sLeOYS6WtCCwksOa/6eFlnd4RPmywgRUD5pvjlrULussWNLHB1Ew71iruhmbFao9Qe2qbsUnun5ORtoq1ZD0S7savDUHv2MS2syJDoyKv5x9TV55aoUSu+z4Lk85JoPtDvtFFt1flQEe0+q8iij1LJefNpEqMaaJFZhpbpBQbOdzVVXOHrmcCqXvn6urApeTo1hdIPiRTZY4bTl9e7YpFU7cxh+KmkqLlsyBXAtTG4ZlHesUtKg3iSBtU4lla1QwBLdDE8WgJzzFftNRKvRwjrrixWVlYxs2PWrI+3f2E/XviGt+Panoe4ugtRXGXCyanWkuC3rEGUJEWzOOQxcyqpvV4tUHuOETPQtsw9Jdu3ik5ZlyM/N3QQwPJIEQh46qeML39aGfN+ONuyjaUGowQx46wphD4tsijTxlIB/FGR4DJJ+3YjxjtjxfKJR0g2tp625ism2JMC4MEthrLx0z6q/gGx62jkXRW8blImE2qwVqpWwZarfHrcRxwPMMpim3qRsqDVMak9QOGX+GzRtgbUFiUSYSfQfC8/nsK6Rs4jNPns5PScIBcfF0+nuuLNxJgqsptZNEmWV2C+MSN13usPETZKGK4naK/GaCzO2gpir//wV/DiN7wH152IEHkzSIt0QQKCNi0N5Zt9mcplbCEpDtoMyUG+frv7Gb2ilKyBZXqHd/L4nA1y2TbhPCIuXhs0Od/I4Y17PLEfmx/ebiSJOXPxl0bd+URzGNoYh3Jmq3XzEtUdvAqKKOqU0QpvaG1Ib6T6XvZIRkFO0CnESGplnEAfa1ji1RW0yhGa4QCVwgAhhXbYT9GJiljPCmgzrA45Fp7okzy6ylkjHwLWOid5bD0HOStGefKdagSqiXg8kwVwc1JeyYDyyQ5g9VeuR8iYMYHWzsDftpMbM1hT7HnQKHRZeaKqVvZmikeIUGoU0V9fQ7kZoFoO0WGN/PIPHsKfvfVD+J+buszrC1DMahi3aXUUZHnINsltsW1IKrpNFprUScsBZlr/RBUKWbc3WKXNo96z5QbPXtFvS9oSAEkpzHJbtLqSDF45FyHtCV+1lFvSyrE8HStsRUN+vhaZG9qxxKhV+Vc1aTbsI22z3iRwyI9vVKtUBirZRH+0u6La7mSzaEp6HnR+zNl+S1hE+VEnrDkFYQ5ANKbhLEqRKQCZEdZyfEyiRVWC7gaI8UoOHh4TLRdMec1nxHqyzhdG/XVLy1J7CZXZJjK+0q8B//ROWh5v/m9cS8+1sPNyBLMX0HQnOBF0SjL9hVUWge1KKk9lgGTK7IvJCl+8pIy0hZQcaNhIXd5T6cvm8vSP72n1ryndNlIu3+k0IGt6hcRQe596tCbkhjierFZ1Shmp8GQBJKiRw34b1WjImpQFmlVRDPbCZ02J0jwDpeIwYJ/aUuJRq6/KhpHyJ/xqJ+7Zd8XSxVwfxRtgwm+bjORxsAf5R+a4PaELZ4k2R5icm9f55TwNOe7q6IByxH+KPx2/fgeVcoC1I4dRrzZp1Xk4yuee98ZP4Z8/+nkc7IcoNi/k+3N0ayKMwgpKrRYCKlOJX1Lj4rYlyyhlDJkZJOA1C4Rs0s6D8sxAhUDi1hvlBd50ixoLQBTQlG4LbQmA5PLvioVndDusZ2YyDsGWmlbVKndjUsXqWdcuUkSz0EK5MEedbtIsr2DImrbPZ3vkdT4nd0VWjqwOhVscDwggES0Wj65OJZcTO25mXRM5AeK3dcEu6gcPJnyT49mkPC6iTXHJL+dRzNldcTYK1QFBtYJsrYvFnRfR26nhIO8+63UfxOs/fx2+2E1QqC+iFLZokhDMhxGKDTqWpRA9DVtPFKJlyvYkFqpWPTdLgqVu+9Lm4GE0yTFekgyYZWLlLwBxq6Pr35RuG21JL0xULpslrDaPgtbH1FZaEnIrSG3VV0ZsBrYrV+0QUhTAZHxW3Y0FH13GaoVmzA1LwNUHuzi2RqukVsLeHU1cti/EAgNf5KNar9NT+Kl6a2TWE10KAcUkcILAcJRAsSmeu2QiIjb8sgcmAKerFsaGxJ1ZUiQVDcVJkWM0bKHdyaU8zjkgygB3HeJqRZrMeVEY/TGSSg3XM1nPfv0H8c4vH0QnZYaFMyj0PFp6IdI0QcqkjpvMxSyh6RjZ1gtu1Kq+dm7TrfXCyP1Qr4tyRkMFXE8WWZWYZS6JLt3l978fupS5xLrCgZoXwh+OEPoaGKfuXPfotiMmVTOKP/4IScnW05YASEYAoVyipJAFDFrZytbY529aE0PeFYA439O5IGU9qwEifOYgX37DRyO876OfwtIwwajSQMwHs9GQz8aIlvbjm668CI964D1xv/NbmOFrQUoQiQUiCnACALa+hTREH3YkAFHDrkRJ39Ydt/eG5fzkIq+aWXsWSPGw7mnSpI1D2TK54uKro8WZLPRT3vIJN1bEx7Azgl8P8bnjwAte+w6869AyOuphqTSZR3wkKaASZ8xLggzLpy94qtXhM58zgso46jFYhXlu060BiKyPQA1wLMjI8kZ5QlbZWv7w2kwLV9z/KlqzGeLJ9g91r4RwwDwpUjZ9rSa/KeztRIz2tgcQvxwaNFhfukK3L/APkV1L2WshX9VxahDs0XLwxhXUaLLExIAvD4Ef+/v34Fhlhk+xwFmQrhYRaZz/iJYNC3j5GC6ikjzp2x+CR95zFjt5tyHF82LiVRueWlmleYIyCtR4IHApoVApY8xvuQZeR8pqAxHpTI4qZwk/3CA3BwgCkNwxUWOg/snNQ8LcS2l52TgMRtxnhAkEg4QAq/VJeekzR4DnvfZdeN8NBxDXFoiwNNlKNVomfYY7RjFLUU0y23ZRdsuwGGJIN8bSTktQ3bLnOt06gDDP1oeYW9hBYEww7LdZoYSsDyhFfQoYLazGzkVccOUVWCNyjAKfAEL56MWoDMbWQD8s0p6bAshtIonLnU4+tCYEYYKFoLYsa/csquVbiQr4z0NKQR5TUGt+BQPqxGHe+VQXePrfvRn763OI6k0Kfh1xpYpE08hL5LCKQdDEyriOwp4rsd64EH/xuvfjBf/2GRzkd9olD+2sjGFQRq+7btiBiELTW0ehVkah7PO7POdlsUREdZLYxOVsgcZmUhxkXpDlmjiodWupuwbpBMmgB0+7sKv4KPxxL0GvP0K52rIG7Hd/EfjtF78H773uOEp7LiZo0voYEpn7PfglWWfaDHtEXHUNiPqcrxraXBex5ca2JGVfqzmDlQMHMex1UJqlfToBxFad+UAQ6S0tw0tTer0RlS1DQvdN9ltBVieTvl2x42zQlgCIq8q1QcBksSuyRhhYBc8/hcRHs9hEPSN48Ia8jA8eAn7hZW/CtVR+W6dCXYqKnYEOr42qDIACIB7SkUlrOLTGkt55d/z3wQF+8s8+gFdcC+znozcxfL++gGFEpdDgkCZN97VV1twD+DW1uEgRXQ0rWRGAqDHtXCIXL4GIs0G0YI8ba5vRkKjixP79rE2ZQSGtOKY3bFWwxIx+39Upnv2v/40PLxMgarvRWRugSCuvVGE+9pcxpxXDNPyd6BrTbB/QKhuyVs6Y3342ILaQt4H18dVpjPVOG/UdC/BobUbrmreTYkSwGK6uoerRAqFlN888DIQXTGuUaM2TEQJaIyVaK1O67bRFAGLVKItSfQJOQSWypqM6EarwvrZJ9ajwb/1sF3/+b2/H2uweDJuLTsBj+h9abk8zvRIqPcEGtC6QhWjO7UZ/aZU1Lmsa2utHshIOhvN44Xu+jL/80IBYU8OX2kOk5VmMy026L1S8mXnqDMNi7e1q9Ly2PddILsXmXdqsL8GuuJwcobuygsXzL6CVlWLIS+GCb7uyf+ZQht//23/C54+1Eey7BM35XbS+6NKx1tU8uGJQpEHWt3YCobYmyMV+gD6vx/xcQAukTNdGe9VuZ6pU6OTK+h0SUenelZqsdHpdREtL2Km2njiGnyQImQ1h4KHoF1Eq0zIOA9f0NTVBbjNtEYBoNIF6QVTPsZDI6pWxhj9e7BMbOgSPmOX6L+89hle87QNoB3NY1kSOQhm1YYpWl+4NzfJw4MGL6cMmIWtSN7fDoyl+4b49WF86TMu8j1GthjW/js7c+Xjlez6J/+8/Po9Ba9bW9FzWNxsNghaVwnpXGAFrWMsB5FwDEeWac/U0AlUjUV1T84TGBVoTVcPXYNZHh4+u8PJbP53gl//8Zdg/KqF5rysRd5bRPnwYO2YXUaUV11lbR4X50F5pozjyUdTIMn1HvS60+DIqktoPwnTSdrVNScUdlAL0BvSHmSaVdbSyhBZdmYvP24dj138FFVZQPYJJIKuDAFOrl1FSmxmf7bOCmcLHbactARBNkdPUK6mBHIbyeIyQOitgVw9IQn0ekP/izdfj1R/8DLrVHTgR8WmPiMKqMCBYlGWWp6wZ6FsE9M+1SbP1RxQS9OMObjx4PXbs24XqbJNX1WpewPrBg2iy5v3AtUfw2y/+T3x2mRUPdeEYjY6YprrtFF2lK2QioqZJZ4mozt/IiHNBehgH5ZVsj4JBsGInpXYcVGoo0CCTa6gxMf/87iX87l+/Asf8GSStHegm68x0pjXpY0wlqdJS8wpVjGm9IahBa3ZoEJUatY0NLwgiul7QHrZ2YdtSRHclLLG81bhMi0rcpQsbrbexo9HEdz7km9AqhWhUK+jTMhkMhwTkyNpCEj0/pdtMWwIg6ilUHS/ZtC3e4yFRhX4LlULdsWsU+l//xw/irTccwvLMLly/FiMoz6NF9qIQw8IMOlSGYbFMxR9hVOyR20iDNuKwh3jUAXbN4RhriyGFpFryUUt72NX0kRw/iHFtETfGFTzvpf+BN3xkDZonBuEGTduTXbo2yHnCAhG7dPZJwCGdnrCLr6CYx8l5RBeExpkByN+98Rr82T++GtHMTnh7L8Ugpel+4GrM1VOEi2WcWF/m81SW+l6kvRIq4Rwy26KS5VJUmZC1PmpWZH5X0A3KZ3Q9iTudiLxllrMmX6LTRnl+FrN7dyOj21cPQzzzGT+MRz5sDrUgRL0coru+hmHUR5wmBE5WJMqbc0IQtgcpt+50EoZL9p3LzsLQeIyCGuy0ozvwe//6KXymPcLVBI7jSQGtXedRN4rosyZQr01c9BGREw01JgqNCiktd2d9qHHV37OTYVLoKRBpmmJAAUjInaVjVJDA3KNV1HCEIPT3//VxPP/NN+JaXuvQj1pqMww6VQIMN7NEu8QqxhOh0cFON05OUn5pctmSR7buZoZlvRhqgLQeDT60+fnJO6KbX97MFrGbGwC21AFr1LE6sAMCaQFD5tOf/suH8U/vei9mLrsHXZky1m46iMbuPagvzGPl+mupFAQH5kd7fZ0xFCgUMdCcIgtfcZxwRjBVEjR2xvjmEThzZPlARVZ3/8m15XVd44bkGpeZtXTvCKZF5nGRcmAtbc5kM+tpbXkJ5bCEmYUdyI4dRefGq/Gob78//ug3H49vvRfQZFasHzlMccrgEXDrfgk1Pl8sBkgYpqoWF5FtyGeYtmQcSJs+aBDHmNO4DL+CdEifk6WmIdVPf/Gn8aXO2Gq73NcWSAzVzau5+sI06qFNDTfFdH0Ryh0JlkmJBDz303lJjYy2I/3kORuXqdsUDCIMyv0+7lEv4akPvTced29WvusR6jVaRcUBklGMHv0ADy00Zd6rYVeNNp4iYSHrKyafFp0JyRjIJwtqXRMtLIxM4KH4EamsFtf5JJ462PPkyfHmJFdKaZZVtN5uo9mapX7zKkF2LGTle2pPPkhc+ON//gDe+aWv0BWcw5paQAkwQWkWiRpJi3RdGIaGcQu8pWxyh/RRWzBHjVHOvHERsbwUu28YqNiNO0oK5A6SxY/fJxiHdCkU95T+WsYKAQWy4tpdRlgPWA0MUKqwouGl9XUCo6Zie7w+YoksL2MuGKPl9/Dwb747nvqEB2Mvg49Y7Afp0r78PQfxxdDHEaazwPcMlNIAflHLMm6qUM5B0jiPr06SFeATj5L8bT1RYu580rwU1eoytQf0WYYEjy+2gR//o/fgaNDCWthAX8AiRaNAbICFBFvb8lkBaiCywEPkhLuQKwPDtQpHzDt6O6OyJFTalMeQ/q0nYdKSAvzW0K/jC90M//qpL+Pv3reEdrNEK6dFY6GKfjvFTLmFRrmCgycYyfLkc/qw+7jhhgBJoGH3dOC9gDfCHLh0QWXGz+bP3Brl4HFL1j/7Eta7SwQPjWVZI/4U4cmXJ3B0edjfBX7zT9+Mt338iziRUnnCOiPBSAc+AuadehXGtFhkqbiJRjwQLKQUIwNFWUr8jj4lsDPwECkWuke289MlhXsHWLIw0opnGfOc9iHRXO0y7p7il2B+3x7Ex46g3+8iUhtGp4NQbVt0v0q1ho1KvsfeeSwkPTz98d+DXyV4tJII8mRtuDrTrp4mjwXqjYo8d3NgrG3IlnlQXKZ0W2hLAKQcR2iVavDqVSzTDfnMKvCcV7wfBwcRDqwep8wOWET04AuxCbc0z5OZrhbW05ZfBjAaohivo0wFbKVDmqdFG9b8AdZKL/3CtXjuuw/iw6yweoUmWtWLER2jYnV72LmrgtVohbnCOCk+AitT6zG0YXGfYQwFcmJZV0N+a8CjGnaIHO1CiDZrwJEUXjm7iQU+pq/8eWrycqvDsb7WqDdw7MRx1Goz5hWtEDSO0eo4Tjz8xb94Iz5yZAlRlRZTcwctPQ9+XzvMDWlsdQm7g0mebk/yCRJ1llmJ+Zt5M8zLBYoHwYHgF4zpoo4PY/nIF7Dr8vPg04LQgs8+3d9EXXu0ILwow4IXYXG8ilf86ZPxfQ9boAVMa5jW7fryUcy0nJ0ql86WRyBIbT6qNMRTum0k8b7TqUoLQPWyRlx86hjw6y96B46Fs4gaLXg1+vFFtWcMqVQOQFRgtjerzRqbaNlpkFrUs2hAD6WDUtRDjbVvpRIgq1RxqFjDW29cxa/8/Qfw3puADpUyKbVs1mqSddAsq9YmMJgMOXV3yi1km4wfMQtJv6WofIZuip6Qxx5TCDVMbWOtDoYj4Jg8aaSgnZieBI6TLAgpYGFxN5/yQW8LkayPCvCkZ74Sn11ljduYx6ihgXJ0F0+sIesNEJi5P4Qvs2gbA4jljoG3ykHiqVxz8lIs9MhdAmwBx08cJl74aO29EAPdTjPsrtMtPnYDvv0eu/A3v/d4nMd8a/LtXWWP8rCCmbmmmxTOa1oC00CDFodbTkrg4cDF4rCN6UzGfksAxAQ/Bt752S6e+/K3YrmxFzekJXiLND0149ajsBciKhfdFNb2KjSZkz7lXgNQTycDrM2iWIZfrrKGolBkfaSDNYyHrMbV2zAu4VhSxY2VPfjV134Cf/dpYG2GClryUC1WMNLIRYGDzH1FhqIlESszZHrg1i1tJKtaPTvkjL62HC6+zWcMDiXyxjnUOMGUYuc9Pxpd6ngzeCj1KyvrPKtihUZanx88xgx54q/+PQ4WylivztKVqaA7DjEg4BZo3tfpfpXUhqQJhSO5j9sXQLT0VJeWR1yowc+6KCbHaRCuMJ96SOiiRcSWQdrHKO6jNLcT7S5zOJhFzfNROvg5vOAnH4U/+PEHobjSwxzzrZTRemwfRJ1lJHPOOll4PQcPdxSAEDxYEbhy2r50JsFDtCUA0qGSHuiO8IJX/BuGzZ3o1xbQHwcseN6c+NzW0s5/Bh+8pHYQtar71qZwOkSBGJVoUTRRoD+cEUQy1sxeRoskIXhRoBDW0E08nJhjTfXBz+LP33vcBp2lVNpSbQ8jp9rvZKuEixHZTerhBU1y86ylR12pWkdNT2ppAYGISH/duzk5kHBvCjhOgoZyRKDjiiPAzMweLHcYJhHrU0dGBI8X4ijdo3V1scrNY/wLAeNab6E+MwuvVCIwZ8gS2T5SFH1vm5Iarj3mJF1BbZdZGfdRHvV4PqTVQGD2SnRJCNT7LsbgyBHUG1UEw2Xs9np42bOegkffZw6VJMV5s0R4VVbdJdRrAeJeG+2jR82VlJGrdhUDkInlYZ+elMX2zsAzSy7n7mQ6wVJ4wav+A+ULLkMvLKGj3gk1ag5ZJ9OvpwawiAKnTnxWy+mPC3nNfKra3V5Sn4jmzUSFGdbeNXKIrFRAWBpjnhbF/DhBqDECrK0HdG/Wdu7EG758EM98+Ufx4et5mX40TQrTfgmWVDIyt4TAYb0aYo0OFcg4n1kPO1CQi6M0nEyBzgUWkzpukr6cRe4JhSXLTccBXZNio4D3XDvEr/3l32CpWkM0N2NfsGd7dP86XQyHA+ZtjHVyTHcpDCsIqWAOjLYxyQUja0asgFlAoj13rWG4UEfhwvujt5KhNj8PHLkaP/WwS/DWP/o+7KOVscBHqlrbdaSxR+QyfdSMdk1jxoYLHF3KzFPWWBdbAZdH+yRDV8Nt3goypdtGksg7nT7cBg56TdzY6cOr1TBcO8FCpBq25mjXs8BGZWpYWaJhBonAw9wZAxIp1ukUIJPk0a8oVBDTzB8SoXpWc1EUC4lzafor8Fus3ilc/UNHcXhYwKeOx/jzt3wCr/lUFx3qsW3TaOKUQwVpU7R0KkFzaj+ZZm/gooZX3XOZK94QSuv94NHwI3+eIUx8fgdYdFv4yNs+1MUfvvTV2E8wGdSaBBXe0ShJzdeg72+BME1jn7CkXqdKjQpBK2VNXbj6+jYlm21JxS/ESD3PdrxL6LqlWp6Kli1GIQJZsqMYM52D+H8/8p34lcdegQVe2t0qoL2+ynsMw5Z2YN5qtqb1rPiIoxGaC+qp422CkbM8BLeuSVUgZSOeaQVvW2LUz2Tpb8k4kCd+zMNnP/d5gkEB3WGMIZUjowleKM9gbAqjVgGy9i+xOl4apbSrjnb19B3NBg02wrjB1ykchR6FqOuOGNqQeLdGiSygkgmRuobVcxxQsUNaSq10FY97wC486dsvxV4+GlL+qnlUDA00bF77ibgh8CGBRhAzilOMBA78XVDbix4lq3fXpVXs0qm0Ddd7KLdmeVrAytoAjdmKbUtxvAO86QPH8U/v+h98ebiG6sXnYYXfggBEw/G72glf++jQ3qGCjWl5KAwjS5s+qO/c6cV6O0jxyTPtdpIaqJluLbFYm9+FXrsHjy7biEeN62loZfnPfQSPeeSD8bOPug/uuzNAOV6Bx4zOyvP8Ki0xwo1tMK3l1gRI/pBXVBpVa9j/NDHmxe+JcQ2B+Pg4Qs1jnrLsi3QPrUeHURe+b0fSimxjuukf/x6B5taTVOJOpy+spTjGmqJLYR57KcpejDLBosnCYf3B0pGSkyd1s9sRTP3+OspsPR0SONH31eLNUqYRv6fBHV4NSVBG5Ae0RpTwBLWUbIvqFBF5FawQ4PbXF/C6aw7jD//9U/jcCmWZQahn10wDBT3oUl8j4lNCnsTVrI4SfDXeFtUlbTjjwENxMNa5mNZQd4Bycw5JXIC2oq0QPDrSG8brX97+abzmA5/El9YiDIMm+hokpobCyA2398u0dQhgir9qzIKNerU7Bl7GOaBsS2ImVUK0di6gd+QYf4cYHSZAVOfQVN4e/jJ+8ymPxtO/9TI8bE+ImcI65YsOZlF2RMpqQgtWybKl62KViLb0KJEFK64IHbwyj+y/qixZIKnlp9wYsxandJtoSwDk0FKPBahCkyxnKLGK9+nCaE8XTz0hGlUpS0RFRS0TaIykdYrNacq+zWspdMjrVGI3ktGWAhjXeZOWSZG1GWvy2HxfNWJmJjQmMgS4zK9jf7CAdx7o45l/+w781xdHKNFQgDpn1mgeaAU1fkOrwKfkAd8cUmFtcqukk0AjL8ySYYHyj1kFYkmsh6DRwjAemauiXhw1xK7x1m88//V43xdvxGdW1xE3Z1FqLNKSZ8C0gjRGZpwkSDOyhveTtU2GehmKymiBiLqO1c2wrQGkiNLMDrSP0EwIWcn0ewh37sTo4HUoL30Ff/V/fxDP+NaL8NDzCdoJkZ15G/sNVg6zVh2pI31ShTgPkZxYaWlw3SYydD/ZkC2LRXIg+9eV1ZRuCzF7t4BYq2txXo2iVI2ohqqEPmlK5Yv7HVdzyixXUasgTd75x0zw0xN+1z06pDANeWRNbbU/a2WtJTISkJBZK40IFjFrrZSmQkqAUzuMuRgCtuIsev4ijvgt/OFr3oyXvf8ohjtA85fKXCIIZWrxcKLmljN2mMiPgkbNJsqFUUySYhNA1JvQo2QL1whJ2E+A+L0Xvh1fON7F54+vobC4A96OHYxKiKgfU/xDlH31F/Nh5q2GqNtQfZLSZ+t32PBmIZeOk+9tSyog6jJD6K6UKjVUK0x9+yCu3Bnin5/9Y/iuS0M0WTkgpTOiyijSYtKuPUMlollOrlxOyXnSScdYRWVgwXxzu+lt5/y6JZ2eBt0+2hIAubTqY4ZgoX02EhbpsFBFHGg+g6shAqqiWA1lDkAm2me+vZTzdLKAQmET72IqqpZVFCjoMr+h2lysXpaCTxehiG5YwMAngMgMzoYItNDG4Q6qhSaO04o6sHMRz//Ux/D0N30UN8xV0A5DZGkT3rAOr8s6r8NvjNRXQN0WTgmjZNyILG1kk1imidaBgOvIOv164oHA43r++bXnvxafObyGoXbCr88iLhWJBwPrehwNY5Rojpfo8hUz1si0oNTVOyIIJgzLrR+sWpTxppXnVrZXbLYnySXz+320WAEFgwjVYQePvfduvPG5j8O9Sh200OZTTF9RQ/jpBoYztrJY2SRNUmSzfk4ys983G0TLeJujxwqMz03cFYGO6qyRgTLz3WTxTKrg9ibl1p1OD9o7j+awR9Oa5uUooC1Qxrg6S0MgQKmsZXL6LMgeFV0AQmGwQgtYoD5B53QBhO9OLBm1UNDY5yVZFxQWNaKqoVPVk414JetTlDK1wQh45PYszM1i/SvX0dXxMJidw+HWPP79xiP4hZf9J951EDhBoEhCn7VjHQ2/iTLDJawwqITBakEafXMCHhts0Gamdb1VwzHq+1eoC8/+q9fg0CDDWljDNat9jPgtA4GMjk3gwS+XGC/Xg0CTicJPhFIbEr+YFnldVo83GQObDegiEkS2MYCooRsrK1iIBiivHMBPfNc34llPfqCtvI9omQ+wVEPNSNZSDwRwtYuwTAspLVpadQElS/gtoLCKgyzwcAAiW8UBiIbMuy51PaQzAUg+LkRCMaXbQlsCII+8tIAdFGatzW6NpWO6D9UZWiK0QHyhPt0YshojHYDI+gioACx+uQen5caoQVN1kcxahmvhC6iG/B4tDA1OylJUCW7lhGBGLghMGLeUcRsGMVaHR7H7PncjSgwRr9BEaO1Br7wLH2p7+I3XvQcv/3SCjy4BAyZPw1vUFuGNtJXkUXjZMX4/okBqiFzOmhvL4HhHALLCKO1fHuI3n/tC3Liyhqw5gxMEFHVrD2M+KQ0QKFSKNDhCxGpjIbj6BA4vmrhjSqOWaGT1O2K8BcaaQ9JIIovPdqWAcb9ca3i0D+MffuXH8fTv2ouAYtIfDOEvXoijkY91unN9AkDK9BY01kNdtmoZt/E7ApEJgBg+8GUb8sfjSOVvGMQsFugKRAQhzEPKYD4qdQogt522BEAeeh6wF+uYH8UsYJailIKfSljYsQq0oB4F1+du3Zvmv5M0HoLFX5ArY0AgdvaI7AnHqsfFrgYRSwROMp9SOGr3yJNnIMLviPmetdfyUr6Vob5i1kj+LBWy3VnGzHn7CB4LSNS3WmQdWNuFg30fz/+3t+HVHzmEz6/Adssb2fx/J4qBr/i67mnFUdfV5BpR4dUqowbTT1y3hN/7sxdjmf7HgC7JgQNHrMEw1Pdi5o8G3tF1GQ0HiFgTx6MUfilEuVyxr7iY5vHlkeyEPr8zuXeHSHmoeLs2KrcDP8M0q04VQl6/b2ZdUyXAnCS7fFXD5CQccynF+s38taJSeGI9R/eDyq1FoVrpOi6sZnjJc34aD72bj3o0Rinto1EpY6XPHKTVpxIr0n2z3hNGrsDzEcMaR/yWRhpvpIFHneZ5w2eUFnfNnehffl8VjmP9ntJtoS0ZB1IOy/j4DW08/21fwMfXA6zO7KL1QcFJ1R8aoSIzm1ZAgUpRCKs0xdXl1kA6qCDrslYpSQUEMlJ8soTBjvqdFzr/Snms4HXMsXAiJKSNhOk2f9jTOk7OdX9DjnXBaGw1uMLMbA3VnPUQv09QXKRRNTp6A+41X8ZTHvVN+OaLQ9uFT66Z9vYt9NTAxwuNFmMe4ESfwFIvWZvHR2/ICB5/g36xQvDQiFktLUCws+5XpkHfkQWhhj3+NhCVYto/euy6bfHlfSGhASiZcfNlyvMB5ZytBXKHSNaMwI/AIXAVmJMFyjbxzOI4iadlNFlxtcZIF4dGqYQsGbBcGQ5d1ojWVKK9bKzll1ZUSutQSWRelqp0LrrHEfbXcPdWAz/6iG/Gj33bPpt3ZIYYWaQvCRJECkWs9guVvv3KC5AHjVnVuwUN6ND9QLBNGlVozXm21OXf/tcSvlAKcIx5Xaar6jFuBc3XYllonI81qm9DshQnI3zi0apAt57uqJR9bRr0cJ9LWnjaYx5CX/YIKqs3YZa1uonEkCZ9qU6UqTGxFMgoQdwZImqv0xKNEDQlOsqIidJQMJQpbs0QJ6TO8tBvKY8ESJQfdZaDyoRNuCZvUPC1Hqj2RNFRv+1ZPUO2FcvtPdLkmtW8NgdGQBJgaZgibS7gS90Iz3vV6/D37/8SNGJhDVXaXU3mapUum+aBljBIQ4QEjy5/veVTbfzic/4Ca8UWOn4Lfa+OWMvSy+jWd9U+Q4vNKS5dOUMKXiN4qo1G63mINWrX1EmWm2WBitFnmgIkWhxHCq7suCOsg6KSJ52/rQyMJzfz/Nkg3ZClopzMEA06dC8icoI+rYaE+YQB42srMNFuWF8jeESYX5xB04tx+WwVlzWKeMYPfTee8C371LNtTqiBwISVQqmEOLd5nGToDo+TB3OJsDLVNfuTv+l6zuwZXraKyJ7RVZFCVHjufNuyDmeI8ty6Uykp1XB0OcG9zgee/fTvxp7kIBrto2ipXinvpCkfYhCwNtCKYVS2ejCLkleB79E6qThz1w0uk5UhnhQ4OVd4JwDKKfGdSQyViqDuUYGVE7ecRRTCeIyRpv9rg+rWHrzhvz+D57/6A7iJdzuMz6g8g4M3rOD6g+vQdrRLvP6St1+Dv33tm9CvNdEJyhjYQjlSA6oDwUkL22hLxiAjcBJItOuapSyXbZKu2W5sN2cBjzj/fTok8JHlpe53ckr3wNqb5fMRxFwPl9xQDU7RNlZkW99lAI9HeAQMf2gTAYvVCl2NGopJkzX8LAGkQQOUge2es3n2cecgZuNlXBlm+Jc/eCoecd8ZEEcMHKa0PWhLAGT/8ghz8wHWl4/hHgtFvPz3fwitzgGEnSXUJZw26qqChKbsgD5ukjrPcxR30OucMEF1wMFrxtQPMd/aAJMJeJi66M9mPk1yIRtUMDxxDiAKnHeqDXS6MUGgikOdMeLmefjCUobf+qt34z03AodoIMze/Xy0zp/DF2guv+QNn8Or3/F+XL9MH/+8S2j5aGQsa0RaM9amMLE2fFoem3eHz0FE3cQ5MDA7eG6nt06Te3kabi/bX8XLI7jrSJAza4Tpl3Ok3h65oTa6zeasCEgiAkts4CLrKA1ohbAMh1GGZDimt0pXVcsR+nT0igws6WFfy0dp6QY87KJ5/OWvPw47JRIMVgcXjyltB9oSAJnf6dkiLxfOL6KVDrCD117+rCdiMTuEyuA48UFtHgv8OnlUoqB1EWcdVFjLhdbwptru5taHrI6J9bGJc9LZZj5dcuE4d+nkPJYJiMhy8EP0Vvoozu3DoaiCa9sBeq1L8fsv+w+87pMd26rzOj7+92/9NP71XR/DWqYV2nbhxIFVBqFGFOaBNfTm9a2+5CyMDUuDlIOIPisQ2fh9a5SDx+R4x4giYcPAxVJntbvwi7QI3SLHmmKoXg0BiWNrM5FbRbaZ1RorQ4tKE2IRyaIJkGnD86qHaqWAnaxIZr/8RbzqV38Wf/TURwC9DOlwiEowabsgT2l70JY0osblMjqdNnY1mhSIEdb6Xaz7NfQoRM/4uw/iI4cpguEizX+6AFq0JzpK9yXGDAVPQ81WYw24knLlCjs55r9zslP55k7dneJMwOUOSmE+slOhGHzQpD/ZcCi8ZcCyCIoBtPdIfIKAWKuj7NOaOn4CF56/A3ODY7j7eQtYbffw8c9+EcvrNO8rLYZHJdKMuRpNeYVj8eVvpk/ukqwwnVvn7yT+tl/r5DhJnjvmNHluM520YW4/aaCbLUat76oxN8tYRJonol4vgYRcSy036FxM+9DEalL7kfJKI2g1Wlfj9Iu0ZDL1KkXrfLaP84pD3K82xp//0hOxW80/pLW1E2guzBs8acRyRY2a7tbtJkmImsBtQJmaipRZgYCORNCWB/UZWoV/994lfIHyeJz5Xvb4rFzHtIwi457RRVMatyNZcaQZPvE90p+tpztaTl+ThtFxLDSq6PW1kmgRVd/DnnCMed577k88BA+/eA4zSRdot00RNZ4hpeImqXZT75uQWiOhSv+U6lTZc+ucy/LpksBnMrmbepHXhwzcrBBKJLnWogOv7tWjx1Bc2MnnCB7L6/B2X4iDgzGujkb4n2NtfHKlh2VN5PNbfKamnOD7FfislYuUZM1h8dTtSCFWq3/qJUjVWMrE5CmT1eEOek5856Tzq5I+JzafUcwi4m+BqluI2IGrxcIAlXlES0VrdWjG9VhjfrT6szYK0453NQYwOg4MDuD+5QGeeOki/uGZT8QuLU2QJVjffx1mZmfMwOvEme1Zc1ZVV0kjKY+3JU/if6ZoSwBECyr3h11UqiUMBhFrJtW9MV2ZIS5n5fScJ1+KR165gFmvi3o2oIAxGjLnqbCpaj0TIbIByeYcybNJ0Rbnv0XuPP91R0kWkFvqzq2VKVV2vQuyEhyA9NpLqLTqaF14Hv17+mriSgWjtTUCIXWl2sQB+v+rxRLq+y6Gv7gH4yGVo5+gUWkiyAo2CS5UvhCYPIVrtTvTLpaSMhwTBh0tZhOaAMoGTZ65U8kaZZn3tAbULSvWkgdaCsEmJzKPnLMhVk1Hi2UTF7VolAa5jVgZRCdQjo/j3o0M/+chV+I5T/k2VJWmIiuX7gqaF+zFKE4Qx9rPsHhOtIHkeb8d2Sg/ngHaEhemQBdGAKCh3XJh1DDoajMKH10TTWw9Ttn7x48M8IaPXoe2N4OVQQ+j9n6Ud86jGNbRp0CFYYmVXBFDbYgt01qStbQEzMmWIW2qkeXGaFiEEmM9NXdYCvmdMVHOQhWYaeSsRla4gWt56RikyFw3kRdPFEq9FRnNdf1kjRyOqRRDmvsdmsVaSUyDoQiS2n6hQK1MCayDkeb0EoRCKqgfEjcVBwXgvmZujCXSJUouzgZNruX3TZB0uumRm1PevnJrpHSN1fbBR7RGik8wy4d9m+vCwAdJBJRLCFuzFt+oRxeB73gs29FAPTMCQh6jJTTiFdyvVcJz/s+T8A27NQFoCNSZvz7Do7Uht0XxFSwJpIwsAe709pKC+N9cmKtZPC969wo+w0w6yrKoBT5hMMA4DlGkNalFAbbryvaWbSy3j2/ncSBOzSQYUj4qhq7oopWu1uBoQ2uOf99VFTz2PnvR6BxFlS5Ba/ceWiBj9FZXKWMlRN0OhsvLaDRnEJYISh0CyYxmReQSdtIKcWa1M/1PjxhCbpobu29IIW3zKiqThkHn60douT2PXLD1R6hYY6VXsXDvSvXMLKc5Py5RMbU+J5WnPxpimGn1ihTloIhyKBHmm7HCcmkRudSR7NKkcZV5tEE5GOiQX990+/aSQeKI4E0OmFYBiI1Xk+UxGVCmhY2ac7sQr6wjuu4mBLQ4a9UGLbAOtI1pWOyjNV5Dc+0Anni/y/DqZz8N99tTJZ4sEzyYSuaHuoo1MlftrMoxi7LJyGlE/k6kPN+3G59pknbc6STglywU+U+q7Yaqq1aicJA1e7LBmvcyVkQ/eNUcfuJbL8XdWzRjV9dQL7VQKVXRWV1hQFTWUoh+h1WGzOnZOb4vxVRWOcW+ZRJOUwBNWRRuzjnZDV4hG5DIspKCZVS0hBwZ+9raTtYWk+sxzmocVYNjWmFt2/KRzpYxbgY2nSXme0MCqoIuMR3VlK5NwrCVXUYEDP3LgYP/N2J0ayAisudOvnNr/LVIaVOaBI5ueT8XGWdxaUyIjxJdlPV2lxZTBdi5C0m7jd6Rw/AJDLtnq6gODiI8/nm87Jd+Cs9/8nfBWxti0F9HuGcOHUpHQgySJSBydtYkXbJabGyJLL8pbQfaEgARSSA8jSdUd6V+qRpzjjR/sybrDxD01nBZA3jig2bwgw+9Oy6frcBfX0ddNdQwQokmec2nsnUHiGkalwKGZb0zCt194eS5iGHb6ddWkv+VpDQTtvYPC07QofqZbK7Lye8aqNgdgoqGRvNaia9rhXk1vo6KVFxZIFWmu8k0LDQBrclakaswxiCKWXETdjPmmEcXRq8RIKTs+gLP7K+e1fU8tTcHkY3rp0UK0+wmptP1BmUsh8yTLekmm1mvFC0l22RFC1QP2qjRX5gpROhe/1l8w2IJb/+bZ+ObLp5FyNtNpjOsBFgneIxKJYMIVTICjxI/p/ySq2s+R3FS0ZxFunPy8euDtgRApOJUDUkehUwNa1J8HtTtQGUajemLDgsIy2UKTx/laBXff98Z/Orj748LPfqfq8tYbLX4eIYh3ZZWgwqXjGyJu2pFPRkMd0PGdK4iz/n0SL6+pvTLNbE1I8yW0udcd65q4FRMILOjGn55XaMk1OqjEDRdPJBCS8F4VR3C1qQRMBM0HqLC/JhhmmRR1evMGx8Dpk8b3ck5MlyYgIVZDDoX5/8m14z08OTcnsl/fw3enFs3Z5GAQyuiu9XLC4gJHhHTmcgV8wpIaDUV61T7tI8K4UBbKBRWb4K/egN+8EH3xD/++o9i7yCBHonCFMf6bQKoNgYv2sgRuSzKGW0x6fOHp3FpLGttTxpZXp59EoZtVz6TtCUAovXWNWXaSFIpq6FQ4lV19/GTFMSyukJ5bzwcopQOMMc7D90N/Px3PwgXzzftfYolKkGAsdZ6kGJQuPo9TYzKxV3syD6n8OzXHScHIGrbEIhoRTPVxlRMKhLvGIC4PUU0zFsgMmGCgABFNbQmc9HucDW4anL+lTVjCqx0ZMwFP0S52UI4v8gqeoagool1Pnq8lxEQN4DjZiCi40aq9duOm85zsmt3gBm4cF9zhcQxyyrWcHZZhVoyURKTaSBZglqVFtOoi2RlPy5ZCPHUx30rfvepD8EsgbBFP3WgLvmij9rsPPYvHWd5aqq9W5PD7FKTeFkcLF9ZOXTk3BZeuWNzlkj5MKXbRFsCIKAfb9OqGbrGE2nrWC3nMjZjlWIUsNqxnfEz1moVtKq74Xe7aK0exqOvKOL7H34Vztu1GzVZKHRbBrb/qYeqVjEfqrFSKkSeFHRukNwZ5a6GUq1gZRYIocDZFQqZfwkONjpzY6SmLCvHWsR3zKOAZMjHhrS0tESFXABTbq1ZEZM15TyVdaIbAfxyDSEVDLMEEllaAsz8HZGOAp38nGxAktPGc5vOT4NU+xt4aLlH5vnIQCNnRkxx08pnoyE9jh6Gq4dwwXyI3/mFJ+MnH3U3rYRA65J/BBzVKk4cV58bsHthB1K6Oy3maRNtWi4rDIscdJCFCb+nLlwfZZpqajmb0vYgSsUWkMkx/1gN7ITypGizJidwDKIBa+Ey/KCCqJ8iYI1cqoco9tbwPZcCT7jfInYXeoiO78cMr5dp9ms39jKVzNolVItTsYz521onzFqg8E6+41hJVI2m9obNzGtjj2Ft7mE5GVvF18V587koF+48/Jsxa1JRPvTefZ9HAaqtjUI7hiAz4nmcJIa1XrmCYpOuTKNB840gq1esZHjTammyxU3H/NImV0TnvGbIw/OR/hXsLx/ne9aW4waBucZf1vFKL+8KHJ0lwHSSDdc2x3uD9Azz1ktQma2hOGyj1D2BH/qWb8Sf/OJT8JA9BZTiMVrCWE244+vq7d2zYwarq12kBM16WCZwMgwDRJWTs8/k0qjk1Hh8i6E/UzqnaYvWA9FQaJ5QEHN5sJ8TdsKj605ITfj1lLpC9cAoQI8m8+fawJ++/uP48PE+1sszrKVKyIYJQloCRSpkkbVWOkoxJJcrRVQDjwZKgiHvj2QpKHxrfNB3dK6jSLFy7CaIuXEeioP1Gtlzplo88qfAwH67c0f58eakJ2+mBXbqnj/1rZO/LA/4RyCYaCOuiOa/XLdJ3BWvccI4EnSKzF9vEqd8iLu5WAQFgYCw0jTRbqgxt0DAOCUku6VYZrzoGkoVht4j+wJXnnQj5nGJ3yu7PY3jdZT2LsBrn8A+AskT7nM5fvI774vzNP++t45BsoLKPK3EsS7IbXXf0LdELleZBqZxUui851xDbc1l7esixeEOkqWJof5v40D+6l3L+DSfPkZArTK9oSzIyTiQkWb1bdNxICKKAT7+aAnB1pPK9M4nM3WdFOgDuQqflAtdcV28dk1/9LxmgOrJcQe14Tru2QL+35O/Ad98yQJmkjWUkh5mWg3EgyEtZJ/C7cFn4VfKAaJBhLWVdRemcpCC4WrtiQibcE6OVlPnsXFHu00yAWRc1KCnAWlu+QCRg5C8Fpei3zqrtmeoDH+D7d/m9OdkkTGW4tsZHypUmA81KmGJ7pHSEA0xjijUzJqwUqH+0bIgW8cWQ93MRozHSdUViyz2BBl3tNRMysi+bJGevNMdAP0IQbWMcTBGHNMNWd6P5nwNo/3X4cJsiGd+/+Pwi4934BGvEukrHi2TOtaXjrhwJlHJy1/sLvFMrt9k1KqWn5TToufsgcl7U9oeZOV2ThEth9Qrox1ntirVpYzh7z/+HnjMhTM4vxARWyisNPPTWh1tL2MlSfOYAusHaoCrIRtVTLFcI6j2VCXY0F8v6qhNtm340mRHPFM0me0ne1fcmphnL1uk7kpLWKmiyDTa3ihSdE1Io+lvy/fxPCWAjAguUn6PgC03RLitsSka6VpIyXxGPedjgoZ6i7ThUswadkAektUuZV2z1FprV2H4Wgi7Uigj4P2ENfGoyQDKfTQumEHhK1/Ej192Kd7620/Co86jq9UhzvB2Ml9Hl7gQeQEaC/uYAsHFlL4e6JwDENWMHdZ+9WYLy8cPIkyGuIjy+Dvff29810WL2JVpX5k+hrZqOW8QTJLEQxDUUWlqRqfqYUGAGwglzgd6+RMuElg2uy36pg1QswZSf6NmPjvEWMmFojIGpSpC9dC0yFW5BQVaWkMhAs8Vbx7NFXDW0ZjgoZ9Fvu9Y6dAduTfEB6YrX4VN3bFit/ShFF4mrxq6ixgsraBaq7hxKutLaLUYl9WD+IOfeCKe9aPfjF0MdpbsjRKM+EjCvOt4HtZZDn26LnJJpvT1QeccgMj9mC1XkHTWMbtjHsvdE7Zv6SJ1/be/9274wXvtxt5Kj2b2QcaeBvDi+dSfBgbdsQ12SmmVyB2gepBZGxukqEdF1ohY9TDrXR4dgMjcFoAwKwxAJPxnD0AUc23KZV3eBBG/XEWtOUsgmSVg0vSXJaKl4Om+CUCy0YicWcO03B1ZEuMRrSht6akJitZYrBTJWkl4rvYAsRoImHYjPaNnacXR8qjc7Xy028dQifpYZB7PHLgJL/6/P4UfevAezNPwGJxY5isDNFoes07782nwXJWWUwO9nr5z9vJvSmeWzjkAMWmnkpTp6w97PeyYXcBg9Rgvp2jx1tMeeTF+9Fvuhb11Rn3lhI1SlXqMqUgxfXMphrVhUAE19HrEJPI1C7dAV0d3HOucPKnBHUnwz7bwF4gPZYKHGohdxw01EwFdmkDriNTJJSq7T5CgcmcEjZT5pTU3BCLW/EMg0LT6EUFhPFKzqdInIHV76tJmIG8GEaVZFggBink2WD2CfRcsIjxxGFf6Ht79F7+Mb91XRthPkA3bqPC8hzUsdY4y5Jjg4WbRips1ddVP6euFzkEAIVlXH1Djv8GJDioL82jHa1hJV2wA0o/eexa//OCr8MD5JsLlw0yFxkuzFhWApClf1cCuMmKvhIS1uFhtGwIWWfXWtWlgIm2TAomlZPnx7JJ6fKXIGnciEEzV8EnrqlSrozk/jyLdNs/Gi/C62kLSmABCd0KWCJ/NxiGPahPSAk3OpbO2EVofxfEA/qhP94N5ZfN2CCLOvyEzD+28i+Uvfxq//vjH4N9+70cwe5xlwcdKDYbEfD6cLSOtl1Fp1PmFAsoE9wZfm/S9nKNCNaWtoHOwrCmk1q/IqBEAKq15rHc6KFRD/gywRpdmjnL/pKsa+KmHXokrKtpKYYkWfQcYajYoJb2ghkf68AXWwuSkEJLzRlL1rjirxLk6ZKu25c44N+BsgohilEWxAYEaU4u0Psxu4m8vDFCq11AgeNh6G3K9FF9bu0PWh+Ita0IB0RXiT/2y5OXXjcbWW+RARe0mzNCxAGWIMO3hwoaPP/nFp+EpDz8fJXqL1TpfiRJEUQ99WRx+A0NaLwP+jRLthicQoldDw0a4ZEbdlL4uaGvGgWgw1GmQBF5jltwoK1V92gXfIwdWnzZ5eW05RbDg21iRZ7zkNVgK5xC2LsaNxyjxfo2RIGssBWtH1AgoMc+jASr1CuKhVhFXsg0+TrIUkkdTPkXkLJBT9BzXXcw0yE0gZw4Zj74eIWCkERW438VIQ8alxHRrgiLzPiZYJmqLSAm6mj1bsuadwbCL8YAgO6KmBz4xyEedZZVp0SeGWw3KuLDl4+W/9Si0+AmVoqYU2PgMRimj65PaPweyKgufN2wzSVsUikfFX9E/SxmomJ3uOJBMYGpd2tuVCtt8HMhpkMpbbDHTvP+ihDIkdIQUaLdpZUIrY3bOR41CPzNcxkt/9QdwMbro3XQ1drZqCDTPZhhp0AS1gNWn1qnwaXLP78RgaXXizrj2EWW26/Yd276stk2li8FZoZvrnSDELZA0aRbmAzHdDNMNCr6v3erUQ1OhujOv5MpU/RR1P0FJi/ZkMQbrHfRXO8RS5mVtAf78XlozdUtz//ghNLM2ymv78fgHXGjgoUWwW9QfuSMyBjUkX/N7NNIk5L8KuUTWzBbloaDK1ra1Rtpca6f09UDnHIDI/JVCq0LTtpF9n+o8Zi1H2awSEyqUz3HAmtfr4XjnAC7eOYP5LmuUn30s7tkYoZUcx2jtKPwmlUq1SGfNgRDle9BjzdKY5XV11ap9wSVfSqv1PgUeGuJtLs1ZJH3fWOfukowiAxLF2XXDekyGemkqqDRaCGsETb9E10dLJy7TKjmObLgOTxlaZl6UaVOUmHa/ibSnFdGqKNBVmqeJsTDu4I+e/sN4xuPuxfzjo5Z+9VIJNk5aG7bwcFJkzc7vjtW+EvAJ39ZoV62/MTHO3pnS1wOdcwDitMaJrUSR8mwujQDALqQZDZMMvaTtxoq0l7CDRkZ9APz1Lz0alwY9BCs3okrLpKQRlIXY1qIwF6bXQViXcS6rRiaeG/dgbQVqY+DRAIR3zibJAhI7IHOsv9bOSVYbiABE7TnqoSmWyvArNRTFIUGkyPdD2gvaeFttO1qzVY2jBAx0Ogj4fMD8mGe2XLajib9+9jPwqKv2YHcxQzXW9qPMK88BiIaZBYqLCsRhyUm2nJIITQbfWdnZH/KUvh7o3AMQIUXBTReXuyI2YXVyynsxvJjGfEdzWJqot3Zi/2rfltcorfXxvCd/O773XntRWr4O4coN2FPJUCHYaFf+YrWMeEX7xDEwTagTgKir04BE3Z26fnaFP7c+bLg8NdatCCYA4T9GzQEI40urSioeM2/UOat9aorlGvx6E1mtgUJrHgWtNaLkJGoDYH7Span6GUrtI5hP1/E9D7gHXvJ7T8LFxNSqgKZzAkGVYRmA60XmiD6ohUEE4CKVA7NObdx6Qtugqw1E7oybocybBiJT+nogicM5Rw4v3OT/CvXHkzya0UAppuJEBI/ZmX2II9kPwPxsFStLy9jdLOICvvTzj78vHn3/izGXLmNw8BqEw1XUiwn8lC6M1rUwkFDSVXOKKfRjHieT6ByfPTLrQ2zWkOONKFE51c0rC0Rdu1oF3rWJePCCEF6thfHsbqwHdQxNy6ncoYfaeIBy9xiC5RtxQbGHX37id+OZP3I/tU9DnSyDtSWmnyae9SELEFye2IfNNOMpMUKbCqodRmQAz1uuoVVtNK5tSTGe0tcHnXMA4hRazaV0LTRcfbzOq23GVL0rkukQpZlFrC6N0PKpNLwc9IfYN9+grMfod1dxYQl4yiMvx2MefE/sq2ZooQc/WkfaX0dTk9SMlHSnYBJ8t9iRtGSiNGeJ9GVngeTgsYkmP7Rp9UguiY1I1fYTdDb409YsDWsYLVxEVNgFlOfINYzpriQnbsRsdBT3XyzgRb/+E3jCA2Ztn555JnfpyBHUGk0ErUVmiXqviMJDhxYCqh6zSfOO1miG9MlaJsBWUJdhI540e+Qup25N6euDzjkAsUZUSaBqwon57mb3ymQn81QNrLNzRYIF3ZMKze8Kjf2kR0UZYKZeRjEd4ULq1lO/9yr8wHd9O0pxgnS9i5lyFf22ujFdsI71h8Rw854OXZeuurYRfv6rsN13bxvxp/HpkgykU+HDxWkj8Mi1aXhUbk8gooZV3rRs03gX9bZU6MLsugjNhT2WH7VRgu996H3womc9Dfc+D5jhI+rm7HWH2LF7Nz26EH1aaLG6vvPvbsTD/XMZJ1+GbGuDuGeMeFtLOTI2Z12oNmfVRvxuRrq8+Vb+2/HmO1P6WnTOAYiNQo3paiSUbg0EK7ZY6zXRpVUi0c2VV2UcVAb80eX5gOAyREHT3+MYc1So3okIs3zsex+yBw+93zehxpq1MPRQ92mw96mAVMJC6tY99a3nQHM6JqMcRlTHjMpC1ozWAhXQIxcTxzrXNd2zqfV6XoO5BHhk+53fu52suS0a/pJQBbRbHy8xS3hBFoeOMjXUq8TntCHTSA2kUhfmR8a0ZHEErNFq82vMsRrSXgGXX3g5nvojP4onPeZh2EkDTK6HtpCkJ4hBUMYJpqXPMIp0EceVGFmJX5f/SOlQ71Sd8ZjhfXGdLJhNCCCpz7yyhU3d9wVI6i07F4ZQMEYWp5zs9yZKJV+8qJYvzW4eM2+LAuJUUibSy9uTT1mxbovp3AMQNcCpd4EWhxrkVJzKDmWNIitOqGHt7hr8MMBqp008GKIUVjFYXaMEh0iiDLsWS4YT//CqT+NNb3wLoqHW8Kxh2O2hGoYEDdapBJBREjHDM/vcmC6RtS3oY5vIvithuxnnFsotpPM0ScHJEnK1/4Ty75zC/GPC4thZCWSmTw2n41GMQjDGgeVjeNfHP4H/+ux+HKberPKptOhBY87KdPcaTHcSdRERfIuoELy0jyBDUj7ojwBBwEUlk3slh08gon9yaDZMMX3+XKObleWtkZWhju5Aug0vTcnonAMQNQyOaEmMNWGM5agGuhprQXFI4VWEtZdKrTWDIyf6KJV2oBosoLPSR6U2g7g/xLhaxH5Wwq94w8fwH//1PpzodNCjQi2vrRCTqAAM2tMSXRT+McM1RZD7orU2yOZCkNUB4Z46+Tu/Zsp1ThJjKzekv8S0nEBpxxjRzgo+1evjT9/3Rfz8Sz+Ga5mAgwRXWSJNdOCv3Ig5JqyJXVg9oIZRtUC5dLpFRsjyTdTwMZlDpBYjva+FkiVGlmfMV+vcOuekakpbRedcUcuZ6EzYWvutZ4CuSkZXZdyjAEcECvrrtNR3LM4i1MI3/SKq5UX0+wSH+ixuJHi85HXvxD+9+e1oU7IXL7gQA4JOd+mozd2IWNuOR5HtsOAHzsdP6RLIQ7CGSbOCeE7OQUMgYuAxYVF+PLeIMa0yYuUUcbKKlfUjGIYF+OdfiNWZvfjg8QS//dLP4X9uGOO4rPhxiLCxSF+G3t/RGIsLDeeK0PRTzSwL0C36qHYWwYpMNbIWArEuGYoQP6m80TBxce4ETOmuT+ccgEj4hhOW0pqJrhmjYznXMqwjjMYRkmHPhFzud5/YUiz58GdmcYgv/vHLX4d3fPKL6ARVZPUWlgYDszS0W/zoxBHEa0vIWEsLQErhpK6lH+wQhBogABHpQN4AkZuxnj4FROzChM8WqXEzjBE2izb5EHTdsN43ABg3WsDiLnz8eBfPe/V/4lUfOIzjhRKtvhozUFtM0KYQgk84b8ugI8Ty0FaUdA8nSxFq3VprzZ48oyTrdPJzSl8ndE4am9LJk3qpKObsxDQddjHfqqG/LimnDz8H9HjcTwPleX//Vvr61+NoTB9/bjcinz493RpreNQkv4TnvTZG/XXrtfEyqdYkaKGBGitFeSQmbICRH3lp8pSRHtm4uPnG2SBp/biPOO6i6IXEhd1AZQHophgtryDpdeG35hC39uKV770Gv/7iT+N/jtDiI7YkxA9bmEikfOB/pU1J0lXhCuHIWYb5jQlPbJNzU6C+7sgk8ozQOVfeNApQmbBFTq2bXpWsK/K6C3RXAkTtE6g2fC1SjiW6M587CvzW37wLb/j4DUha52FUW8BaXEBPEq/VvKxhkeBRZe2pFcb7mmC2jLizDl/D4+W6SAXUBXLzApgojADE9CU/J/O/kY45n1Uaa6g/VX3QQbIeIUvKKAULxM451CslzNZKTHMXHfoaS9V9ePv+BL/2rx/HK74wwn4aFR3ty+ALKphHDMsajPlL6VLacxARkNqNiQQV6GqWaKOUyRr+PqWzRWdWAs85AFEtpsWUNdzL2jlFHq9qjQ/66zKdx70IpUbDFHjIB79wAnj2S96Ed3zmehR33g1dvl1q7aJHwudX1W7iMwieay6I3BM1DEZ0a9prtnSin41QLQZUPH5H/ab5d2+N+GoOJCId+dN1RIgnv88WSeHTTscN9Aoc6GZqryBnRNPeiTXUAy04VECH6Y0WFnE9LZW/+8DH8KJPHcJX+EYc8Hmf+aV8JwlaiS3GOlf65L1sAIjcJrVVaTi8XMUpnV2SgJ4hOucARBa4xyqu0B665TuZF1GqrQUonGkRo16GQmUWKcFhjfL90cND/Opfvgj/dc2XUdixF+vjEggvWO3Q2gjr9Pn3MJAAo4iuCpUioIleKRZQ0ihW9cB0u+geO4rO8SV4UYKKpscrW6QHahMpaMHmEgJZMAIfGz8g2Bjz4Nj2Y8mZpr/1w58l1tyVxriKahbyXGAYIx0lbt/dcZ2W1gwKicccoqXitREVlrEeRLiOltff/s8N+P4XvBnXMnXdoIA+k6s9v9O+m1JQYbn42gSM5SEgycYJwYn5bADCC5ozI7A6gwI8pVuSROFM0TkHICaIA4JEqWzzsjqdAVbXVuGrVqSbQeMDnUHRNp769ArwY7/9B1gqNdG89O4YaTHmvg2JYiZKkIkwxm6inEa4qmb2CAw+FV0bYNsObVS0An0h7b2SDbTkn7qLNR7RzdAd20CjkY38RKh6+NbpnFAbpnU8rpA1HUCZKTQmEnupbY4dMQ8TAmGmzNCu1gUxH6ObOPZ24oR/Hn7q+W/G277UQ5vJXRIOq93UcCJDmPWYX+oj66JYjFkkBFCCstZetY3UU0HLuSdWU9oaOkdLWkrPA7lSKmLXjhkqcIKIJnh1roEVSvx/fHYdP/ybf4zgkvvjeCeCtpSK15dRbZQEHxsDvcxq4D0DA1oTno0Y4yWBBO/ZPFxaIuM0Ivh0EGv5xFgT7zTOwSOY8NlUCqLZsQXix1cHkHOBtGxjr1hHXz0rSrUtV6jRumRaGmlphH7JQ48WmJZJ9DPmiVYMSpiutEYrZQ4Hijvx/Dd9EH/2lhu14L0tKGT+S3+dR2bIiGH1l5EMVjAYdhAxL0dyiwJNNZiCx9cTnXulLX1XjafWOsqqRpuKYgpmVg3QZYz/81PH8IvPexGKuy7D8XU+NEc3pTdAdb6FfmeFicqsLcWm0MieI1C4AdiO5ZlowJqwRfKuWaijRLu/UTF664i7tGLo8gg8Qq8IX8DDlwpUFAOlr0Jf49aZI8Z1RFfNWABIcNR2FmZCFMk+zzU6z9fMWVoqozLBMoSfMMc02pQWWyeYw6HiAt71hQP4tb/6b9zEbKGdAtRazFRaGD7LRCvF0zSpaHPwoGoeX8q81PIC1sA6pa8LOjcBhLI8iLUMoYSxgAMn2qwgi1jj779+y9V43iteg5lL74OVo7QWahoEJU2voijEiAco0ifXYjiGQEohtV5bIIxowmvn+axYtHM3dJ21p/nwVKwR1SQdsHbtIesP6dYQiBiE9paVRaMG1mwyh8JYcZ0oy4bbnx/PFim9GhxTZJoJJgW6NIHcNa2DqoWCCkyfemnkHxYaBNMZszxKaQG1ZJ0uShdRN8IwnMeRcRXXEjx+/o9fg//en6JDy2UUNgg6NYKuxo40GabWZXdNQ9q6NxD4T+ks0iahPAN0DgLICMP+Ciotn16GprYBzcVZXE/r+S9e9wn8y/s+gl61hUPtPoozixgv8wbta4156Ny4H7PnaWtFuScZvHy7d5kaAhAqVCrw8H2bC6KNqEZFWid540i+HN8wwoic9Ia24LBcGFkfcmMy2/D61kkgIlw5u0QttgYLtW2MbUvLtKC1S2k15AO/ZILpMRvUonzRkoS0zQqTfWMqNQyYzGFYw1e6PLngCrzg39+Fv3zbl/Al4k+HYJ2UaO31A/S7DJBhlQn6tus/gz1z4juls03nHoAIMoqs9vwhhilrQl45QXn/x7d/Ci956/txWCMNSnWE5TLKrFUrTEE4jJEtt9G89EqstrvUCboaNowyo0LryADMXxETOAQeExCR2W1Srz5jtf9pIWcRw4y6PQw6PcQaN69GVAVDPqdplMJLab2JPW09SUjwa3RXNFKsCX9QRdAv8BihkKmLu4s06BMsksn+th5scG63jWF7HaXd+/ChI2u4elzHG69dxvNe+1l8Zs1WaEGhWqTlEVq+eAT7YrKCZLBMABE6TenrgbYEQKRjORvZD/6xMQJOpVWPi0+Kms5YvSFGsUbzmadJqWajS5/1l2/Fq97+fgTz+5CEdSp+YMotWlxYQLkUIKzXsL6yimKV5jVBQm0e+qyDg0lsJthQsEFjbue6CXrwIrNCvSxyg5QrGWviQR9Zr4d0OMRY0/dZWxc1piRfuWxiclgLi3pzJrzxrU2gdQu2j+gh/b35+3ec9L66qgMbk6F46BtKI+M9CuCPinRTCLq0qHyN3chLwnpl3KS4ePUEH+DJTBMdrW4/twsnUMf1URlfWPfws899A/7ziwBxBOM64ULZqWQynLL203VDzcikSXYYT7DcxovYM2InBbTvNh6b0unQmc3FLdkXxt+0L4xEV00MBh46oYL2ZShTiUyN+PUgHiEMZXavqeLHerjHariDrET/+K/eiM/deATl+T04eHQJjX0XoqOh6aZ8fNkUjqyfk4yTlSBlt53b7EbO7r4TYJ7fQln5DKNZytTm4ZYLTGTu67pWLmq0UKpVzfIvhj6KPs1/Ak0S09VJYiZNM30DxAImAwl9cxNYSJntk5NvM09UWzvg0HYSI4uvFgXSnTtCSrELh2q5AVTu+x5BQ9/SM4rDiPGdeDF23/21Ny3vHNg5sLX7dOFCWoVzdPUWWYqP/IbL8f3fuoDz+Jj6fLykwydTvsb0F0sYJRopXERJ7SIK1vCCNYNGCdpgH10U2MvF0irviudEZuzs9pMwSmvJq8dMc6WMirF9vjDZF+Zzq8CL3nEMX2TFc4xgW0wTxkAbVtT0FvMtYfrzl7cfad7XJx9zZhqjXIndyaTCEpnY5j8kESbQRWTDzDU3kFixY6AGTHtQ/noNdGBwgPz03/8nXLc8QH3n+Tj4lf10xe+FzrLqPYUz4dxqsK+6j5mKTBTYPmtXpJK58ugq75sFMglHzFuKhhYyLlCh9c5GtanJdnGMhAgX0oLR7nH9dbo3gyF8xqFSLiFQz0aqqWeTdza/fwpvIqe9FiPdsvjmxzvA+qtZs2qN0DqlG+Aka4NKMaKlkRG1NYlWIGHd2/Ycc0DfNYCR8uRWhOKr/CGIFELExQrWeFwqVvGmj3wKL33zNTjCu7RZMAwadJfqLEYCR7eDXreLkuoSRkwGY1urwZUnkxTyMToWtmLuLJApbS9S6d3pJHEw0bCRkBTcYmqNlVprQwrTKASoDTJUiP4h7yXlDEezlM7LIkZBC1+gRD7laX+NsRpG+xFuvP4mXHDfq7D/0GFUZrTO2CaS1G1I3ik/bhuZiT+hyfnJOpp/7RLTwfhpnY1Rb51+Pt2aiG5NEvEya2s9TMAqeAFZLg4ByGYQUxGVfs0kFqsnxM4n9/QFhm92CMEs065oVFSr/c8S6cuyYLQSmVmNG5znq4dhZ0jQp61RmcV7P/1l/OofvwnXrsOApM80rC91ERAoGprwyHzqZrQvtPL7jgYG6q5RP716cUYEGx35WzmuvQcZOn9v39r/6422BEBshTuTNwqC81/4z9XLRsSRovYtyXpUwI7dKxZbOJh4+J8bgd/5w5ei1JjF8dU2wmoTC+edj/0HjyAsVWyqykSrvyr9b+pXUM17K8BhxHPFWD0Tk58uQCl/TPO7v454+RjGwx6CoodSQHeDkYoiAiFf1H62SrsU0LE2q5IF4KwAs2wMPJQQQx4ChmcA4npMZD1sis9ZIFki1qMi4KDb44BwE4g0W1jrJTjeG2Hdb+JgXMIv/fFr8D+HgC9R/8OFHQykaos/F/0R80hLNjF/mDF+VQs1u2CMGKzyy9khkhMr4CltE9oSAHGCRqEzm5jKQFPVxlNMZIOOACsd1cIp0k4fIQVQKvWfX+rid1/571geh+hnBdTndyGo1rGsnhXW7JVaA/GKNj7KtVqkb00Em3R7VO8UINl8VFcvj2bi67Klg5HPIlr2DkSgfWZpgRRoRenzqj+1i36qAWc8d66B3AcqIi0x7XqXcw4uNsjNSB8hqmqQFgFEFsnZojy5BiJMsoGIAYgsB1eA2g1PKNBZG6Ljz+CEN4ds5xX4tb/8D7zyA6u4lo+u0q1MwwrzL0VgK9q68TkRg4j5ERvdKlIWWLAC7pBcsryc0vagrSmpAgHCpEKOTEAh4WdyXaFkFoMxa7A1+uEhGrN70R4W8ep3XIeXvem/8PmbjqEzKmJmxx4bH3bo2DIWdp+HemsWawcPIVzUzq25gm1WtNteb9/cAjkFRHSPPrzryXGXfFlM6uY1IKEyBUwPwSPtrBJHOgYEav8QaKRRxkrbzcXZmI9jd/RXGS5QceCRO0p2x+LAcPO4nC1SdASALDMHgkq2ypI8sZzUK1XasROYX0S/EyGuzuErR9ZROv+e+NcPfA6/+4pP4103uK7elBaKZv7qPVUTBeab5YgubWbmkxownczowpS2A20RgLAKkl1KIKBt7oRSX9LkLfQoIhQi+sqRV8cRYs2/f+IgXv7OD+HzXzmIytxuWig+rr/pEAqlGhrzO7Da6SKW79KkMMqkvhXKRc65TreNbg1E9HqBFoitzcrANKZEI1xD37MVzNTzEmqghCySiOnpdRATRNIooaJR4YIyk1yiK1ImU2UKGlKuXhXNurFZOvqCxdfYrJCcpag8nozWGSfBmouvA/4cRIq0nLTmhyyR2flZRCeOoVCpoHXpZRgQ5FFtYaUzhL/3Uvznl4/gBW/9EF72kRO4kZgTFVqIOhnStRXU/BjBuM8vxJQHujbMStUvSrl6ks39dVGZ0h2mM5eDWwIgTklUk0zI6QzJmcGd9R5K1Vms8NrfvuVz+Ks3vRvHxhXs2HMR4mHCiq6A0swcuurpSOjmkLUIjtanSPtu/IcjKd2EqLy3Bzxy2gwiORXUg0PQsIrTfvMnf8vKCIpyUKheRT5DULEVjdptZGtrFP4RGnS5eIMcGo/ojqmL0iml6x1R/py0lxRpao7V7hPecG3OAjGxiqfaZDRORvFUTBVja8+h+7l64jAqi7MYR320D9yE0kUXwpubZ3JLWDuxhNK+S3B1O8Hfv/vT+Lu3XY8v0BTJGnPwCTLjNsFGa9vSrRkTRJRi2atKsQ1F4YU7Uo5TOjsk1b7TKaFLst6mic/QI+JId5RQKJ2YjIZj1Ju7cHQIvPCNn8XfvfODODgK0S2WsbbURpWWSUgljClM6kiVgCGgMmochhRLE7luRhJwU3IqvmbYChS+Ft+c8uu2URM5SobI1LahZ+XLZxniOEZMsNC+LRoPITAxpVcOlggY3TaiY4epZARJPoIea9iIUMF0jWmFZJmHlNWtelkyVrky682YUpqsjYH5o4ZajSQ1dTo7JMDQjF4Nf3fjUfLYCPZco7D25I/7a8waprVcQLR+AqP+Kh+hRVamfbl8HONKC0e8HXjlRw7heW+6Du8/BvTDKgqsGNx8ozV+SY2rwLGVIXrCFDGzbauTL0tSe/9EdMUSlmmRFmc4mbQZyarc5mTr0Zwh2hoASQLUmlVb1KczpLlaHCOhYkRDiky5ZfNa/uRV78VL3vBuAkcdjR3nwfMrNGUDa3swoaXynqylRcqUW7KBx4Q3Lp/y3u0kq/7IclGYO9YvwODUqGoNq1Ij3o4pfI1KGZUyBa+7jgLdGs30X/nsJ1EYdNGab2FGO37HkXVnNxszqFZrVLRIasiwTma9YFIziDUPRb01k0ScFbIcVdysMZdp5bmLje5YhzOvpgQS7RNIZ5NHz7qmxVQ+AWiJbhwzbVSdwaC1G++7qY0/fN0n8Y8fPYLDoyaSYIHPzKPbi1hpLGHPXNkmCNs6lsn2V+CzT6ch/7eTtgRAvCpwZDlGrVGmla9d9lOEXhmdUQ3X9YFf+4e34l8+cS2S+iJaMzswOLqMZGUdYb2JKCghY60vgT3Jqqc2nzt2ECPW8zrjE7IaTpdsAp6Y8MG4SIkyuk+yHmTW+2FI48RD5/hxJHSp5mcbGHdXkBy6ATPzVYxv/ALGSzehPFxGy4vRUI037KHf0QxjtZ8ojlJMF1eXBtfNK+V0KTk75L7s8lPxzPPUAbr9svg5a8QBSUDgCMdDBNoqI0vQKjEPumofasPT2iPMuw/fcAIv/PBB/NkHl3FToYrrOg3U6cbunGkBy8uolFIM+l2ksubuhCL8+qUzm3lbAiB96t7cgoYG0/vQgjWsWtZZI+1n5fR///R1eNsXD6FTaKLa2olxLLcmQqteQ1CrIVlf3xDUkyzAcA6NqwWdYb2haPaYMk7JOd0MZGCyQvJgLFj+Ua1cJIB4PoFgiGq9Yeuypp02kt4aFaGCKs353sFrsViN8aB9dTzg/Bb2lVNUhjTveyvMixh1ptNF24W52dJyZ5M0nSVyMXEA7fLCZa3lOuNrvBFTQTf/0mRWT426fK3bmkCrliItXD0a0NxsMs17L8QNwxpe/D834Rkvvxb9GQ8niKfIiihWSvxAzCNrHrpAedvTlO4onbkM3BoLhKa85pHEy13U/AbWBgV8+tgIP/jsv8WH1yLU911Bc5Um7GrfZrrWZuoYsPZaW6dfPTMzEU0HFA4sHG+cWzeomFmVKyM5F+rTy8D822oD4U9jWg1KlOaFFAIEzVm0jy2hXKrgggvPR7S+guHqMeykqVGPlvBLj38onv3jV+IXvncPHnJBDTvQxpw3wAwR1R9pyryUU6TsFxSehENLzlklxUCN3Wqz0lET3ajfzAc32C3YYBs5a+0kJ3uYdIxZadRrDbpszLMBwZPWmbVdVXci9nbgA0fGePKz/hufPDrG6pB5oLVrA63n7tnCRXnuTOncpy0BENoRSNqrtDDqGFIaru8BT/6NP8KJcQOF1h50BxmCSsNqHE2rzzS7VrM+u11rVzgVPORzO9DIgWOzyp2Eig1tt193lBSmJsWJHUIxi4wJHh4RgECi+TDzF1yMNk3vm67/CvbumMNw7TiKww5e+oJn4Ye/5W64Ox+9kj799z3kEjzi/nfDzlKGZO0osv661dT6kvEkfGtrMD69+J8uWZ6PXTtHwQBE8CFW3GQdFGmFOfBQY6sN/uK5un0NSJiGYRJZ12ypUkG5QnBQs4560ZKYFUcVEd3Z1dIsfucf3oBXfexGtJm1K32VqI0aspyZ0mmQMvIM0ZYASHj0K5ivBehTMN52/Toe/St/guLeeyONa0hXBgYUSdS3to5EbQthDc35nSiVS2gfOWAKZopMkbQBV2L+PsmOdO6OOfHsTrB/pURWClJmY7VbSNF1JNPyWD50GDMLC2g167jpK1/G4777EXjZ3/wS7n+Bh120NiqrB1Dr93DVDuAx33Qhvvk+l+L8xSYCtXMYgCjuiquKQEd1nRpUbkrhmScXk4RlEDMmApHcEuMfywNnhRmYFkoEPgcgea+N9hhOxwP0kj46oxCj0gLCyqKN+/F6J+B3DqCQLGM1S7C/eT5e/Knj+Mm//ACOMUiKDDQpW+NOpnQ6dObkZ0sABPV51tJj/NsHvojnvOK1GO24CIeJGzVeN99GM2g7GqfIpM7OI0oyW8tD3Zlzc61NyTfJvQXnsJErmjtOznnQfXtGnyLbkGyyxhnIqNA9TXjPWX9l2WjIeXHE0BiInpM/ry5b181Ktgly5OUTaM02MFg5hlLaxzN/9in4f099qE1r1ygQG2BWrdsC7j4tq7s3gJ95xD485VvvjX2FdTTSNkoaFq/wNVLVdqUms/6VC6CUbMSbz1g8FEte3My2cBKv61nHirfLh9MnF5aFps/nR2Nlsu7kLNDLwU/EXGVepPR74mGGNBmhGoSYKRVQLcQI/TESn+5QaycOFVv4fK+EZ/zFe/CmT69hndnhSF3/zpFSz25uC52Mg+6qG3hsBk7OunpLAM5f2kwaJKcRty6NrqJyVm8uYduSznDUt2Q9kGG5jPdfvYSn/9FLsF7eiai6A2O/ZltJVnlvmAyoAKrNVItJgaSkMYJR36yPRDUbFUl0y8I8VThOFRY+nbsepHz+TT4HR4NiNQcjy4elG/FI0AgofVpoR9/TKl6tuVkcueF61GZnkaWMU0pjPSzZ2LGo10XaWcZVd9uL//OER+AR9ywbcARxhIoaWpUmkutMIlBocaKRj24UYj8162df+Aa0Zy7CjR0qUdhCJveN6Fao8uu9DgJfC/84tdQ/Tb9PGOeRhmny+y7OPKQeikyUT0WVItjShPym0+88fbefXJ6LdeZ+6dyskPxcZDfy7+Qlkf/We8oHxU3ZLXiRiqu5I0R/rcMML6HZbCLrtdFfOoJLdy/g0fdcxO89/AKE6SoifxZH6f5qj6syA59R2vuUjJABWgaNMeRXUllvWtWIlzXGw75Btg32FKnigLcEEHSf+PNL/PSfvHkJn+O9JcapxncqdKOZyYgjCYK62fngtiTmNy3FTzx2khFbTCaOdzbdQH7th76AXtBEGtTgl6q0filMFMBhpuVeWDqSMwFHPu2dGiETPuVzThQVNamQfm9mV9vl7CQk5wkx7A0cIesgfZN5bTNBTRHIm16RuFuI1D7VTUeu/hJ27D0f0SBCTcsnMoQw7qGWdhGuH8YPfOtV+K2nPRaPJHjQwECFNVgp62PY7yLmN4YKWx/VoBFtpZn1CDIdLViA5/7841BZOYi9pRGarJHVs6tpxuNhQuDayTioUZJ5wTBSKokWfTZXQtaQWUSKMD9CELZ1XZUe/rfcUk1qD9xxciEoNJdB+qsrruFarGHtp/aKuW9axMiMm2r2ybNMHOOo9VmVJrK0s1SCx4TLgoj9Esa1BXw5KeMdN7Txc3/1ahwtzGoJaMzUaNUxf4itWFseoFjh+7aUQkxQFzALLHwEfCagztDYOZUsK1wcJz/ssGF9END512Kdp2VKt52kTnc6XX0CeM9HPm2zNn0qQMja1dO4iqKGdNNMl/9sQpawAIdkmfMyR7WeVUjZk0bdMZLVUcqozHSVZGRo4ZyBX8Ag1NqgFHNZPvZtfiMjj4qs/B04aZW0hGbDYDBEffce2xGvToVeXh9gECd8LqKPvoyf/4Fvx8899sH4pj2AVieJ2m2MtF5IZRbFRstEUEaO2d4aiquBMaU6hvUGvLqHy+aAZ//k92C+ewQL2TLCQhuVRgGtShXtg8y8cUgQChGxJoxp9ie0PFSD1+MxakMKfERNSVljyoJj9Sx3QKAlhfZNsc9tSlPaDL5PHFdeD2g9EGTKBBHm8ecPdfDG/kX4jue9BdfQq9VqIS1afxVtqD5fwvqA5kOjihErpcCv0mr0kfVTW31Mda7mOU5KeBOpMMQCiAmZW3gqGXBa5TKl20qn5vOdRB//8gDLrIKDsopfWyEQJKRWskV9LVGloub9cYrSiD7xSI12LFBzafLp3Hmh3z5WTejaDviTpG0cxkUKhfwJc5uo0AIPgkaBXCSIFPhbXZQRFXFY5LlGxBZL6FG4144fpWIXsW+mDL9zGC/4zZ/DTz7mPrhygXLMbwVJD7PVACUqhICjr/1keNRWCmYt8NdIC0EzvJTfV03pEy8fsA/4/Z96BFq9AzivPKR5zlq1q0kjKSLGdcR4mJVhyWK6GJ7miRRplpS0+1vKvNLev/pakVaIkmWD31TjTxJ/jtKIgKGh5NoiI+vTnSVwaDh5QY1GYQPdbBb7y5fgF//0jXjzR48ijpk4uoZC5BoB1WTK/tKOkPlGQEr7fdu6osw7vMI7JMsGlcGEzTpz95zF5B5xUnOSp3TbaUsA5J0f+wJK83vUlm+/42jAvyxAuTH2SXfdp/sSGoDE1vbhgEVKwULMfZDbyxPSma24rhpFwJGDhzSNoBGmRZTp8wayQhgftcmMNQs3CODN7UKPippGMRpejErnAC6tDfC+f3ymKf4OBllWb0o2tJq0SNs5TSJzX0qyUtIeLYY+RvTV+0EBHX5CxohEU755vURjhcf77wb+9BlPwGVFglDnuHXzNvfQPOF9mm1mPhXjgsVVIDekEkVStJHvQESKJRNLIfM0ocmVT34+18nmayhDBJQkWSE+8zJs0iEkkKRM342z98JvvOMG/MprP4YvdUsYdtyaIuN+B8Nel0BD94dhVJshqgEtL7o2BYKJIHtDFEyu9EOsLmr3WQcg+UP8RbA+CSDiKd0WkvTd6XTdNdfDK9cxSFjYBI2RfGF9SRPUUjVjuUJVo5p8ZCs6K0sJ00Qh7iCp8VDAoY3WRrI68vYOdQvI9x55NHtpCfAhn+fajNoRj/b5MWvECBXfQ3U8QHPcwVO+56F4/q/8CBZ5e5ZuV5lwoCHcFjbjPbatLzNUKfjlMhVbPSx0xlKCR0w8tIZbXlHwgkeBiEerrExhv5I+0LN+8uG4O421e5w3h/UTNzFcAa7aTTLGk/45ASQbB3RTaCWR1VakXoNASxxoUVnLTjowvJcQCK1N5Fwmxk+TFrVheVitoKDGC+ahXBupcFhiDtHi6tAa2V9o4TXXrOCXXvpW3ECH8fAqAbs6g1pN9l+KQaolEOk+qvVUoKQlE3XcIJ1PWHLIM8cTW4NxYda5J3Rud6Z0W0naeqeTV68hlnnKGr+gBjKPNbT8XFoasAJPWExqIifxGdfjwqhslNwdL0LVwDFlSQDiJIQkBZMGUxlDflaLoblGfCcu+ufmvuihmPc6GK/ehPlCG3/yGz+Dn3vMvXERFbyWDVAqRBixBqTJwecZZ6ZNaQxKFQPCsZYbUK3H77smRgkmH+OJtpUt8hNZzPCTdZSKQ1QJApdUgT97xnfh8vkAly4IcdYZft8sNDX0adVyOnv8Ht2/IoHEp6VRTG0OSiVjfLWWohKuAV28f6778TefEW2/pbzMizSKENOVk1WBY1/i9SHazT34THB3PPZPP4K3Ltfw+VVJEMuDvup4uMJzpt9cU4WzWY5E+nGS9WX39ZMP6aqgRVWa5Z17YEq3gbYEQK68aB88WhqB1gfVXodUMvm9BiDWkRaxBlfLvLZ3cFPHretTiqdxFpPCvkNsEsJjnjJdlhbz8zloyEoZexlrbFlI6gSM+QpFMqVlkfTQ7O7Hg8+v4J//5GfwwAucxWCD2xTmcEjrSnYElXg4oLERIaEPH0UJlZxgUqUJLn+dDwtQeGaseOQVY7GoxYmEMIwUv00vyRoLf+tH74vvunQ3dveX0Bi24Y+H9FJGZIbgMR9tvAgjQRRKihFdriHDjmjJZARGJtzaROT/bEmx3qkkF0ZT6eMhAZn5UGB+WK+Myj/uob98GEG9zLxi2sMmVlYznKhfgOe94Wq88B3X4bNdoMO0aqtN5iZDVMEz3ZIjY/sMaTMaqBDcWX5VP60aIXC42da6s/mdKX0t2hJJe9Dl56OOIQbtFVtk2GpHmte2lAdrX380oMJqZVQPUYG+bSG08wIBpjCihcKaVwJ2R9hASO0dWkNEyWOtpr1tNXRA3cVaZbDLOEQl+sMNjbkcoFyIEbSXMR8NsKdzAk998AV44c9/L+6u9l7inQBA3Y/DjAkoaz9YhlssuIWheSmgCR6USjYsf0AwjIMGhbFE8S7QBXLgoK0f1XZrLaHqSx4zX0YKmXkjjOWZXKTf+u6L8csPvD8uT3sY9o/R0mB+tAhK9Rk+wwipzUNLRvpDRH6PWdu3SXolYbMaVjMy3TLLirPCt14ut8ZGEzdTv9WwOlYvUplckdsm2SkhJMgEZcpK2sZhqvhr98f42X++Bm89THEigAx6BJ0B86lSoUszssmcQ5koqjgsZ/kN9ZJNPqlPC7z0TVk/CV0ntXl7LEwdFR9d3668kbdngJS7dzp948UzKA9WcdGeRXoFKknWxNpGcthFtV5ibS5pp8/LmiKjdaJ1QFyN7aaHTwz/O8Y6xBQW2xybYdG8T/sD1nR9WkMFlFpUwgYtH/ox6yduQJnHStbDImv7udUlvOgZP4OffsQDcbdWhhbjExJs8kzSTFwtUWhDuW1ItyECWTWXk1fZT1r1M1atqAuUSNd5rbYe5oXcJFkRshYsLNd7IyhpMJB53v6xh+zBkx/2jXSbPFSrfPbEIWB9GZUqlclGSsly0eZHMYNKiBcMQZWmGohzUNrGZG0SSgL/qHdOXdNad8QcFwJOVCzji6sJnvPKj+C1n2VR10pY8xpoa9eoWtmAWkVknjHzeqR2okk53TrpurM+phbI7aNcN+5UegDN/u+8zyVY/srVCDT6tBIiXT7B8o9Q47k0y9ourWdEiuiioUZVrTFxOsUn70WjCv14jApr+ma5glq1jKBKK4fuyjp9ZgHIKF1DsLOGbHACrbSDbzp/J97650/HNy742DNXZRR7rNWW0fJTVAUkCptsbZZU/LHGdni0LTytOObiL3mV+gpMpOKudiWkjCK6TkMDR1fVUbrVpS3zhSCk97QeuVuQZ4RWBfj+b1nAbzzmUZg7fBBNbQA87qHXPsgaV2EQaBkRjZzVt4YMZqBsVM2j8HVx25LyknlLgNW6qVo/VwCpeVO648kN7h4laqyiTdfmuW/4CJ7+muO4hvVCUnFVT5dZ1Gfe6FyWoo2VMUQiQNxCuNz1DWYNPqXbTk7y72TaxTL4P497OC5s+hgevQHeoI0ibfggKGIQxazFNYJSaqMC0xuUeNWiKnLrjrnjGqAEpYMYHhUskDDQv44JXLRDGDYlK6bz3Fum35GiVhhg1o/x8G+4B/7i/z0e51FxW/I3+n1KodbXG6NYkvJSsWmJFOkqCPNkZciGUnOws6VcMgQyYlV++s2vMUJKi6SZadOD1obB9FPh1Vsk705jVjRq09WwQxthGfD0UZd4+OMffxx2E+QW6vxqyHgNlhhkZj1JxZFmwIY2fiW11Yg1nkaD80x1tikpvwXDzjLTKFxrq+JRg+l8AmS9XEZrfg6r7Tb6lRred90h/O7fX4uPs1iXFAQLQNtHdFhAAnyzAWk9KkCF+dUk7Ktdn9JXJ5bWnU8tlsIVO4v4s996OnbRV69Eq6hTCKos7G4/puKooU+1Lx+0RlNz4M0q0XDzW9YSt50kAEkcI1BXYEAAo9InyZAVc4py4KFWZ+0W9dDot1FdW8Kv//gT8ctP+VYUhBeKinKkPgs0dwFlmxpH92GVINhFaHuc0H/nJYGDYi2WUBpOaEAcrYMKzwUi+TMW6GT8iY4au6Bh2mpO1rv2x9qJWIMyoD5BLSQSzfOhR+0FXvqMR2BH9wCqQYcJ7CDICGyZ2gfqxCQiniwZAsjYGzAIumrWm7RNSYWvNiK6YraJuk9rkW5age6aDdPXMP9wDu21yOYOFUa0EhsZvrh/P376j9+PN37JbbOp9raAxTdgVnTTjEau68FSveDk6zSEbEobtCUAoi7OBg+XzXt42Qt+EwusToNsgPbxYyg251h2ajXMjX2pmVgAoslgGlYu0t/bzxKOQEOdwyI6BI6YClmdaaJC6ydaXUFy9CgurTVxiV/CX//Gr+G7r9qNGb5ZKhI9KqntlKdBZWmB5oiYpsLYr1BY5a4wu2jRyHYSQIiVCv3eoElUdE1shrfcND1pbSfqmzlJdi5ZVth8Q12JgYZ5ZyM3Ap5XL28CL37m41A++GW0aE0FRFpNOOwXCSAetcTaUhiSRrN6feaBwdI2JYHE5HSSi9a9ykxy8lFA79ARzO47z7wNLXK9RlRoJwVErb34i3/5DF7x79fh+mOuPtDA5xHz3/rDNAiPQSr4k+0dJ0m/Tr0ypf+NtgZAWBO3D9yIecq15n0877d+ASHdgNqOXRR41QRUTLUDWNWrLt0ha/CUgq9+eJawJOMOkgBEc14GtBZGcc+Uya+EiHuszlfauIBg8IC53XjzHz8N37yHtTzNAI/2bqkyQhcryGoFrEcD9Cl9XVoMvWINSW0eadCkcpatp8BnXEtMY4X+eNmsjonCEiDGRZrewgz+LFFSA1kecmzoh49D1qaUYy0gTGwwd0fCHPH5mACiptYir1YTCnx/gMRj/BspCsMIC2sJPv6Cn8NldO59WitRwBDUI6TVvEYMSUZHsU+8E4BIdbYpET3UtS6XtsB0eprzM1IrVAUxASDVpJedVazecA3K1VnWRTuw3g7gNXYRVGnd0gL7z3e/E//+lnfj89dE6NGNsd4VAyFmGUVvM50KInziDPZg3BVoawCENX9roUXN6NA1GOIBu4G//r2fQ6V/HHUZ7yONtJSQ6GEpjoZqT0aFSuFsbQypl3hzPS9WlGm6Tv65QDYz76sZvkIbqNGk3hbpfqyjsHYU99xZx8887jvxJ7/6bagxClVGgbhB14ZeyoCWBwVN3clhqWw7NWiUtZosIspUn0bSMKEYaun1MYVYDaI5m/Yy6vy8ziSCqt8MHyf+mDyU/EmlwObrTM71mHtPcSery7tWJUhkOLx2CGWC7AWtANUV4N+e+xgs0CUsJ21mIV2ajBqi8ST6qPVoKa+Yl/ztZpvqyCtjDeN27QiO+B2ziMSKhaYTyk2ga2AxOg06LSWcRFgqz3AsHYyrYmek7IwoQ3RF+0eXbN2Z2p4LEWuofxqjMttAuLgP//Gxq/H8V70Jb/9C23bI6/HFDgtAKVObU0gZDLOIRwe21qgv0DLrTd+3C9uQzyxtyXogZfUUyIowYVXBl9CjYH9mDfjNF70SHz8qZWXNqQWGBBLUrhZtzXG7y9qEwjHL67mLY2FIvXi0c1oAGoOhHg7doVIoAUUpDwUusW4Svsvr9UbISvkEZsYd7PQjPPeXfhr33uvZuAwpsIVn2qVxsXQLJgUgyHIqdZLy4rEnLB66K55cvZlr4p6zU/uRPy1S2PohbLn5dZ1LpPUFpVttLsUNYKXu8LDEB//wX67Gmz9xNQZV5tXsArqa6awucw1vH9KWsSHvzNdWExGBvL96gjV2yfInoxXm3EgdFQmC0LhHZVqjco0II01+Wc7THSVL/WmRQhAAWiYxjmp5cmuc0GaYBC+csmcEMIy3nrK5VUxvoxwS8BOUaI192/0vw4995z7ci8nVnlbrtDr/6B/fi6WdF+Emyt8S81bztmbKJVqtGcO3r9s3tit98nGS4q2n4m/8xm/8/uT8TiO5D2ma0m2h4ksrBhROVudzVR8P/ab74LOf/ZLqOvSOLhM/aiiV6uhpJ376quVKxRoXTbEngHGSnedaq9KkzVLbm2UUaSe7MYGEXq4foEzrIen3Ua+w3j5xAPPFCPfZN4OXPuvHcH6z4MDD+k/I6pVh/FS7aZSGviCxye0dRT3nU0RKAqZae4PdnfyZk89NeNPp5nv5783fEFTmDbOKh7ggADFFcb9Dnt77skUMuhmOHz+KjHmrfYRHAd1DgQKTVQ5KzJ8BhsMOkozmFt2ncpVugIa9C7RtVKtASfksa9A1CbvRmJoRrRw48ySr0lkdE8pBw9hdz1fw0C13Tc84khU3HGToMn2DShODYhWHj63gpq+soREs4uJ9BYTMoo9ffQLHWXGtMOljrc/L/PLpimYRJVOmp4W8femnLz8z5bclADKmX64F6eKU9RhN/iRJ0esNUKvUoSEND7rvvfHlT3+JTxZR8UtYW2PNR+Ee+hSNik+9JpiwqpCiaxyAR8HWLmha70KqpZ3jCrRCfIat1cMmUsTK17V7zIX8bv8oAcPDkx/7nXjaD34jZpWfyRgVmR4CNhM6vatGOi0O7JRWJCWVQp89kvq6WBmsbQApE0kF1zg59XRedk/6/4MSvnTdlzGiKxXHQ1sNPR4WUao1CSjMD/UHawIQ8097Dgs8NJu3zEvVOKIrpDEq6loXALEGJgC5TcHPjgI5aPja5CyEW6ci411i/BOtLEaX1C+X0V1ZwY03XMfjCSTeItAs4ZM39XAg9bE6LqFQbTGfA3hDzbBm2RNAzlLy7zTa1gASaYq7Fg3S3AYWdhiWaVmUbXp80kuxqxngux58Dxy9fgkHb7wRxVKITrdLieYz/OdnXQQ0q23CnXxSCbcx6xq6G7JSNI0+yWJrbNSSgUV+qzBK4PWWcVGVpmvnEP7qOf8XD76iiTnmpebBNHyGyBq5KNAxMXUAklsfExU9ywDialvXMkSQE3jkgGf+uWfzbvwy08tfV146Q29kDjdedy3mGiWsr63T+qP1QdAeaVKexvBXZG3wKNeu3LBG43KWocr8CzUqmFV5QhdwVFRPE10XG4xGPgt02gDCLApTujQj5qDSxErGLweURw/ttRV87pprsT6axWFaKWtBHV2mV5uhywjzicwhn5OMTQHkttGW6EmBPog8MN/muAQgNNCOoGAUMjSrHn1UYJHy+byf+TZ83zdcDu/Efuyep/BKy+M+C9Sta6HFgLQIj6ax2yI/ahehmxOPPXpFfVobCc3RkLjjs/ZoI4jb2F3NcN9dAf7rZb+Ni6tAjd9Sl3KYqqcnQkCwcuTAw9X1js4FmVEcVPRW/OZeCDTElHD5JgVaGXUqh5Za5BXxkx66E7/8Q49E5diXUe0dQW2eua81ANVaqOntGn8SMBfkttAS1HB69XSMPLksWmJSjZV8JqNtnzLTdL5tqYBhf0g3j2lV97nGHWW0bGcWMWzuwOFxGW+j9XsctEz8CtKgwopIoFUkeITWkP+/Q9i5Tmcu/lsCIDMsOzXBSQxVMKwvsZ4kaA/6vCCrgkLc72kwKH7jqQ/DzzzhEagNlrFH/s3aMoVa616wFiWn6vZVrWhjHXSk29Ll+8MIIS2JuWoIf7iGcfsortjVwo9/98PwvF/5EdToz+4MR5gvZegvH2NNmyDV961mVcwcO8+awZKVGVuSIbeLGBNVfznnwmAOP4FE+Zf10KoU0FlZNu9Eyyo+5JIGfumHvwdXLoYYd/bzSge1hRlblwUdWjAJC0UWSN/1smh0p5Y9kNuYWgM0f2ii3sTY2a6k3CoHZVucqKC2DLVRJdpIe4ReoYKstoiVLERcalImmdQiXTo+Vy6xYgtCpNZGtJ1JcjM5PQO0Nb0wRPlUk9eaVVs0S81z7iOsPXnma2EhyfTaAKPyPIYND//87hvxnJf8M0r77o6jmvVaFARRqE3RdZRqK3OoRLzkpz2E8bqBh2b+3vPivXjcI78Dj7pqBhXWQK1yhozKou/6anQdDuHT9YkHrJ2qVKpJeKrb9YxY5xJAffGsAkkeoQ3LQ6ArwRaA8MB7XYJotTFnG3d1aI7XalQO3nrfdat41uvfjS8u0RxfuJCm1yziNjXFFramWzQigGR0DxmexkZokNVoTCUigGhtWIHUyGO+naXRrFb/W9q/OuUuzOZZp/mpVtefoysWpyOsMi1jtcjaQlbMw3jI8xFKrQYuvOwyHKC7N7Nz3jxEjR6uDjNbcR/VIkH1f4nEOUsOQD75eOnM1tPW6AmV26csShEl1fFEFll06KSZ9ddrglkwX0GpTFN6fYQf/Y4L8eLf+iXg4PWoaLEelZ+Z8Dqhlgg41Gc/4r3OGp8ZIOyvoZX18chvuBK/9dQn4HsFHvxWVbV0HNueq5q2rVrIr9Rx4vgy0aTMoJ3loZAlisoExZWwdZbbP25G1sPDWNlsZcZMg+wY45RpqjdqiAYdjIc97KjRCuO1MErxsLvN4rlP/X7cf2cJhROHUErow2ltWrolY97X+2K1sqQMVwCiUbCmaAQOj2B82uNAziLJaBvRdSuEBXhqEIlprcbMA6ZRC1sXwjqymG4xwSKjC9yg16Z1aiM+F49je8/GhGxrOnMJ2BoLRB2xaq+wGav0SVl2El19SMqptdfdTEtqu3UlVlgxFJDxgRXqyrf9wstx05BC7hXR1NB3CnpPbR705xulAHtm6zh4zWexu1bAjz/u4XjCw6/AAg0WLcxT5gc8Lftl9bEUUF90jaT6/ubE6k6uThtApSv2ztmTIsNNnZwSBZcm9UQ56BO52DOjeCRLewgy6/x1fQd49j99AB/Sjl67r8DaOmtf1q7lHfOI11dtGUba+SiGchP5wmSlOC+gRZIoAmcn/adrgRgOqpuKgWiNWCMNDdalpGi9NFVapHsvuQADP0FvFMNTv3iWocy8s/FBAlT35jYkSgitr898f97Wt7W0NQASqNlU9bkGbAcmi1owy3pS9ABJa2MIRFRU6laE3JasaH75tYzRa//rAN72jnfg8NFl21emWAxMXQL+kQI84lsejCd+z8Nwr/PlMvEazfSmz7A0rLRIFeNzSpg4B4/NNFE5Y9dQKTDLAUS1vd0547Q5vjePs+7IOhBbvk2unkysrijeRawSw29gQM/+xw/jgwd7GM2dh96QWqSuSlov6rmysGTUMN9SuSwaVaseGNuk6eyk/3QBxMCV7sqYaTM3TDfUSKoFtJOAAOGhUqvhvEv2YehH6I0HGJc8m1MTsKLyeN/1b23k7jYjAciYACL923raGgApa2orhdBW0KJpkGuEyoQCqxrPqaqEWNaIClnMm4UQceB2add8lBv2r+Hjn/48Dhw+hsXFnbj7pZdhcW4GF+4JoGUzbaUxPsyKk9+gwLAmGZdCJPyWbok3Uy4aUg9je0CCRrZY8epZBpA8JqJbi7/AQzaViyGf0EM5G/EpIoMGSckSedHrP47Pr4xw47CErjK/wnKRcmUsJ00roKzZimqaMyLrw5ZH1JfOPJ0ugIjGtoiVclGAmMFneooEED8psbx9s0DOu+Q8AsgQXa2eT7NVbxQ83SfQEDz/tzicu3QXAJBRWQODtVIlrYYRE2LmB2+o3CX1xAk1+Dsl0bOsFdXQlS+Go7VCspG1fXn03229Sl7WMnUaqV2Wu8Lfsro1crBCffdCviMLIqFvWyubQGymXB3yKGwcLfV8z6wPMe+oWj5LAKIYSPQ3F0p+rjhvZpcO5dnkCR15I4213URAQfKQ0k1Z4eX/7+Wfwud6IYEkQp9uC7TOiRZNiujwjJj/ocbW1Fl5u9Dzb55punMAJM/FATyCiSYfenJf0rLJY7VGALl4LxJ/QAukzzrOhipSLtVWRLllWNu2DZX5dyYBZEu0JIFGomoGpWpyFqYN75uohQqGrCEK7uOaKUlhV5tJkVe0fHl3lWjRgafh1XEbBf4ed9ZQY6hN5kvn+DL6a+t8K0WtEcIrUeHV8Co2U8SFLeYds4XEylIddU18UlD5pFkdfOIsWh+iHBzEm9OQc37NqZBo05P03TXYrk3rImIG+wH9eoLy7PoY/99PXIVv3l3GvecLqHk0S7TWqny/KsFE69bSZPO6GYLB2M292bbEuNtIWp+ip2l4Iq2AN7KeFe0xrLxJybYUJO9ZftLi0t47hXzh6u1KJtNnrvy2KKeUANViDF5aWqSPUeyTWeNJcK3gTibTDdomHFB5bX3UxiwFu8HY8VyLI1fL8GsV1iwx+p1VzC/OoNmq01AYod/r2LwYM0sqFXS0uRDDlLIJLIwVBbKb3TlmlPj9zVUWSRa7lM/NBTmb5NwTNz7WzUjJ06I0uHQ4NgAUM+4Wf55owH8prGK5s8KHUox7S6iEsS3u/IwfvATfc9+92FVYRdA7AbRlffgollrE3bpZjNocPC+XbUnKCAMPn3lE+WO6NQlPG5RrbRhNRlQ7WywQ4W/dUz7qWVknek9W0JRuG20JgKj9V7W9AtcoR5u0JuCgyaid0tVd6KR/kxIQ/bU8X1yoop1V6Z/WMQwb6NGSabPEOykdHbozpdYs2v0hwYaKTnAZlwJEEhD+1jW/TIuEwZmisfYtyA+yxkF1HU9Y45bV5jEBEcmc7KOc3dWzQw52taiAjOqYv7VEIWOVu3c358nB1aWOtLZsq1HDwWNHUZiRNdhDou0qeO9xD9yBH3jA3XDfOZrrA+ZDnwBSaBGMGzRg6HhqDdE84G1IsjkMPAxA1ByqSoHlKizxeUIekiOy9g7SiGd7a6QeGL0j62VL1OIuSVuSUxrMo+4wJ4p5ja5P6YqVGK+5qwIQu6qf1GQpgcpPjahUdc1/Y6EHKIbW1Gr3a7WaHVMqlu1uRp/eXidrNKE70xM553fFm8hFZePqze6eI/RV4v5ViOpjFkuF//bsPJ9GRhdBjbZFkGLt2I3YRUPtp77jUjz2fpfhskYJdQJqmSCb0f3rxDF6acxikPVDNotNpr3KjqHmbUMEamWdZh5osyxfroI9Q+WTC8i7d/TfaZNZmJI6nRf5MzC2uOkq/7vclFxKpib3zX3h7Y139eA2ZIv9bZOVO4O2pBG1VCq7E6XFioo1nSmySBcl4qd0RG6QIpM/mVP+1M2PNye9q3vuPn9ZyjYnL39CxCMVQZQ/kR9PhnE2SLHIeVNcLXK3EqvJpc1xPzUDmfc2VZ8XZbVpDgjzXx3t//UV4K9e805c39Eevi2EczvQO3EcfpPWXo/AQyuwXG7aYkraCNv60KWHanTNRqikWuRYyz/6iOhuplpsSVo4civMbTVNDEijvEHV2jJoWgjOxhNLU126tmicKZiHUr2GCy46n1czxARMDXvXMjJFv+wMPbrK/EvejuTcss8+4cyMA1E+3+kkvTTWuf1VDcCqz1gJE4C4OzfnST12CutpBzmOb+09cX7PEc8sEry6wXkNKj7lyY33xSfvnA3KY3KzFJ/M0FN5Qhs/JfdiUxgx389NcqtdE1ocIxuh8y2XAM/+2e/C/LiN2WKP4HETmrvnkZ5YQlCfQZmWXhRHCOjWhLWK+0Ak5RIJjOR2uvDdt6V9p6DX2SFaUDYOxOJICZKFoWH68mUYRy3O7CwrWR20QuS2MB22lqy6t43yHN1+nNv8Z4ImkjWluxRtlicN4d4ATd2k0a4GxXYfmhF0WQv42z/4AZRWb8B5/jpCNa4u7ENSaKGzPkSc0MUp0W4Zd+FFHVRLvnWoqeesXyyhS5dxKP0rJCilXYRpn+7r1lsfU7p1ktuprS/OFE0B5C5IZngQLHI28LCiJlPA4u46FltVW3ZBlkiLRsXr//T/4Kr5Arzj16Ou7uyUNXaRR7+AXncVo6iHJs8ro8zauKxdRAvv+EU3cJU1d2kUoZxpkexzwAr5uiUV+plT6zP3pSmdEcpBw3oexLymjShch7Arbg000yi8VlErt8W4G72Tvbz+Z//3e/HNF81htHQUND1Qm5lFIfCRrC7x/TFmanV0l1at4VS9XM7C4Q+yNoDyNPJnrI7kM1cDTulUskEAWvriDNEUQO6KNAERqbFsATcFbwIihSKqrRZWjxzinRT1gO5JEqHFu5VhD3/wc4/CYx54BWbpsvQOfQXFVGZKAwkRqRcRJLQlh9o8zMqQqyKWSeLaHCbDsshTOjsk+J5aIFO6gyTVVUfIZjV2IKKOWTVW+Ggvr2F2z3lI19sY9zrwkiG8bIC5ErCDTzzjcYv4gfudh11eB+VhB62ZOWReFSe6hIfmHLRKnO1+t2lcjaYbDIshWUsETsXq7BFh/Ay6kNOSvguSgGMzgNzcEmkt7sb60hr8+gwKtSb9EQKLFtzJUvRXlnABX/6FR8/jx7/tKsxEa/A6bczWG9Co4N4gsg2eBBLWmzEayfjgRwq87pNlQuurUzob5OyPZPJr62kKIHc1olK7UbYpoUIOxcnRNg5EeKS10FzcydKnryx/WfvEBFUCSQWLcy0Ue+vYzed+6jv34Bcf923YVxgCq8exwHuaVjAigBTrPPdKGPUJSym/klF0k8SW3jA8UTS2nMeONchjctFdy+8xIhOyCXgT3njvZqxdB3U81+nm8d7MKvfCiOV1hmgKIHc5kgIIQAQVbvEhAYiuiqXcE4NB1dWEKQaahzRpfGvU+E7nOOZYkT3pwbP4ucc8DLsLXSxd/2nUGwFfThFHEbKsSAxqICiWKUgMIyCHEqlzXwnvqmRlrDI9QzQFkLsiGVo4yMgBZLNM5UCyucdG66do+oBW0R/TnanUA1TiNloEkcfd18dTH3kVLp9nWOv7UShNavyRj1HqIxqMUCQAFW1twP7kC1M6G6QFyRM1dJ8hmgLIXZIEFyxaGyF6csSvCjs/F+eUWyXOZuE9v4x4vWNrhqhxtX9kFU944Bz+8BnfjT3FdXjL+4H+iltzVIHGdF1GY4Qayj4VqbNKagEZaxzPGaJpad/lSEWq3hYJkY5umLlGgYitH4YGQr4cwM2BRbZDihLC1iLP+DvpY/eOqhu1WgP+4Ce/G5eX+2gODqPUO4xGEMOvFm1JwCTxUCq3DLimdHZIFueZHMg3Lem7JOVw4CgHCTcSZOJ+GPMi2d07KQzZuIge3ZKxX0KhUSMeZIiHHWgr9AcRV37nSY/Ed146i0rvJqBzEFW5NJ6HlN5LpMU2LLQpnQ3yRykWwimATOl0aIIfE3wwUs2kkSBqAIW2s7TxG+KE7IaZmXVC7ncGKFVqaGcejkYp+oUKiuUSopUTBiKPuLiCp337PfHIey5iR2kdhbRNSdIHaaIM1RCrUKZ0NqjEMr3X/JnL/ymA3EXpVPBwfAq5xS8cm1WiVdDcONJWs4qllQ4KRR+1Uh29uIt4MMDCbANZexnD48fwoEvm8JOP+w58wyU7URquopx04PkEKPXCaFSq8GTyUc18tQWe6BxpjIJGo4jGBcKWJ3bPaiq+llO0KN1BukU67yApnDvGk/x0g2PI+uvg2ywzW7DIZxrFReaN2HN5xLS7FefcGy5E3hsV4WdFBOR8uckRM2lkUwiU12KtsMYvjCNcuXDmLMAtWpV9sh7IlM4OTUo0V2CRO9UNst3Xn80P5E840bVHSLJanMKTbZYnhbMQYjUqIGUxH+GVV771AN7y359Cd1RFcX4HjvW7pkNozWGm0sRgiRbKKEKUnGDAEfzaPFJaNfBosWi2sEffJ6MFFPm2SFFSTE1BvhbZmIecTjknay9cJt6Ni3C9UGNb6IPMH+VqBedfdCFTNEacJgQ+n58foaAN2hVGxjRvCvLmlC/qfGskZR7R5RtbRAQYAg4HGjq3VVqFL4yLjdHRd3khZwGP5hVprI42PNfKaqWUAELg8PhsyryJqsTpZgntzprBUljwMYxHWOr1cMF4Ff/0Y/fEPbQC4BkgfX9KdzWSfJMnB2NHOmOR27gPAUF+LjE4+aREX2dyayTothrPxhTxMXq9rsaTmaOyQP7Rh+/Dkx/+QJzvr6F/0+fQmp+FLdS8vIxofRmVWgFRtI7mwg5qb4uKqwZefUHuFNlGn6n3gIqnXQVPh76G4p8JshxmHGRJOGtCii925wImY3s6/+GAwyw3+6eV0rS8op5LiTsRs2eIrBgRGzMMhzG63SEqpQaD8NHvDbG+toQLds9i7xzBkbh8pkiSM6UpnUKUWzMgXN1N3gAYR9qHd9hViynP+XsXkeR7H7oTT/z2++Oi2TLaB46hENSxa6aFwbHrsda+BqW9FayfiFGeuYIKoVGsAo11BEkb4cCDH9MKoIJEpT6V5DRB5CySLB+5GmHqkz2UsgKPY4TZCMEoQTDWNiYRrRhmXmE4AYYYiR8jFhPXtavBeFRjOAXCyABJuIJe9QTWamvoloeI4gxhXIXfDzBcApoE5Yt37oB39CY8+n6XGDyfKZoCyJS+KglIHHiQ86PRiKY1FSEbmstB+cd5IfB9D7sIT33Mw7CTirG35GFl6Qh27tvNgEaIjh2Dt7ATQ62PaCNefSrUCOUsQVWLFtHFsb1JBR7/i/tyTpNZGW6lM7VdeNauoa5VbXKS8qgtXSNyTBBRXiR8JaHLkhpwaruJyKdrZc0YapOi60jLLPVGtiWF2jm0d16NBl5nJUIzLKFGy2WOsPOAnbP4zru5DvwzRblETGlKG3TS1hDlFkju8tA37w/QaFTQEHp021gIx7bi+w7a3E984AL+9uceidENn0Bt7yyOsbas1S4E4iZ8zamhj+7aUwKrZXUMCmu8t0Klk0sjzTk1BtuJNCtZa8RmxnQCrb1E7RtapFrWhwDEWSH5udwU3Vfrk6yRQWkdg3KHVgndl3GAYtqgpTYLP2nxvIp6vY71Th/l6hCht4JydBzZwWvxW4/dhT38mtqyzxRNAWRKtyCJvATjpBoLOKTYjos+fRZaDwXfQ61OayLpoqDlDAsDA5JvvAD469/7IQRrB9EMiugdWEZrbh/idTWuqgt5QE1jzcu6MvECmu4ZFYdKxdpba5fKDdiuJMBIvAKiots2Qht8a0+asRZeoiUhsLDeqLEAhRYGja2i9cLkVgstFtvOw7V3pAxrZGu6alc9rcUSolSjZUMrpdc+goUSrZeD1+B3fvzBaDFbZ4jBZ9IDnALIlE4h1+Eo01m15klXwnpnrOGVQl6q/v/tXVusHddZ/uY++3YuPsc+9nFsHzskTp0mcUKukEKBhotURUgIiYcK9alPCIkXHpBA0KcKIaq8lKtERQRVilqFVhW0KqraRLTJQxXagJIWN8R27Pic43PZt9lz3Xzfmj0+24fYtHbs2Mr81jpr9sxaa9aM1//N96/1r7UQDWXDl81n1NumpvA3QWHUXyNJGeP+ReAff/fXsXT2R1g8egzbEel76qLFxh3mXXjjbdr/GUYEmO2wiZ5Hmz530Ug0nGmKvS1Fq8DJBIm8MhhzhEwt5UNlDIXAxLxXdazKxPFg5z7NwQBuFiJMfcxHFmbI3NSpqvwx8TrlqzYGDf8PtA/9+fULeOhu2itvn8GffOxX8PgegseIwENgcnnfmyU1gNSyS9j4jCkhBzN9ykptVpPUkc4MkwJhZ9aASRZnCGfYerWVR5rD97QncoQGc5ycB/72938Ly8kawtEGFjtNFqA1Vck9Cn6N1QdgPsE06O0m6ToVSV9i/rt9pdwyU+xhJ4xp1pTgog3QBAIFyt0YtTh1gYDPri0lGgQUHyFfcpBrREbmUOni5xQ2mnx3M8kIvTdO497FAMWZV/HJT/wsHj3E227F8DsEHe0AqcWebpLUfiC1XC5mLRGaGQYuxDgUPPVamDNqLApScQV9gWTYmKvKy8YbjWnfy3uVUEKswBtrwDNf/C4+++pZBMt3wh3mSLMISZBgbPbm7bCQBppJirQ3oDnD0q6CIfLDuKIfiCopTZUZpPOXAs8r5mk38LFy5zFzj4xA5ng0pXINl7JcmmYuy79aP+7V/EC0A15MwJAfixic5qVUW6oKK82+NeJ3GmHxQgQNAgHrLOtOvhwuRgjH6/AaDrp2iCi20CSw7A8b6KQE3N552MlbePrn7sVHH52BZiwFMZ/Bosnjl7zRIShlZCM3Q2oAqeVyMQAic0RgUJosApCyG7DUT4VKBCBSp52YVD3vo+DXUiu7B/JV4JXX1sd45sVTeO7F1zC7eDfWqDG5N4Q7P4PC6TA9FUwbOhW06ZX3KnIrA4g8Qmmo6GgqSJRHkGKZYdhGs833ZGEQJQgbLczNCUCAi28P0PYS5MkAzZkOFjozZp+ebPU8Hjq0D7/22H7ccwdAAoIOX7pXyOTk/xfNowH54ShLMevOoRgRbG6C1ABSy+VSAYhRArbQCQOZDCias5V6VFKpk2I5l7n5CEU0gO3TZBGdd/nb6uDcRR9/8aVX8PzpFGfGbZ4T1SjgjCKzOFraFgyxdLX9q1CQWxlAxDj8TJ2kYiEyVxhYbmm6qA+DJl6zhcFISu/CDxwMBim2NrfRbLVw8EAD3Q1gL1XIubiJ8fpreORYC7/xkftxfAGINgocnrNNPxGtR8N4Cl+wNDSmo2ugvI10pBdx46UGkFp2CRue6f9Qs6CimKFbGSniFqV+Khh9nIRKdCwfBPVxmKm5cvewMmx1V9FuzrNxL2JtBHzyq/+Db7wxwBsXchbvIyhGJO4DFFozQCZNLK2QIryz3MoAIt+WRiJ/D234bpsFqDWSkjJW0LnCIZgwXZomyLIEzdBHp900CzlFvZQMZAbu1gCPLBR4+rEOTh4lmDCtp1Eumj3EZ3heYEZ51CelYGU9zMn0tHnSaWJUA0gt750YbSsPJUbxpDSV4oiK76SaDoIaRwTGSZG6PXPWG9NE6fGrHLrIfB/neP2z//Lf+OeXtrCKGURejkG8Sc0eotFpYZRqu8kru0Pd+gCSGwc7gUcJHI6J9TtnwTnNNNcha8higkEPAUF2tuGaHQOdUYZD7SU89cFZPHU3sEAcNZOmnSFSf4SE9MxDi6DBOhOh9bjaHGxeS8oNxB55pu1ilOs/4cZLDSC1XCZqDGqUisUBSh7AM2qY1RVdNDo0SSGWwhO6qtNxlMNv2GQVXV61ERYdsOWjH3fRJEDYZDTniC1f+V6Gf/jW9/HyW+fg7tlDCt/Adpd5Qpo3kzu/k9zKAKJtJYNMHae0xAwDEXgQOA14KIXKz2ClQzSthFBAEOmtMc8Q9991DE+ePIyTB4FZppwhEQxIL2zWUQCSh9oOHNjKI5ouHh/RI4T4aBcBmipcO6ZnzDTvYZTdnMl0NYDUcplI/9QFoUYhFVafhmaNXhrWVR+JSSWRRlQAUsZypNosYvh2i02bVJ0fQi2VWuEPdRWDrSFa8010meXvv/5f+Ny/n8Jb+TyixkF0uxEbkBKLmL+z3MoAYq6YiYflEGxOAFGs/hBVQjv3Zf1t7A0tdHKaHQWB49AiPnRyP+5aKtmE5heN8yHrU8609WUSRonZkxg+TbxJ+SCbM8LDNM3QK5jGtdEJQqSjGkBqeQ9E+jcNIMYkMQAi8JBST2jyJSmBw7RiQQ0Pu2Y0oKCCdNCUE5RJR/AodciEjYsbcGY8FI0Ovvz9TXzmCy/i9Q0HnaMfxJom6jGtRYVwCFhmlq7Jppo4VGDGBjSqoHoxNkDBjBoHVkXM5cl5ySS2Aw9Hjx1j0jGyPIfnu0i1L46yUFkdlk8I4bsoAbHMpXEoPrfFs1PooiN1YZbPr6AkmpIvxqH9c8ogr9OApkuDzGAmH2DRHuHEUhtPnDiAB44CGqvSuzaAnWywTgVJWzl87mo0qyBYyINMz6fb9Am0BD3MMSczjviutpgnsEIDQEUNILW8F1IqRBkuVwsqz2VKW8lOChNLKQ0MyR9Bi+aUp41MsklXEyrUiKzGCQJQFfDt19fxT1/5Ol44M8L6oV9goibceAutYoDtaA0Wv7atmX3odwlHlkZ3dC8d0zbSMKZAhGBgVHCs9icQYWQAhLFkAiBWI8TRlSPEwYw6mMLlV9swD4dlipYQgOTglcn/haaHTo2pyrYVE1JS3mbAUnJYDp/QC+CIFdCkkD5rb5ys10ez0UDhN8ww7WgUo0WbZr+b46Ad4VfvO4L7Fi2cWCbbYHXVJzJIBhg3yDYsHyxNWGYgi7XlsZBtUrd3Ep1mkgr4BUJJDSC13J6i5iRFVlwqwHTQWcFLzD9q8NsDUnXPRSf08cNzF/CHf/NlfAcPIe0cwawVYbR5zqw9ktPU6K5uwlk6REWViuh7LUYgrSWAEIw0WU2T8YqxVFBpKAZAJnWpAKTZwMqRlQmAZPBc5rkEIEygtUlYvvEYJVAZp36DhPKezRB4NEV4e5vgMiJg9OMEicwKN0Tg+lhg+UkvQhb14OUjtMYjHOq4ePKew3jyuItlkolFkomym1iMboSEtl7h2zSfCEjG+NPzXbuMagCp5fYUzfQoAURmgFHcKkzo98ZWF525GZOqnxRUVAsh7ZvtdIw3Llr41N+9jB9GAd6KLsLev4jOkJxmOEDn4B6cu3CeDUw9BVS/Qv0BNqy8MKYO1YbFEwEMZRAIjAkm/MsWXpoZEhteq4XDK0cJSgQxshaHSp/LIcvRQj4EiXHCVPLl0MQ3qQdZyFjmRMBfVG6VrXxM4/gEl8BGQvDpkoJEiYV0I8YSTYu7wgGOWBfx6D7g5z+wH0f3BcwrN3fxmNLwEl4J6rSTi08QM2cIXIZhXYfUAFLLbSpXABCBx0SJpSb62Y+prPyU0xKgDc/f0QidVogLfeD3/vR5vFK4cPYdRrSeIxtlSLMuWvvmMMhp9KjfxQCIa2afVgBiZrkSQMolDYsJgKhO5SiR+jXCVhuHjh5DxjRxzituYI4tx2M6Ta+PmCouF/9hGWZ28Ninwod8shBb3REaYQftlkX2IpOsQJIOyGJYEdNHAuxxUnx4ZQ6/+XCIE0SHhtBisAnttRMRqIa2NiL3eJ+y41ScyfQdi8mICZWv6pqlBpBablO5AoAoSBEljPrDBD7NFuHAYES1DE1XLbYGPcy2PFxIxvjMc9/FN34Q4bXxXuSRg5mZvbTtu0iCCIWcTTRpjOBgiT0YRacZQ0Zi51RMOaLx3FjAwlgiF3PVqgSQO5GwPrw1LC80xxaZSGEAZMAgk0jT7MkQyAxKJkKw0KjI/AJWtxNsb8dwme+Oho9DNGsW4i348Rk8/Ngi7rvnIO7seMYQ8YfAHBFCviGjAWOfBpK2XnDl9q5gifeYWLcJ+VIELNcjNYDUcpvKDoAIKS4DkQmAbG930W7PwObXW6miuGQKcut2rBSD4Sm0m/vRy+fwR3/9Mj73gy14d9yHUZfpNNxq9WmhRNASiFrAuLRRxEioeGQkVkbF1b0KmSO6Xi7YIwhR7cImTRgyEIEGSRCtoR0AydWnQiZT9uOUizMLPMzasMpN5V7f3Gb9Z9FiPrffR7u/jhNzDfzyvSt44gRwYDZjuevMPgvXapA58ZlJPjo+MC9vW/X5ejxp88AWyI15RxpEdoP3sg0bmfTgXLPUAFLLbSpSUX3xq2a1G0T4FU8yuKTxvcEAQRAa4NAAyhaBZWHPDJPxM83f/bRlfEWee2EDf/nVb+O0R+0LZtBM9PFOEXuxWWdD/ICtjnloDGi409yeN6JJYSmYZQSpsMyj73yj2cCRo0eRMokxYeQWruoKQFjBXH9piojhqDslJeso4PNKaPR+nzpQ105jYXgeDy638YsP3YkHjocIPVofrHdntMayWMbYQ1ceoo0ZmjrlLJVkGKPJerjqlNUJxRb5jusRQELz1gQg19eFWgNILbetCEDUpHaa1Q6AUMQMeCnqD+FSqSx+0eMkRousQFoT9cgqsgItftEL/tbHWsO8z75wGn/+by+h7y/AjrQ6l0fl1kI9VEqHmmhR7cYNgga1WORBZov6JAqNzAg4GAQmvCiP1yMrK8hYjzin4eD55rgCkIJgY/ZdoWKrqzS3aBKx3nLomk2HWIzW8fihNp46vogH7nAxR9zSY6mecu3yMiJcon4a1sGzoUEjlcunZWmssBzDjFuqeAbrzvprwl3EU9pjuEVqVgNILe9TUXO6UpOaApFKqqTTsXSfepUwxOOe6VTM0MZXXjmNTz37r4iWH8DbG0AzbRIM5rAeb8Pa0+YXn4ChaeyaE+JIlVmQVkoTDPhUSZo0OX8vHzmMsNGAx0CswjBOkaofhUwkCB0MehfQnpmD3WxjSDIUXczQjDdwT6OPD8z08YmP3o8lP8JcQ1PpBTiarVzOS6keQ+RC8GAZ/3IF1kOgZvaHEeJIRwh4BFBZX8IT4d4UrFyX1ABSy20salL/t1npTMlGJIynk03FhAFE+kNNKrClXwjdOfSTBr75+jY+/ulnsXzyI9hcLdC9OMTsoQPY7tFsaLPMNpVyg8ojm4SAYVbrmXSiyo/e8T0cOXYMaZYb0FCfhkMGohEYkypP0fJZTpaZFeSzXheLVoxHjszi6Z9exBMrTLO9hnZAsygg27EEHAGVv/TdEAgIsiQyRQJNAhoThao1Vsyi0dQPMSYTSke1EnzUjSoPFG1AVb2na5ObASDqu6kBpJYbIGpSO82qOqriqlfEyHRSxaTyQ17sJzlCz0HI4zxJCCC+IS669r0LwO/82RfxI38PsuYCgsjGcHMd2OOhs3cW8domLOa3XZoezCe3+jwhIomVkFUsLR9EQJPJD8qxlZi6ndOUkUdqSNC6eCbFAkHj+GwPj684+Jm7Ahw/EKDpshyaRDJrbDsg7/DK55C/CEFKa8EKkLQksvpl1OshuHB5E1kzOy9AJ1gf089SXVBJJXyUTmTXx0FuBoAMBoMaQGq5ATIZsSi1q1SPKlSiS5dUpLqg2B5jSBXt5zG/3h20qEsudc1Mw2GmmGly4sB/0rL57U9/Hr3mEjbeGmJpaQVr66so4gE68y0WVdA0cJHL30J51aESNhG0O1jcu2Q8T+V7rlEao+RUajmwaybtIvM8dHgGv3Qv8NBBYN6wiB4ymj+xtlkI9hqWpOoKC5yi3O/FdQQKYlACAvV4hAz8xzQKRkqcoGhAWVBTpjYnZbepNmYVuFsbQGKi7nA4rAGklhsgFYBIpBeTXztnpTwlgFzSJ4ku8os8olLFLMMeUeF5US7f0ikYBY3QJUiM/A42rBY+9gd/hbPBMkbxHA6kixj0eW0uQRIW5RBtwrs7Iey5BczOL5o5KusXLmCuEWBPyzMmhpP0EYxTzDU9HAgifPzDx3G446BJhqK6mTkuxBBmUX+nYUJ6JoGI8WCleeKRUfjyL5UHqaUlpeWxWj6ZHsuM5jA2eSbnxFNkAGnsxayDrIu6o6YvyxvtOuRGAojAQ+zDdILXAFLLuypqTQZAKObTWyrbNIhURxWAVHEpY/TiPs2LBjx1NEonVYxQxNY4R9kpOuIXfqPvIW438cdf+A9886U3sThexlo3xmqb2jjbpCKqj4EZWzOYnZ1HyDLtPEXb4b2jLVjdt+EOL2KpUeDBnzqEDz1yN07uA/aiy/pofkqTxKVtFF4iDEtZhZaaNyusPpRCIzysoGEwokl6UKfBxxCvKdMpCBsEICqrKk+XVKaK07YxZnRGIk/U6yMgNwxAKvBwHHkQ09w6ffr0WDtdXW2Ng59UagB5H8sllJDWM6Ji6aeUpgKRKpGou5JIV6ZBRPvuhtq7UbNtTU6mJyilGrPlN1triM5O5tIkzKQxjm+9WuCZz38Ja40FvOkuMNkctZNlNJpwyTo0CDOmLTPub2G546KTbuBwI8XDh+fw5PEl3L0INGnWZP1NAo0Lm1RDjmXZ2DZu7sJE13YIFNqvlk+iEylpiWqtvpWJyaF+Uk1lMfWWG2t5NHnS8mkvB8yd96J0Oi9QuU78eNcBRB2m/X6f/wepAQ5NJDQAcurUKfOUUvoGX/S7ASQ1gLyPRa2p1BtqAw/YnPSzUhL5gpaieIeF7AT+Fd/nN7vIt3kYkyob7woGfdlDZCQhmj8jnR0SPXSctoG3meJrZ4Hnv3MWp7fH2BpQieyA+bV5Ext+OkCYDXDf4UU8eGw/njwR4hiJSof5gixBkGrImIV6HbKPMZWQNj7LDkLfrBGSkWEkoxQdgpLxfDOrxzO9O6EkqrpwQwAim4TmWPXsknJivhIxT/UaJj8FlQp6csKeAZHrkXcLQAQcURRdKm8aPBRbb7755jjny1BCdSz5vm+CEpSOPnqkn0xqAHmfy5RyVLIDG9VRKdOt69KxScI/pmOggh5qmdRKThOXF2F+6/SIBYgTKIcMnXMDYFWb5vGERlcWiT/7Z8vJa5WC6p7Sd2MhmWFWKT6vGkah2u6+2e56SpR2lwg8Jwl2SpiMPk37wVD0U2kqoDH4Ux5es1wrgAgHsiwjPuZIksQEAxTEgQo0qmAYyNmzZ8cCjipUQKJ4d6huMB3XUkstt59UxGA63h0q4JgGjd3BOn/+/CUAEShcCTwUJLvj/09+3HS11FLL9YsU/seRKt10/E7BgMQk3n1sfq+urhoAkaJPg4eOJdXvKkzL7t+11FLLrS8CgWmpwKIKkgosFKaB4/LYxv8CluRn+ccvm2YAAAAASUVORK5CYII=;" vertex="1" parent="1">
          <mxGeometry x="680" y="210" width="59.91" height="50" as="geometry" />
        </mxCell>
        <mxCell id="bRRKJH2Vn7t5-3kJ36dZ-11" style="edgeStyle=orthogonalEdgeStyle;rounded=0;orthogonalLoop=1;jettySize=auto;html=1;" edge="1" parent="1" source="bRRKJH2Vn7t5-3kJ36dZ-9">
          <mxGeometry relative="1" as="geometry">
            <mxPoint x="490" y="275" as="targetPoint" />
          </mxGeometry>
        </mxCell>
        <mxCell id="bRRKJH2Vn7t5-3kJ36dZ-14" style="edgeStyle=orthogonalEdgeStyle;rounded=0;orthogonalLoop=1;jettySize=auto;html=1;entryX=1;entryY=0.5;entryDx=0;entryDy=0;" edge="1" parent="1" source="bRRKJH2Vn7t5-3kJ36dZ-9" target="bRRKJH2Vn7t5-3kJ36dZ-12">
          <mxGeometry relative="1" as="geometry">
            <Array as="points">
              <mxPoint x="620" y="100" />
            </Array>
          </mxGeometry>
        </mxCell>
        <mxCell id="bRRKJH2Vn7t5-3kJ36dZ-9" value="&lt;b&gt;terraform&lt;/b&gt;" style="ellipse;whiteSpace=wrap;html=1;" vertex="1" parent="1">
          <mxGeometry x="580" y="252.5" width="90" height="45" as="geometry" />
        </mxCell>
        <mxCell id="bRRKJH2Vn7t5-3kJ36dZ-10" style="edgeStyle=orthogonalEdgeStyle;rounded=0;orthogonalLoop=1;jettySize=auto;html=1;entryX=0.015;entryY=0.456;entryDx=0;entryDy=0;entryPerimeter=0;" edge="1" parent="1" source="bRRKJH2Vn7t5-3kJ36dZ-7" target="bRRKJH2Vn7t5-3kJ36dZ-6">
          <mxGeometry relative="1" as="geometry" />
        </mxCell>
        <mxCell id="bRRKJH2Vn7t5-3kJ36dZ-12" value="&lt;b&gt;Remote state&lt;/b&gt;" style="rounded=1;whiteSpace=wrap;html=1;" vertex="1" parent="1">
          <mxGeometry x="365" y="70" width="120" height="60" as="geometry" />
        </mxCell>
        <mxCell id="bRRKJH2Vn7t5-3kJ36dZ-15" value="&lt;b&gt;.lock file, terraform.tfstate&lt;/b&gt;" style="text;html=1;align=center;verticalAlign=middle;resizable=0;points=[];autosize=1;strokeColor=none;fillColor=none;" vertex="1" parent="1">
          <mxGeometry x="340" y="130" width="170" height="30" as="geometry" />
        </mxCell>
      </root>
    </mxGraphModel>
  </diagram>
</mxfile>
